<svg width="24" height="24" viewBox="0 0 24 24" fill="none" xmlns="http://www.w3.org/2000/svg">
<g id="mdi:hair-dryer-outline">
<path id="Vector" d="M10 12.73C12.3615 12.274 14.698 11.6965 17 11V4C17 4 10.5 2 7.50003 2C6.16453 2.00376 4.87602 2.49332 3.87496 3.37732C2.87389 4.26132 2.22868 5.47936 2.05971 6.80414C1.89075 8.12891 2.20958 9.46991 2.95671 10.5769C3.70385 11.6838 4.82823 12.4811 6.12003 12.82L7.00003 19H8.00003C8.04003 19.4766 8.1934 19.9368 8.44738 20.3421C8.70135 20.7474 9.04856 21.0861 9.46003 21.33C9.92397 21.6058 10.3092 21.9962 10.5789 22.4638C10.8486 22.9313 10.9936 23.4603 11 24H12C11.9955 23.3111 11.8183 22.6343 11.4846 22.0316C11.1509 21.4289 10.6715 20.9195 10.09 20.55C9.39004 20 9.00003 19.63 9.00003 19H10M4.00003 7.5C4.00003 6.57174 4.36878 5.6815 5.02516 5.02513C5.68154 4.36875 6.57178 4 7.50003 4C10.0451 4.23957 12.5586 4.74225 15 5.5V9.5C12.5586 10.2577 10.0451 10.7604 7.50003 11C6.57178 11 5.68154 10.6313 5.02516 9.97487C4.36878 9.3185 4.00003 8.42826 4.00003 7.5ZM22 9C21.224 9.02043 20.4568 8.83038 19.78 8.45C19.2392 8.13961 18.6234 7.98393 18 8V7C18.7761 6.97957 19.5433 7.16962 20.22 7.55C20.7609 7.86039 21.3767 8.01607 22 8M22 6C21.3767 6.01607 20.7609 5.86039 20.22 5.55C19.5433 5.16962 18.7761 4.97956 18 5V6C18.6234 5.98393 19.2392 6.13961 19.78 6.45C20.4568 6.83038 21.224 7.02043 22 7M22 10C21.3767 10.0161 20.7609 9.86039 20.22 9.55C19.5433 9.16962 18.7761 8.97957 18 9V10C18.6234 9.98393 19.2392 10.1396 19.78 10.45C20.4568 10.8304 21.224 11.0204 22 11M9.00003 7.5C9.00003 7.79667 8.91206 8.08668 8.74724 8.33335C8.58242 8.58003 8.34815 8.77229 8.07406 8.88582C7.79997 8.99935 7.49837 9.02906 7.2074 8.97118C6.91643 8.9133 6.64915 8.77044 6.43937 8.56066C6.2296 8.35088 6.08673 8.08361 6.02886 7.79264C5.97098 7.50166 6.00068 7.20006 6.11422 6.92597C6.22775 6.65189 6.42001 6.41762 6.66668 6.2528C6.91335 6.08797 7.20336 6 7.50003 6C7.89786 6 8.27939 6.15804 8.5607 6.43934C8.842 6.72064 9.00003 7.10218 9.00003 7.5Z" fill="#C8E14B"/>
</g>
</svg>
