<svg width="40" height="40" viewBox="0 0 40 40" fill="none" xmlns="http://www.w3.org/2000/svg">
<g id="mdi:humidity-alert">
<path id="Vector" d="M33.3333 11.6667V21.6667H30V11.6667H33.3333ZM30 28.3334H33.3333V25H30V28.3334ZM16.6666 5.41669C16.6666 5.41669 6.66663 16.6667 6.66663 23.3334C6.66663 28.8667 11.15 33.3334 16.6666 33.3334C22.1833 33.3334 26.6666 28.85 26.6666 23.3334C26.6666 16.6667 16.6666 5.41669 16.6666 5.41669ZM12.9166 16.6667C13.4692 16.6667 13.9991 16.8862 14.3898 17.2769C14.7805 17.6676 15 18.1975 15 18.75C15 19.3026 14.7805 19.8325 14.3898 20.2232C13.9991 20.6139 13.4692 20.8334 12.9166 20.8334C12.3641 20.8334 11.8342 20.6139 11.4435 20.2232C11.0528 19.8325 10.8333 19.3026 10.8333 18.75C10.8333 18.1975 11.0528 17.6676 11.4435 17.2769C11.8342 16.8862 12.3641 16.6667 12.9166 16.6667ZM20.4166 28.3334C19.8641 28.3334 19.3342 28.1139 18.9435 27.7232C18.5528 27.3325 18.3333 26.8026 18.3333 26.25C18.3333 25.6975 18.5528 25.1676 18.9435 24.7769C19.3342 24.3862 19.8641 24.1667 20.4166 24.1667C20.9692 24.1667 21.4991 24.3862 21.8898 24.7769C22.2805 25.1676 22.5 25.6975 22.5 26.25C22.5 26.8026 22.2805 27.3325 21.8898 27.7232C21.4991 28.1139 20.9692 28.3334 20.4166 28.3334ZM12.55 28.3834L10.7833 26.6167L20.7833 16.6167L22.55 18.3834L12.55 28.3834Z" fill="#EBD63B"/>
</g>
</svg>
