<svg width="24" height="25" viewBox="0 0 24 25" fill="none" xmlns="http://www.w3.org/2000/svg">
<g id="ic:baseline-emoji-transportation">
<path id="Vector" d="M20.57 11.16C20.43 10.76 20.05 10.5 19.6 10.5H12.41C11.95 10.5 11.58 10.76 11.43 11.16L10 15.27L10.01 20.78C10.01 21.16 10.32 21.5 10.7 21.5H11.32C11.7 21.5 12 21.12 12 20.74V19.5H20V20.74C20 21.12 20.31 21.5 20.69 21.5H21.3C21.68 21.5 21.99 21.16 21.99 20.78L22 19.41V15.27L20.57 11.16ZM12.41 11.5H19.6L20.63 14.5H11.38L12.41 11.5ZM12 17.5C11.45 17.5 11 17.05 11 16.5C11 15.95 11.45 15.5 12 15.5C12.55 15.5 13 15.95 13 16.5C13 17.05 12.55 17.5 12 17.5ZM20 17.5C19.45 17.5 19 17.05 19 16.5C19 15.95 19.45 15.5 20 15.5C20.55 15.5 21 15.95 21 16.5C21 17.05 20.55 17.5 20 17.5Z" fill="#C8E14B"/>
<path id="Vector_2" d="M14 9.5H15V3.5H7V8.5H2V21.5H3V9.5H8V4.5H14V9.5Z" fill="#C8E14B"/>
<path id="Vector_3" d="M5 11.5H7V13.5H5V11.5ZM10 5.5H12V7.5H10V5.5ZM5 15.5H7V17.5H5V15.5ZM5 19.5H7V21.5H5V19.5Z" fill="#C8E14B"/>
</g>
</svg>
