<svg width="24" height="25" viewBox="0 0 24 25" fill="none" xmlns="http://www.w3.org/2000/svg">
<g id="ic:baseline-construction">
<path id="Vector" d="M13.7831 15.6722L15.9041 13.5512L21.9001 19.5472L19.7791 21.6682L13.7831 15.6722ZM17.5001 10.5002C19.4301 10.5002 21.0001 8.93015 21.0001 7.00015C21.0001 6.42015 20.8401 5.88015 20.5901 5.40015L17.8901 8.10015L16.4001 6.61015L19.1001 3.91015C18.6201 3.66015 18.0801 3.50015 17.5001 3.50015C15.5701 3.50015 14.0001 5.07015 14.0001 7.00015C14.0001 7.41015 14.0801 7.80015 14.2101 8.16015L12.3601 10.0102L10.5801 8.23015L11.2901 7.52015L9.8801 6.11015L12.0001 3.99015C11.4376 3.42835 10.6751 3.11279 9.8801 3.11279C9.0851 3.11279 8.3226 3.42835 7.7601 3.99015L4.2201 7.53015L5.6301 8.94015H2.8101L2.1001 9.65015L5.6401 13.1902L6.3501 12.4802V9.65015L7.7601 11.0602L8.4701 10.3502L10.2501 12.1302L2.8401 19.5402L4.9601 21.6602L16.3401 10.2902C16.7001 10.4202 17.0901 10.5002 17.5001 10.5002Z" fill="#C8E14B"/>
</g>
</svg>
