<?xml version="1.0" encoding="UTF-8"?>
<svg id="Layer_1" data-name="Layer 1" xmlns="http://www.w3.org/2000/svg" viewBox="0 0 113.39 113.39">
  <defs>
    <style>
      .cls-1 {
        fill: #fff;
      }

      .cls-2 {
        fill: #c7d652;
      }

      .cls-3 {
        fill: #18475b;
      }

      .cls-4 {
        fill: #2d2f7d;
      }
    </style>
  </defs>
  <rect class="cls-1" x="4.89" y="4.89" width="103.6" height="103.6"/>
  <path class="cls-4" d="M108.49,108.49H4.89V4.89H108.49V108.49ZM113.38,0H0V113.38H113.38V0Z"/>
  <path class="cls-2" d="M82.62,82.22l-6.53,3.77v7.54l6.53,3.77,6.53-3.77v-7.54l-6.53-3.77Zm0,10.81c-1.81,0-3.27-1.47-3.27-3.27s1.46-3.27,3.27-3.27,3.27,1.47,3.27,3.27-1.46,3.27-3.27,3.27"/>
  <path class="cls-2" d="M58.58,40.7l2.32,4.63,3.76-1.19-.77-5.12c.49-.32,.94-.67,1.37-1.05l4.76,2.06,2.11-3.33-3.88-3.43c.17-.55,.29-1.11,.37-1.68l4.96-1.48-.52-3.91-5.18-.14c-.22-.53-.49-1.05-.8-1.53l2.85-4.33-2.91-2.66-4.06,3.23c-.51-.26-1.04-.48-1.59-.66l-.6-5.14-3.94-.17-1.03,5.08c-.57,.13-1.12,.3-1.65,.52l-3.76-3.55-3.13,2.4,2.47,4.55c-.35,.46-.65,.95-.92,1.46l-5.17-.3-.85,3.85,4.82,1.9c.01,.29,.04,.57,.08,.86,.04,.29,.09,.57,.15,.85l-4.16,3.09,1.83,3.5,4.91-1.64c.39,.42,.82,.81,1.27,1.16l-1.2,5.04,3.65,1.5,2.71-4.42c.56,.07,1.14,.09,1.72,.07m-1.09-15.6c2.79-.37,5.35,1.59,5.73,4.38,.37,2.79-1.59,5.36-4.38,5.73-2.79,.37-5.35-1.59-5.73-4.38-.37-2.79,1.59-5.35,4.38-5.73"/>
  <path class="cls-2" d="M56.77,78.09c.02-.27,.02-.54,.02-.81l4.39-2.05-1.01-3.55-4.81,.58c-.28-.46-.59-.9-.94-1.31l2.05-4.39-3.05-2.07-3.31,3.53c-.5-.17-1.03-.3-1.56-.39l-1.25-4.68-3.67,.38-.27,4.84c-.5,.2-.99,.43-1.45,.71l-3.97-2.78-2.57,2.65,2.91,3.88c-.26,.47-.48,.96-.66,1.47l-4.83,.42-.26,3.68,4.72,1.1c.11,.53,.25,1.05,.44,1.55l-3.43,3.42,2.16,2.99,4.32-2.19c.42,.34,.86,.64,1.33,.91l-.42,4.83,3.58,.9,1.91-4.46c.54,0,1.08-.07,1.6-.16l2.78,3.97,3.32-1.61-1.4-4.64c.4-.35,.78-.74,1.12-1.16l4.68,1.25,1.5-3.37-4.06-2.65c.04-.26,.07-.53,.09-.8"/>
  <path class="cls-3" d="M80.4,40.41l-17.02,9.88-.26,.15c-1.13,.66-1.6,2.03-1.17,3.22l7.35,20.29c.37,1.02,1.49,1.54,2.51,1.17,.97-.35,1.49-1.39,1.22-2.36l-5.71-20.81-1.43,3.37,18.18-7.53c2.11-.88,3.11-3.29,2.24-5.4-.87-2.11-3.29-3.11-5.4-2.24-.16,.07-.34,.16-.49,.24"/>
  <path class="cls-3" d="M78.92,48.97l-2.18-32.63c-.23-3.46,2.39-6.46,5.86-6.69,3.46-.23,6.46,2.39,6.69,5.85,.02,.27,.02,.57,0,.84l-2.17,32.63c-.15,2.26-2.11,3.98-4.37,3.82-2.08-.14-3.69-1.8-3.82-3.82"/>
  <path class="cls-1" d="M83.02,9.64c3.28,0,6.05,2.55,6.27,5.87,.02,.27,.02,.57,0,.84l-2.17,32.63c-.15,2.17-1.95,3.83-4.09,3.83-.09,0-.18,0-.28,0-2.08-.14-3.69-1.8-3.83-3.82l-2.18-32.63c-.23-3.46,2.39-6.46,5.86-6.69,.14,0,.28-.01,.42-.01m0-1h0c-.16,0-.33,0-.49,.02-4.01,.27-7.05,3.75-6.79,7.75l2.17,32.63c.17,2.54,2.21,4.59,4.76,4.76,.12,0,.23,.01,.34,.01,2.68,0,4.91-2.09,5.09-4.77l2.17-32.63c.02-.33,.02-.67,0-.97-.25-3.82-3.45-6.8-7.26-6.8"/>
  <path class="cls-3" d="M9.17,28.82V110.66H57.36L32.93,25.41c-1.32-5.53-6.43-9.52-12.32-9.23-6.65,.33-11.77,5.99-11.44,12.64h0Z"/>
  <path class="cls-1" d="M21.22,16.17c5.63,0,10.44,3.9,11.71,9.24l24.43,85.26H9.17V28.82h0c-.33-6.65,4.79-12.31,11.44-12.64,.2,0,.4-.01,.6-.01m0-1c-.22,0-.43,0-.65,.02-7.18,.36-12.73,6.48-12.39,13.66V111.67H58.69l-.37-1.28L33.9,25.15c-1.41-5.88-6.63-9.99-12.68-9.99"/>
  <path class="cls-3" d="M21.74,19.57l62.52-10.07c3.43-.55,6.66,1.78,7.21,5.21,.5,3.12-1.38,6.08-4.31,7L26.79,40.84c-5.77,1.83-11.93-1.37-13.76-7.14-1.83-5.77,1.37-11.93,7.14-13.76,.5-.16,1.06-.29,1.57-.37"/>
  <path class="cls-1" d="M85.28,9.42c3.04,0,5.71,2.2,6.21,5.29,.5,3.12-1.39,6.08-4.31,7L26.79,40.84c-1.1,.35-2.22,.51-3.31,.51-4.65,0-8.97-2.98-10.44-7.65-1.83-5.77,1.37-11.93,7.14-13.76,.5-.16,1.06-.29,1.57-.37l62.53-10.07c.34-.05,.67-.08,1.01-.08m0-1h0c-.39,0-.78,.03-1.17,.09L21.58,18.58c-.6,.1-1.2,.24-1.71,.4-6.29,1.99-9.78,8.73-7.79,15.01,1.58,4.99,6.16,8.35,11.4,8.35,1.22,0,2.44-.19,3.61-.56l60.38-19.12c3.42-1.08,5.57-4.57,5-8.11-.57-3.56-3.6-6.14-7.19-6.14"/>
  <path class="cls-1" d="M28.6,30.55c0,3.41-2.76,6.17-6.17,6.17s-6.17-2.76-6.17-6.17,2.76-6.17,6.17-6.17,6.17,2.76,6.17,6.17"/>
  <path class="cls-3" d="M85.61,40.41l17.02,9.88,.26,.15c1.14,.66,1.6,2.03,1.17,3.22l-7.35,20.29c-.37,1.02-1.49,1.54-2.51,1.17-.97-.35-1.49-1.39-1.22-2.36l5.71-20.81,1.43,3.37-18.18-7.53c-2.11-.88-3.11-3.29-2.24-5.4,.87-2.11,3.29-3.11,5.4-2.24,.16,.07,.34,.16,.49,.24"/>
  <path class="cls-3" d="M108.38,108.38H5V5H108.38V108.38ZM113.38,0H0V113.38H113.38V0Z"/>
</svg>