<?xml version="1.0" encoding="UTF-8"?>
<svg id="Layer_1" data-name="Layer 1" xmlns="http://www.w3.org/2000/svg" viewBox="0 0 113.39 113.39">
  <defs>
    <style>
      .cls-1 {
        fill: #fff;
      }

      .cls-2 {
        fill: #c7d652;
      }

      .cls-3 {
        fill: #18475b;
      }
    </style>
  </defs>
  <rect class="cls-1" x="-.33" y="0" width="113.39" height="113.39"/>
  <path class="cls-2" d="M109.26,108.39H4.09V5H109.26V108.39ZM114.35,0H-1V113.39H114.35V0Z"/>
  <path class="cls-3" d="M16.95,27.41c2.28,3.25,6.31,4.6,9.99,3.64l24.21,24,1.43-1.43-19.4-19.25c-.66-.65-.66-1.69,0-2.33,.33-.32,.76-.49,1.19-.49s.85,.16,1.18,.49l19.38,19.23,1.44-1.44-23.57-23.37c1.54-2.89,1.44-6.48-.57-9.35-1.94-2.78-5.16-4.15-8.35-3.92l4.19,5.99c.57,.82,.36,1.94-.48,2.51l-4.63,3.12c-.84,.56-1.98,.35-2.56-.46l-4.18-5.99c-1.37,2.83-1.21,6.28,.73,9.05"/>
  <path class="cls-1" d="M24.57,13.17c2.96,0,5.86,1.37,7.66,3.94,2.01,2.87,2.1,6.47,.57,9.35l23.57,23.37-1.44,1.44-19.38-19.23c-.33-.32-.76-.48-1.18-.48s-.86,.16-1.19,.48c-.66,.64-.66,1.68,0,2.33l19.4,19.25-1.43,1.43L26.94,31.06c-.78,.2-1.56,.3-2.35,.3-2.95,0-5.84-1.38-7.64-3.94-1.94-2.76-2.1-6.22-.73-9.05l4.19,5.99c.36,.5,.94,.78,1.52,.78,.36,0,.72-.1,1.04-.32l4.63-3.12c.84-.57,1.05-1.68,.48-2.51l-4.19-5.99c.23-.02,.46-.03,.69-.03m0-1.02h0c-.26,0-.51,0-.77,.03l-1.8,.13,1.03,1.48,4.19,5.99c.12,.17,.16,.37,.13,.56-.04,.21-.16,.39-.34,.51l-4.62,3.11c-.14,.09-.3,.14-.47,.14-.28,0-.53-.13-.69-.35l-4.18-5.98-1-1.43-.76,1.57c-1.58,3.25-1.26,7.12,.81,10.08,1.92,2.74,5.09,4.38,8.47,4.38,.68,0,1.36-.07,2.03-.2l23.81,23.6,.72,.72,.72-.72,1.43-1.43,.73-.73-.73-.72-19.4-19.25c-.12-.12-.19-.28-.19-.44s.07-.32,.19-.44c.16-.16,.35-.19,.48-.19,.17,0,.34,.07,.46,.19l19.37,19.23,.72,.72,.72-.72,1.44-1.44,.73-.73-.73-.72-23.05-22.85c1.4-3.18,1.05-6.84-.97-9.73-1.92-2.74-5.09-4.38-8.49-4.38"/>
  <polygon class="cls-2" points="13.36 97.85 16.22 93.35 18.76 92.27 35.03 75.99 37.85 78.81 21.56 95.09 20.48 97.61 15.98 100.47 13.36 97.85"/>
  <path class="cls-1" d="M35.03,75.99l2.82,2.82-16.29,16.28-1.08,2.52-4.5,2.86-2.62-2.62,2.86-4.5,2.53-1.08,16.28-16.28Zm0-.83l-.42,.42-16.2,16.2-2.43,1.04-.17,.07-.1,.15-2.86,4.5-.25,.4,.33,.33,2.62,2.62,.33,.33,.4-.25,4.5-2.86,.15-.1,.07-.17,1.04-2.42,16.21-16.2,.41-.42-.41-.41-2.82-2.82-.42-.42Z"/>
  <path class="cls-3" d="M35.25,71.73l15.05-16.41,1.86-2.02c.58-.58,1.24-1.01,1.96-1.3,.55-.23,1.1-.36,1.67-.4,.18-.02,.37-.03,.57-.03,1.52-.01,3.04,.57,4.19,1.73,2.33,2.33,2.33,6.08,0,8.4l-2.01,1.85-16.41,15.06-6.87-6.86Z"/>
  <path class="cls-1" d="M42.1,79.28l-7.55-7.53,17.23-18.79c.64-.64,1.36-1.12,2.14-1.43,.57-.24,1.19-.39,1.82-.44,.2-.02,.42-.03,.65-.03,1.7,0,3.29,.66,4.5,1.87,1.22,1.22,1.89,2.84,1.89,4.56,0,1.72-.67,3.33-1.89,4.54l-18.79,17.24Zm-6.16-7.56l6.19,6.18,18.07-16.58c1.01-1.01,1.58-2.37,1.58-3.82,0-1.45-.57-2.82-1.6-3.85-1.03-1.03-2.38-1.6-3.84-1.58-.18,0-.35,0-.51,.03-.54,.04-1.05,.17-1.53,.37-.66,.26-1.26,.66-1.8,1.19l-1.84,2-14.72,16.06Z"/>
  <path class="cls-3" d="M32.76,71.03c.5-.5,1.3-.5,1.8,0l8.25,8.25c.5,.5,.5,1.3,0,1.8l-.44,.44c-.5,.49-1.3,.49-1.8,0l-8.25-8.25c-.5-.5-.5-1.3,0-1.8l.44-.44Z"/>
  <path class="cls-3" d="M41.47,82.4c-.45,0-.91-.17-1.25-.52l-8.26-8.25c-.69-.69-.69-1.82,0-2.51l.44-.44c.69-.69,1.82-.69,2.51,0l8.25,8.25c.33,.33,.52,.78,.52,1.25,0,.47-.18,.92-.52,1.25l-.44,.44c-.34,.35-.8,.52-1.25,.52m-7.81-11.24c-.2,0-.4,.08-.55,.23h0s-.44,.44-.44,.44c-.3,.3-.3,.79,0,1.09l8.25,8.25c.3,.3,.79,.3,1.09,0l.44-.44c.15-.15,.23-.34,.23-.55s-.08-.4-.23-.54l-8.25-8.25c-.15-.15-.35-.23-.55-.23"/>
  <path class="cls-2" d="M79.29,75.86l-5.23,3.02v6.03l5.23,3.02,5.23-3.02v-6.03l-5.23-3.02Zm0,8.65c-1.45,0-2.62-1.17-2.62-2.62s1.17-2.62,2.62-2.62,2.62,1.17,2.62,2.62-1.17,2.62-2.62,2.62"/>
  <path class="cls-1" d="M79.29,75.86l5.23,3.01v6.03l-5.23,3.02-5.23-3.02v-6.03l5.23-3.01m0,8.65c1.45,0,2.62-1.17,2.62-2.62s-1.17-2.62-2.62-2.62-2.62,1.17-2.62,2.62,1.17,2.62,2.62,2.62m0-9.81l-.5,.29-5.22,3.01-.5,.29v7.19l.5,.29,5.22,3.02,.5,.29,.5-.29,5.22-3.02,.5-.29v-7.19l-.5-.29-5.22-3.01-.5-.29Zm0,8.81c-.89,0-1.62-.73-1.62-1.62s.73-1.62,1.62-1.62,1.62,.73,1.62,1.62-.73,1.62-1.62,1.62"/>
  <path class="cls-3" d="M62.57,38.13s.58-12.49,.75-25.35c.17-12.85-14.09-12.85-13.92,0,.17,12.86,.75,25.35,.75,25.35,0,0-41.1,22.25-41.61,22.84-1.02,1.18-1.37,11.86-.64,12.37l33.35-12.15c2.71,0,9.06,0,9.06,0,0,0,.59,18.5,1.43,23.75,.32,1.95,.9,4.8,1.57,7.61-4.14,2.66-10.41,6.72-11.53,7.61-1.69,1.35-3.05,2.42-3.1,3.33-.06,.9-.62,2.76,.23,2.59,.7-.14,17.26-4.23,17.45-4.23s16.76,4.09,17.46,4.23c.84,.17,.28-1.69,.23-2.59-.06-.9-1.41-1.97-3.1-3.33-1.12-.89-7.39-4.96-11.53-7.61,.66-2.8,1.25-5.65,1.57-7.61,.84-5.24,1.43-23.75,1.43-23.75,0,0,6.35,0,9.06,0l33.35,12.15c.74-.51,.38-11.19-.64-12.37-.51-.59-41.61-22.84-41.61-22.84"/>
  <path class="cls-1" d="M56.36,3.14c3.52,0,7.05,3.21,6.96,9.64-.17,12.86-.75,25.35-.75,25.35,0,0,41.1,22.25,41.61,22.84,1.01,1.18,1.37,11.86,.64,12.37l-33.35-12.15c-.9,0-2.21,0-3.55,0-2.68,0-5.51,0-5.51,0,0,0-.58,18.5-1.43,23.75-.32,1.95-.9,4.8-1.57,7.61,4.14,2.66,10.41,6.72,11.53,7.61,1.69,1.35,3.05,2.42,3.1,3.33,.05,.86,.57,2.6-.12,2.6-.03,0-.06,0-.1-.01-.7-.14-17.26-4.23-17.46-4.23s-16.76,4.09-17.45,4.23c-.04,0-.07,0-.1,0-.7,0-.18-1.74-.13-2.6,.06-.9,1.41-1.97,3.1-3.33,1.12-.9,7.39-4.96,11.53-7.61-.67-2.8-1.25-5.65-1.57-7.61-.85-5.24-1.43-23.75-1.43-23.75h-9.06L7.9,73.34c-.73-.51-.38-11.19,.64-12.37,.51-.59,41.61-22.84,41.61-22.84,0,0-.58-12.49-.75-25.35-.08-6.43,3.44-9.64,6.96-9.64m0-1.02c-1.89,0-3.7,.78-5.1,2.2-1.35,1.37-2.94,3.95-2.88,8.48,.15,11.08,.61,22.02,.73,24.74C8.39,59.57,7.92,60.12,7.76,60.3c-1.28,1.49-1.43,10.02-1.14,12.29,.09,.73,.25,1.28,.7,1.59l.44,.3,.5-.18,33.18-12.09h7.88c.14,3.95,.67,18.28,1.41,22.89,.29,1.81,.81,4.37,1.42,6.97-6.44,4.15-10.15,6.6-11.01,7.29l-.06,.05c-1.94,1.55-3.34,2.67-3.42,4.01-.01,.17-.05,.43-.09,.7-.16,.98-.3,1.91,.23,2.53,.25,.3,.61,.46,1.01,.46,.1,0,.2,0,.3-.03,.32-.06,3.09-.74,7.59-1.84,3.89-.95,8.67-2.12,9.67-2.35,.99,.22,5.7,1.38,9.55,2.32,4.57,1.12,7.39,1.81,7.71,1.87,.1,.02,.2,.03,.3,.03,.4,0,.76-.16,1.01-.46,.54-.63,.39-1.55,.23-2.53-.04-.27-.08-.53-.09-.7-.08-1.34-1.48-2.46-3.42-4.01l-.06-.05c-1.06-.85-6.44-4.34-11.01-7.28,.6-2.6,1.13-5.17,1.42-6.97,.74-4.61,1.27-18.94,1.41-22.89h4.51s3.37,0,3.37,0l33.18,12.09,.5,.18,.44-.3c.45-.31,.6-.86,.7-1.59,.29-2.26,.14-10.8-1.14-12.29-.16-.18-.63-.73-41.34-22.77,.12-2.72,.58-13.66,.73-24.74,.06-4.53-1.53-7.11-2.88-8.48-1.4-1.42-3.21-2.2-5.1-2.2"/>
  <path class="cls-3" d="M100.41,55.13c0,14.24-11.54,25.78-25.78,25.78s-25.79-11.55-25.79-25.78,11.55-25.78,25.79-25.78,25.78,11.54,25.78,25.78"/>
  <path class="cls-1" d="M74.63,81.41c-14.49,0-26.29-11.79-26.29-26.28s11.79-26.29,26.29-26.29,26.28,11.79,26.28,26.29-11.79,26.28-26.28,26.28m0-51.57c-13.94,0-25.29,11.34-25.29,25.28s11.34,25.28,25.29,25.28,25.28-11.34,25.28-25.28-11.34-25.28-25.28-25.28"/>
  <path class="cls-3" d="M74.63,74.24c-10.54,0-19.11-8.57-19.11-19.11s8.57-19.11,19.11-19.11,19.11,8.57,19.11,19.11-8.57,19.11-19.11,19.11"/>
  <path class="cls-1" d="M74.63,74.69c-10.78,0-19.56-8.77-19.56-19.56s8.77-19.56,19.56-19.56,19.56,8.77,19.56,19.56-8.77,19.56-19.56,19.56m0-38.22c-10.29,0-18.66,8.37-18.66,18.66s8.37,18.66,18.66,18.66,18.66-8.37,18.66-18.66-8.37-18.66-18.66-18.66"/>
  <path class="cls-1" d="M74.63,33.81c-11.75,0-21.32,9.56-21.32,21.32s9.56,21.32,21.32,21.32,21.32-9.56,21.32-21.32-9.56-21.32-21.32-21.32m16.91,12.82c-3.07,1.51-8.16,3.35-11.44,.96-3.29-2.39-3.1-7.8-2.62-11.18,6.16,.94,11.34,4.85,14.05,10.22m-19.77-10.22c.49,3.38,.67,8.8-2.62,11.18-3.28,2.38-8.37,.54-11.44-.96,2.71-5.37,7.9-9.28,14.05-10.22m-16.08,18.72c0-1.04,.09-2.07,.25-3.07,3.37,.58,8.57,2.08,9.82,5.94,1.25,3.86-2.07,8.13-4.45,10.58-3.47-3.44-5.63-8.2-5.63-13.46m10.25,16.82c1.6-3.02,4.63-7.5,8.69-7.5s7.09,4.48,8.69,7.5c-2.6,1.35-5.56,2.12-8.69,2.12s-6.08-.77-8.69-2.12m22-3.36c-2.38-2.45-5.7-6.72-4.45-10.58,1.25-3.86,6.46-5.36,9.82-5.94,.16,1,.25,2.02,.25,3.07,0,5.26-2.15,10.02-5.63,13.46"/>
  <path class="cls-3" d="M74.63,33.81c11.75,0,21.32,9.56,21.32,21.32s-9.56,21.32-21.32,21.32-21.32-9.56-21.32-21.32,9.56-21.32,21.32-21.32m9.39,14.92c2.66,0,5.52-1.12,7.52-2.11-2.71-5.37-7.9-9.28-14.06-10.22-.49,3.38-.67,8.8,2.62,11.18,1.14,.83,2.5,1.15,3.91,1.15m-18.78,0c1.42,0,2.77-.32,3.91-1.15,3.28-2.39,3.11-7.8,2.62-11.18-6.16,.94-11.35,4.85-14.06,10.22,2,.98,4.87,2.11,7.52,2.11m22.7,19.85c3.47-3.43,5.63-8.2,5.63-13.46,0-1.04-.09-2.07-.25-3.07-3.37,.58-8.57,2.08-9.82,5.94-1.25,3.86,2.07,8.13,4.45,10.58m-26.62,0c2.38-2.45,5.7-6.72,4.45-10.58-1.25-3.86-6.46-5.36-9.82-5.94-.16,1-.25,2.02-.25,3.07,0,5.26,2.16,10.02,5.63,13.46m13.31,5.48c3.13,0,6.08-.77,8.69-2.12-1.59-3.02-4.63-7.5-8.69-7.5s-7.09,4.48-8.69,7.5c2.6,1.35,5.56,2.12,8.69,2.12m0-41.25c-12.31,0-22.32,10.01-22.32,22.32s10.01,22.31,22.32,22.31,22.32-10.01,22.32-22.31-10.01-22.32-22.32-22.32m-15.53,13.36c2.55-4.41,6.86-7.54,11.81-8.59,.31,2.99,.24,7.32-2.34,9.2-.87,.63-1.99,.96-3.33,.96-2.09,0-4.36-.78-6.14-1.57m24.92,1.56c-1.33,0-2.45-.32-3.32-.96-2.59-1.88-2.66-6.22-2.34-9.2,4.95,1.05,9.26,4.18,11.81,8.59-1.78,.79-4.05,1.57-6.14,1.57m-22.71,19.39c-2.99-3.3-4.62-7.53-4.62-12,0-.63,.03-1.25,.1-1.88,2.94,.62,7.04,2.03,8.02,5.07,.99,3.04-1.5,6.58-3.51,8.81m26.64,0c-2-2.23-4.49-5.77-3.51-8.81,.99-3.04,5.09-4.45,8.02-5.07,.07,.63,.1,1.26,.1,1.88,0,4.48-1.63,8.7-4.62,12m-20.62,4.38c1.5-2.6,4.1-6.06,7.3-6.06s5.8,3.46,7.3,6.06c-2.3,1.04-4.75,1.56-7.3,1.56s-5-.52-7.3-1.56"/>
  <path class="cls-3" d="M80.67,55.13c0,1.67-.68,3.18-1.77,4.27-1.09,1.09-2.6,1.77-4.27,1.77s-3.18-.68-4.27-1.77c-1.09-1.09-1.77-2.6-1.77-4.27s.68-3.18,1.77-4.27c1.09-1.09,2.6-1.77,4.27-1.77s3.18,.68,4.27,1.77c1.09,1.09,1.77,2.6,1.77,4.27"/>
  <path class="cls-1" d="M78.13,55.13c0,1.93-1.57,3.5-3.5,3.5s-3.51-1.57-3.51-3.5,1.57-3.5,3.51-3.5,3.5,1.57,3.5,3.5"/>
  <path class="cls-2" d="M71.56,50.47c0,.88-.71,1.59-1.59,1.59s-1.59-.71-1.59-1.59,.71-1.59,1.59-1.59,1.59,.71,1.59,1.59"/>
  <path class="cls-1" d="M69.97,48.88c.88,0,1.59,.71,1.59,1.59s-.71,1.59-1.59,1.59-1.59-.71-1.59-1.59,.71-1.59,1.59-1.59m0-.59c-1.2,0-2.18,.98-2.18,2.18s.98,2.18,2.18,2.18,2.18-.98,2.18-2.18-.98-2.18-2.18-2.18"/>
  <path class="cls-2" d="M80.88,50.47c0,.88-.71,1.59-1.59,1.59s-1.59-.71-1.59-1.59,.71-1.59,1.59-1.59,1.59,.71,1.59,1.59"/>
  <path class="cls-1" d="M79.29,48.88c.88,0,1.59,.71,1.59,1.59s-.71,1.59-1.59,1.59-1.59-.71-1.59-1.59,.71-1.59,1.59-1.59m0-.59c-1.2,0-2.18,.98-2.18,2.18s.98,2.18,2.18,2.18,2.18-.98,2.18-2.18-.98-2.18-2.18-2.18"/>
  <path class="cls-2" d="M80.88,59.79c0,.88-.71,1.59-1.59,1.59s-1.59-.71-1.59-1.59,.71-1.59,1.59-1.59,1.59,.71,1.59,1.59"/>
  <path class="cls-1" d="M79.29,58.2c.88,0,1.59,.71,1.59,1.59s-.71,1.59-1.59,1.59-1.59-.71-1.59-1.59,.71-1.59,1.59-1.59m0-.59c-1.2,0-2.18,.98-2.18,2.18s.98,2.18,2.18,2.18,2.18-.98,2.18-2.18-.98-2.18-2.18-2.18"/>
  <path class="cls-2" d="M71.56,59.79c0,.88-.71,1.59-1.59,1.59s-1.59-.71-1.59-1.59,.71-1.59,1.59-1.59,1.59,.71,1.59,1.59"/>
  <path class="cls-1" d="M69.97,58.2c.88,0,1.59,.71,1.59,1.59s-.71,1.59-1.59,1.59-1.59-.71-1.59-1.59,.71-1.59,1.59-1.59m0-.59c-1.2,0-2.18,.98-2.18,2.18s.98,2.18,2.18,2.18,2.18-.98,2.18-2.18-.98-2.18-2.18-2.18"/>
</svg>