<svg width="32" height="32" viewBox="0 0 32 32" fill="none" xmlns="http://www.w3.org/2000/svg">
<g id="ri:global-fill">
<path id="Vector" d="M2.73376 17.3333H10.0364C10.2646 21.5558 11.6105 25.6418 13.9364 29.1733C11.0228 28.716 8.3428 27.3059 6.31563 25.1637C4.28846 23.0214 3.02971 20.2678 2.73376 17.3333ZM2.73242 14.6667C3.02803 11.7322 4.2878 8.97834 6.31473 6.83586C8.34166 4.69337 11.0215 3.28301 13.9351 2.82532C11.6092 6.3568 10.2632 10.4428 10.0351 14.6653L2.73242 14.6667ZM29.2658 14.6667H21.9631C21.7352 10.4437 20.3892 6.35718 18.0631 2.82532C20.9768 3.28268 23.6567 4.69273 25.6839 6.83497C27.711 8.97721 28.9711 11.7309 29.2671 14.6653M29.2671 17.332C28.9712 20.2662 27.7113 23.0197 25.6844 25.162C23.6575 27.3042 20.9778 28.7144 18.0644 29.172C20.3901 25.6409 21.736 21.5553 21.9644 17.3333L29.2671 17.332ZM12.7071 17.3333H19.2938C19.0748 20.9327 17.9413 24.4168 16.0004 27.456C14.0596 24.4168 12.9261 20.9327 12.7071 17.3333ZM12.7071 14.6667C12.9261 11.0673 14.0596 7.5832 16.0004 4.54398C17.9413 7.5832 19.0748 11.0673 19.2938 14.6667H12.7071Z" fill="white"/>
</g>
</svg>
