<svg width="20" height="20" viewBox="0 0 20 20" fill="none" xmlns="http://www.w3.org/2000/svg">
<g id="ri:map-pin-fill">
<path id="Vector" d="M15.3033 14.4712L10 19.7746L4.69667 14.4712C3.64779 13.4223 2.93349 12.086 2.64411 10.6311C2.35473 9.17626 2.50326 7.66826 3.07092 6.29782C3.63858 4.92738 4.59987 3.75605 5.83324 2.93194C7.0666 2.10783 8.51665 1.66797 10 1.66797C11.4834 1.66797 12.9334 2.10783 14.1668 2.93194C15.4001 3.75605 16.3614 4.92738 16.9291 6.29782C17.4968 7.66826 17.6453 9.17626 17.3559 10.6311C17.0665 12.086 16.3522 13.4223 15.3033 14.4712ZM10 12.5012C10.8841 12.5012 11.7319 12.15 12.357 11.5249C12.9821 10.8998 13.3333 10.052 13.3333 9.1679C13.3333 8.28385 12.9821 7.436 12.357 6.81088C11.7319 6.18576 10.8841 5.83457 10 5.83457C9.11595 5.83457 8.2681 6.18576 7.64298 6.81088C7.01786 7.436 6.66667 8.28385 6.66667 9.1679C6.66667 10.052 7.01786 10.8998 7.64298 11.5249C8.2681 12.15 9.11595 12.5012 10 12.5012ZM10 10.8346C9.55798 10.8346 9.13405 10.659 8.82149 10.3464C8.50893 10.0339 8.33334 9.60993 8.33334 9.1679C8.33334 8.72588 8.50893 8.30195 8.82149 7.98939C9.13405 7.67683 9.55798 7.50124 10 7.50124C10.442 7.50124 10.866 7.67683 11.1785 7.98939C11.4911 8.30195 11.6667 8.72588 11.6667 9.1679C11.6667 9.60993 11.4911 10.0339 11.1785 10.3464C10.866 10.659 10.442 10.8346 10 10.8346Z" fill="#C8E14B"/>
</g>
</svg>
