<svg width="28" height="28" viewBox="0 0 28 28" fill="none" xmlns="http://www.w3.org/2000/svg">
<g id="uil:arrow-right">
<path id="Vector" d="M20.9067 13.5566C20.8511 13.4133 20.7679 13.2825 20.6617 13.1716L14.8283 7.33822C14.7196 7.22945 14.5904 7.14316 14.4483 7.08429C14.3062 7.02542 14.1538 6.99512 14 6.99512C13.6893 6.99512 13.3914 7.11854 13.1717 7.33822C13.0629 7.447 12.9766 7.57614 12.9177 7.71827C12.8589 7.86039 12.8286 8.01272 12.8286 8.16656C12.8286 8.47724 12.952 8.7752 13.1717 8.99489L17.0217 12.8332H8.16667C7.85725 12.8332 7.5605 12.9561 7.34171 13.1749C7.12292 13.3937 7 13.6905 7 13.9999C7 14.3093 7.12292 14.6061 7.34171 14.8248C7.5605 15.0436 7.85725 15.1666 8.16667 15.1666H17.0217L13.1717 19.0049C13.0623 19.1133 12.9755 19.2424 12.9163 19.3846C12.8571 19.5267 12.8266 19.6792 12.8266 19.8332C12.8266 19.9872 12.8571 20.1397 12.9163 20.2819C12.9755 20.4241 13.0623 20.5531 13.1717 20.6616C13.2801 20.7709 13.4092 20.8577 13.5513 20.9169C13.6935 20.9762 13.846 21.0067 14 21.0067C14.154 21.0067 14.3065 20.9762 14.4487 20.9169C14.5908 20.8577 14.7199 20.7709 14.8283 20.6616L20.6617 14.8282C20.7679 14.7173 20.8511 14.5864 20.9067 14.4432C21.0234 14.1592 21.0234 13.8406 20.9067 13.5566Z" fill="#101E24"/>
</g>
</svg>
