<svg width="328" height="202" viewBox="0 0 328 202" fill="none" xmlns="http://www.w3.org/2000/svg">
<path d="M59.5094 113.601C49.0875 113.601 45.3984 121.866 45.3984 128.946C45.3984 136.025 49.0942 144.29 59.5094 144.29C69.9314 144.29 73.6272 136.025 73.6272 128.946C73.6272 121.866 69.9314 113.601 59.5094 113.601ZM59.5094 141.374C53.4081 141.374 49.3092 136.38 49.3092 128.946C49.3092 121.511 53.4081 116.517 59.5094 116.517C65.6108 116.517 69.7097 121.511 69.7097 128.946C69.7097 136.38 65.6108 141.374 59.5094 141.374Z" fill="#101E24"/>
<path d="M80.3937 118.991V114.184H77.0742L77.0809 143.486H80.6356V129.006L80.6288 128.818C80.6356 123.422 82.1676 116.966 89.4717 116.966L90.5805 117.02L90.5939 116.906L90.7686 113.487H90.352C85.4199 113.487 82.0803 115.344 80.3937 118.991Z" fill="#101E24"/>
<path d="M152.646 119.892C150.193 119.088 148.406 118.619 145.476 118.619C143.326 118.619 140.759 119.37 140.759 121.917C140.759 126.663 154.675 123.653 154.675 134.413C154.675 141.358 148.285 144.14 141.774 144.14C138.723 144.14 135.619 143.623 132.689 142.866L133.166 136.497C135.673 137.711 138.307 138.468 141.048 138.468C143.084 138.468 146.31 137.711 146.31 134.821C146.31 128.976 132.387 132.971 132.387 122.205C132.387 115.783 138.179 112.947 144.455 112.947C148.218 112.947 150.671 113.531 153.177 114.047L152.646 119.892Z" fill="#101E24"/>
<path d="M197.924 113.679H189.914V143.483H197.924V113.679Z" fill="#101E24"/>
<path d="M247.986 119.892C245.54 119.088 243.746 118.619 240.816 118.619C238.659 118.619 236.092 119.37 236.092 121.917C236.092 126.663 250.009 123.653 250.009 134.413C250.009 141.358 243.618 144.14 237.107 144.14C234.056 144.14 230.952 143.623 228.022 142.866L228.499 136.497C231.006 137.711 233.64 138.468 236.388 138.468C238.417 138.468 241.649 137.711 241.649 134.821C241.649 128.976 227.727 132.971 227.727 122.205C227.727 115.783 233.519 112.947 239.795 112.947C243.558 112.947 246.004 113.531 248.517 114.047L247.986 119.892Z" fill="#101E24"/>
<path d="M174.28 127.038L185.623 113.677H176.182L166.627 125.603H166.506V97.6421L158.496 100.082V143.482H166.506V129.015H166.627L176.901 143.482H187.061L174.28 127.038Z" fill="#101E24"/>
<path d="M127.594 99.2799L124.181 100.319V118.439C123.441 117.199 120.666 113.411 114.457 113.485C104.176 113.612 102.02 121.898 102.02 128.836C102.02 138.302 106.79 144.181 114.464 144.181C119.033 144.181 122.124 142.498 124.187 138.939V143.484H127.742V99.233L127.594 99.2799ZM115.055 141.258C106.817 141.258 105.93 132.564 105.93 128.83C105.93 125.089 106.824 116.401 115.055 116.401C121.358 116.401 124.181 122.642 124.181 128.83C124.181 135.017 121.358 141.258 115.055 141.258Z" fill="#101E24"/>
<path d="M97.9018 99.2799L94.4883 100.319V143.484H98.0429V99.233L97.9018 99.2799Z" fill="#101E24"/>
<path d="M203.098 100.082V143.482H211.101V97.6421L203.098 100.082Z" fill="#101E24"/>
<path d="M215.718 100.082H215.711V143.482H223.721V97.6421L215.718 100.082Z" fill="#101E24"/>
<path d="M196.077 104.203C196.077 101.742 194.075 99.7514 191.615 99.7514C189.156 99.7514 187.16 101.742 187.16 104.203C187.16 106.656 189.156 108.654 191.615 108.654C194.075 108.654 196.077 106.663 196.077 104.203Z" fill="#101E24"/>
<path d="M3.81669 114.183H0L0.0470365 114.331C0.228464 114.88 9.61564 143.156 9.703 143.411L9.72988 143.492H14.1177C14.1177 143.492 22.3693 118.125 22.4231 117.971H22.6918C22.7456 118.125 30.9972 143.492 30.9972 143.492H35.3917L45.3568 114.19H41.8156C41.8156 114.19 33.4431 139.557 33.3893 139.711H33.1205C33.0735 139.557 25.0571 114.19 25.0571 114.19H20.6625C20.6625 114.19 12.2295 139.557 12.1758 139.711H11.907C11.86 139.557 3.90405 114.19 3.90405 114.19H3.81669V114.183Z" fill="#101E24"/>
<path d="M180.258 50.5102C180.258 50.5102 194.315 48.0299 198.918 36.875C198.918 36.875 280.769 53.6006 232.448 97.161C232.448 97.161 250.376 80.3147 240.364 66.8471C240.364 66.8471 245.955 83.5727 224.062 94.8416C224.069 94.8349 271.543 61.1959 180.258 50.5102Z" fill="#101E24"/>
<path d="M225.125 44.4143C230.85 47.2366 234.855 50.0119 237.2 51.8353C238.228 22.6006 217.217 6.2571 217.217 6.2571C216.605 8.13413 214.771 10.219 212.15 11.1776C209.529 12.1362 207.957 15.2735 207.957 15.2735C218.224 23.7939 223.157 34.198 225.125 44.4143Z" fill="#101E24"/>
<path d="M196.75 38.9483C197.993 37.0981 198.336 35.8311 198.336 35.8311C203.745 36.7897 208.603 38.0567 212.924 39.4712C203.953 13.957 187.275 0 187.275 0C186.812 1.33403 181.92 3.77416 178.601 5.22886C175.281 6.68355 176.155 12.8375 176.155 12.8375C185.28 20.3523 191.919 29.5564 196.75 38.9483Z" fill="#101E24"/>
<path d="M231.066 67.2017C229.938 79.7845 222.445 93.1516 222.445 93.1516C227.734 85.1273 231.349 77.5857 233.687 70.5669C233.035 69.3804 232.148 68.2609 231.066 67.2017Z" fill="#101E24"/>
<path d="M230.079 66.3145C228.843 65.2553 227.418 64.2632 225.839 63.3381C224.522 76.8795 220 87.0623 220 87.0623C222.621 84.0993 224.63 79.3062 224.63 79.3062C224.717 82.7049 221.922 89.4153 221.922 89.4153C226.726 81.7061 229.024 72.3411 230.079 66.3145Z" fill="#101E24"/>
<path d="M201.68 92.6796C198.77 91.1177 194.55 89.4485 185.875 82.7515C192.44 87.6787 203.4 90.8294 203.4 90.8294C179.196 78.5751 173.921 67.4672 173.921 67.4672C171.59 67.3934 170.185 68.8682 169.265 69.371C168.344 69.8738 165.824 69.8336 165.824 69.8336C175.05 84.6688 201.68 92.6796 201.68 92.6796Z" fill="#101E24"/>
<path d="M190.85 52.7412C182.807 51.4138 176.907 50.8976 176.907 50.8976C180.119 50.0932 182.854 49.1145 185.193 48.0486C173.877 39.8232 162.602 37.8054 162.602 37.8054C162.602 37.8054 160.505 38.5026 160.216 41.9885C159.927 45.4744 157.246 45.9369 157.246 45.9369C199.512 57.2058 205.855 91.9375 205.855 91.9375C202.972 76.2576 196.858 66.2356 196.858 66.2356C203.322 72.8588 207.77 89.6716 207.77 89.6716C206.346 72.289 199.122 60.571 190.85 52.7412Z" fill="#101E24"/>
<path d="M203.496 55.2557C209.577 73.9857 209.698 89.8399 209.698 89.8399C214.2 81.1318 213.018 61.0946 213.018 61.0946C217.211 69.2864 216.687 91.5828 216.687 91.5828C218.837 79.8648 218.917 69.1457 217.688 59.4991C213.219 57.7964 208.307 56.3953 203.496 55.2557Z" fill="#101E24"/>
<path d="M15.932 150.611H20.2728L35.7008 189.385H31.6893L27.5097 178.994H7.90888L3.72934 189.385H0L15.932 150.611ZM17.8269 154.278L9.3603 175.669H26.233L17.8269 154.278Z" fill="#101E24"/>
<path d="M36.418 185.274C38.5347 186.327 41.0948 187.051 43.8229 187.051C47.1625 187.051 50.1124 185.214 50.1124 181.996C50.1124 175.272 36.4718 176.331 36.4718 168.106C36.4718 162.495 41.041 160.383 45.7178 160.383C47.223 160.383 50.2266 160.719 52.733 161.664L52.397 164.721C50.5626 163.889 48.0562 163.387 46.1076 163.387C42.4857 163.387 39.9794 164.499 39.9794 168.106C39.9794 173.382 53.956 172.718 53.956 181.996C53.956 187.996 48.3317 190.054 44.0447 190.054C41.3165 190.054 38.5884 189.719 36.082 188.72L36.418 185.274Z" fill="#101E24"/>
<path d="M61.5467 153.501H58.0391V148.835H61.5467V153.501ZM58.0391 161.056H61.5467V189.386H58.0391V161.056Z" fill="#101E24"/>
<path d="M84.4882 184.832H84.374C82.8151 188.224 78.864 190.054 75.3497 190.054C67.2728 190.054 65.9961 184.611 65.9961 182.057C65.9961 172.558 76.1291 172.115 83.4803 172.115H84.1455V170.674C84.1455 165.841 82.4186 163.394 77.6881 163.394C74.7382 163.394 71.9496 164.057 69.3357 165.727V162.335C71.5061 161.282 75.1817 160.39 77.6881 160.39C84.7033 160.39 87.6531 163.555 87.6531 170.949V183.451C87.6531 185.73 87.6531 187.453 87.9286 189.397H84.4748V184.832H84.4882ZM84.159 175.105H83.1578C77.09 175.105 69.8464 175.715 69.8464 181.936C69.8464 185.657 72.5208 187.044 75.7461 187.044C83.9843 187.044 84.1523 179.878 84.1523 176.821V175.105H84.159Z" fill="#101E24"/>
<path d="M105.99 153.921H94.5195V150.589H121.304V153.921H109.833V189.363H105.99V153.921Z" fill="#101E24"/>
<path d="M134.09 184.811H133.976C132.417 188.203 128.466 190.033 124.951 190.033C116.874 190.033 115.598 184.589 115.598 182.035C115.598 172.536 125.731 172.094 133.082 172.094H133.747V170.653C133.747 165.819 132.02 163.372 127.29 163.372C124.34 163.372 121.551 164.036 118.937 165.705V162.313C121.108 161.261 124.783 160.369 127.29 160.369C134.305 160.369 137.255 163.533 137.255 170.927V183.43C137.255 185.709 137.255 187.432 137.53 189.376H134.076V184.811H134.09ZM133.761 175.084H132.759C126.692 175.084 119.448 175.694 119.448 181.915C119.448 185.635 122.122 187.023 125.348 187.023C133.586 187.023 133.754 179.857 133.754 176.8V175.084H133.761Z" fill="#101E24"/>
<path d="M146.918 153.479H143.41V148.814H146.918V153.479ZM143.41 161.035H146.918V189.364H143.41V161.035Z" fill="#101E24"/>
<path d="M153.211 161.033H156.719L156.497 166.201H156.611C157.505 164.646 159.675 160.369 165.689 160.369C174.041 160.369 177.381 166.59 177.381 175.204C177.381 183.591 173.484 190.04 165.689 190.04C161.234 190.04 158.56 188.209 156.833 184.543H156.719V201.04H153.211V161.033ZM165.125 163.366C158.889 163.366 156.719 170.029 156.719 175.198C156.719 180.366 158.889 187.03 165.125 187.03C171.804 187.03 173.531 180.695 173.531 175.198C173.538 169.701 171.811 163.366 165.125 163.366Z" fill="#101E24"/>
<path d="M201.332 188.477C198.879 189.476 195.707 190.032 193.094 190.032C183.679 190.032 180.172 183.697 180.172 175.197C180.172 166.529 184.963 160.362 192.146 160.362C200.162 160.362 203.448 166.804 203.448 174.42V176.196H184.015C184.015 182.196 187.248 187.029 193.369 187.029C195.929 187.029 199.658 185.977 201.332 184.918V188.477ZM199.605 173.2C199.605 168.252 197.602 163.365 192.368 163.365C187.187 163.365 184.015 168.534 184.015 173.2H199.605Z" fill="#101E24"/>
<path d="M211.406 153.479H207.898V148.814H211.406V153.479ZM207.898 161.035H211.406V189.364H207.898V161.035Z" fill="#101E24"/>
<path d="M216.422 186.03L225.332 176.195C230.009 171.027 234.686 165.248 234.686 160.529C234.686 156.42 231.675 153.53 227.838 153.53C224.331 153.53 221.549 154.529 218.485 156.306L217.82 152.806C220.662 151.419 224.445 150.199 227.617 150.199C233.906 150.199 238.865 153.363 238.865 160.361C238.865 166.14 233.187 172.864 228.174 178.361L221.159 186.03H239.759V189.361H216.429V186.03H216.422Z" fill="#101E24"/>
<path d="M270.593 169.974C270.593 178.086 268.92 189.75 257.84 189.75C246.759 189.75 245.086 178.086 245.086 169.974C245.086 160.918 247.478 150.199 257.84 150.199C268.201 150.199 270.593 160.918 270.593 169.974ZM248.936 169.974C248.936 176.417 249.769 186.419 257.846 186.419C265.923 186.419 266.756 176.417 266.756 169.974C266.756 163.532 265.923 153.53 257.846 153.53C249.769 153.53 248.936 163.532 248.936 169.974Z" fill="#101E24"/>
<path d="M273.895 186.03L282.805 176.195C287.481 171.027 292.158 165.248 292.158 160.529C292.158 156.42 289.148 153.53 285.311 153.53C281.803 153.53 279.022 154.529 275.957 156.306L275.292 152.806C278.135 151.419 281.918 150.199 285.096 150.199C291.385 150.199 296.344 153.363 296.344 160.361C296.344 166.14 290.666 172.864 285.654 178.361L278.639 186.03H297.238V189.361H273.908V186.03H273.895Z" fill="#101E24"/>
<path d="M325.318 153.921H309.225L308.949 166.363C310.233 165.921 311.845 165.532 314.849 165.532C322.368 165.532 327.045 169.755 327.045 176.861C327.045 185.415 321.199 189.752 312.9 189.752C310.118 189.752 307.222 189.363 304.602 188.364V184.423C307.054 185.757 310.172 186.42 312.9 186.42C317.967 186.42 323.201 183.699 323.201 177.645C323.201 171.646 320.03 168.87 313.458 168.87C310.172 168.87 307.887 169.259 305.052 170.09L305.442 150.589H325.318V153.921Z" fill="#101E24"/>
</svg>
