<svg width="40" height="40" viewBox="0 0 40 40" fill="none" xmlns="http://www.w3.org/2000/svg">
<g id="mdi:temperature">
<path id="Vector" d="M25 21.6667V8.33337C25 7.00729 24.4732 5.73552 23.5355 4.79784C22.5978 3.86016 21.326 3.33337 20 3.33337C18.6739 3.33337 17.4021 3.86016 16.4644 4.79784C15.5267 5.73552 15 7.00729 15 8.33337V21.6667C13.6007 22.7161 12.5672 24.1792 12.0457 25.8486C11.5242 27.5181 11.5412 29.3093 12.0943 30.9686C12.6474 32.6279 13.7085 34.0711 15.1274 35.0937C16.5463 36.1164 18.2509 36.6667 20 36.6667C21.749 36.6667 23.4537 36.1164 24.8725 35.0937C26.2914 34.0711 27.3526 32.6279 27.9057 30.9686C28.4587 29.3093 28.4757 27.5181 27.9542 25.8486C27.4327 24.1792 26.3992 22.7161 25 21.6667ZM20 6.66671C20.442 6.66671 20.8659 6.8423 21.1785 7.15486C21.491 7.46742 21.6666 7.89135 21.6666 8.33337V13.3334H18.3333V8.33337C18.3333 7.89135 18.5089 7.46742 18.8214 7.15486C19.134 6.8423 19.5579 6.66671 20 6.66671Z" fill="#EBD63B"/>
</g>
</svg>
