<svg width="40" height="40" viewBox="0 0 40 40" fill="none" xmlns="http://www.w3.org/2000/svg">
<g id="mdi:weather-heavy-rain">
<path id="Vector" d="M15 20C15.8833 20.2333 16.4166 21.15 16.1833 22.0333L14.0166 30.0833C13.7833 30.9833 12.8666 31.5 11.9833 31.2666C11.7714 31.2136 11.5724 31.1179 11.3986 30.9856C11.2248 30.8532 11.0797 30.6869 10.9721 30.4967C10.8645 30.3065 10.7968 30.0964 10.7729 29.8793C10.749 29.6621 10.7696 29.4423 10.8333 29.2333L12.9666 21.1833C13.2 20.2833 14.1166 19.7666 15 20ZM21.6666 20C22.55 20.2333 23.0833 21.15 22.85 22.0333L19.4 34.9166C19.1666 35.8333 18.25 36.3333 17.35 36.1C16.4666 35.8333 15.9333 34.95 16.1666 34.05L19.6333 21.1833C19.8666 20.2833 20.7833 19.7666 21.6666 20ZM28.3333 20C29.2166 20.2333 29.75 21.15 29.5166 22.0333L27.35 30.0833C27.1166 30.9833 26.2 31.5 25.3166 31.2666C25.1047 31.2136 24.9058 31.1179 24.7319 30.9856C24.5581 30.8532 24.413 30.6869 24.3054 30.4967C24.1979 30.3065 24.1301 30.0964 24.1062 29.8793C24.0824 29.6621 24.1029 29.4423 24.1666 29.2333L26.3 21.1833C26.5333 20.2833 27.45 19.7666 28.3333 20ZM28.3333 16.6666V15C28.3333 12.7898 27.4553 10.6702 25.8925 9.10742C24.3297 7.54462 22.2101 6.66665 20 6.66665C15.8333 6.66665 12.4166 9.69998 11.7666 13.65C11.2166 13.45 10.6166 13.3333 9.99998 13.3333C8.6739 13.3333 7.40213 13.8601 6.46445 14.7978C5.52677 15.7355 4.99998 17.0072 4.99998 18.3333C4.99998 20.1833 5.99998 21.8 7.49998 22.6666V22.65C8.33331 23.1166 8.56665 24.1666 8.11665 24.9333C7.64998 25.7166 6.66665 26 5.83331 25.5333V25.55C4.56424 24.8212 3.51041 23.7698 2.77867 22.5025C2.04693 21.2351 1.66329 19.7968 1.66665 18.3333C1.66665 16.1232 2.54462 14.0036 4.10742 12.4408C5.67023 10.878 7.78984 9.99998 9.99998 9.99998C11.6666 6.08331 15.5 3.33331 20 3.33331C25.7166 3.33331 30.4 7.76665 30.8333 13.3833L31.6666 13.3333C33.4348 13.3333 35.1304 14.0357 36.3807 15.2859C37.6309 16.5362 38.3333 18.2319 38.3333 20C38.3333 22.5 37 24.6166 35 25.7666C34.1666 26.2166 33.1833 25.95 32.7166 25.15C32.2666 24.35 32.5 23.3333 33.3333 22.8666V22.8833C34.3333 22.3166 35 21.2333 35 20C35 19.1159 34.6488 18.2681 34.0237 17.643C33.3985 17.0178 32.5507 16.6666 31.6666 16.6666H28.3333Z" fill="#EBD63B"/>
</g>
</svg>
