<svg width="40" height="40" viewBox="0 0 40 40" fill="none" xmlns="http://www.w3.org/2000/svg">
<g id="mdi:weather-windy">
<path id="Vector" d="M6.66667 16.6666C6.22464 16.6666 5.80072 16.4911 5.48816 16.1785C5.17559 15.8659 5 15.442 5 15C5 14.558 5.17559 14.134 5.48816 13.8215C5.80072 13.5089 6.22464 13.3333 6.66667 13.3333H20C20.8841 13.3333 21.7319 12.9821 22.357 12.357C22.9821 11.7319 23.3333 10.884 23.3333 9.99998C23.3333 9.11592 22.9821 8.26808 22.357 7.64296C21.7319 7.01784 20.8841 6.66665 20 6.66665C19.0833 6.66665 18.25 7.03331 17.65 7.64998C17.4983 7.81185 17.315 7.94088 17.1115 8.02909C16.908 8.1173 16.6885 8.16281 16.4667 8.16281C16.2448 8.16281 16.0254 8.1173 15.8218 8.02909C15.6183 7.94088 15.435 7.81185 15.2833 7.64998C14.6333 6.99998 14.6333 5.93331 15.2833 5.28331C16.5 4.08331 18.1667 3.33331 20 3.33331C21.7681 3.33331 23.4638 4.03569 24.714 5.28593C25.9643 6.53618 26.6667 8.23187 26.6667 9.99998C26.6667 11.7681 25.9643 13.4638 24.714 14.714C23.4638 15.9643 21.7681 16.6666 20 16.6666H6.66667ZM31.6667 20C32.1087 20 32.5326 19.8244 32.8452 19.5118C33.1577 19.1993 33.3333 18.7753 33.3333 18.3333C33.3333 17.8913 33.1577 17.4674 32.8452 17.1548C32.5326 16.8422 32.1087 16.6666 31.6667 16.6666C31.2 16.6666 30.7833 16.85 30.4833 17.15C30.3291 17.3045 30.146 17.4271 29.9444 17.5107C29.7428 17.5943 29.5266 17.6374 29.3083 17.6374C29.09 17.6374 28.8739 17.5943 28.6723 17.5107C28.4707 17.4271 28.2875 17.3045 28.1333 17.15C27.5 16.5 27.5 15.45 28.1333 14.8C29.0333 13.9 30.2833 13.3333 31.6667 13.3333C32.9927 13.3333 34.2645 13.8601 35.2022 14.7978C36.1399 15.7355 36.6667 17.0072 36.6667 18.3333C36.6667 19.6594 36.1399 20.9312 35.2022 21.8688C34.2645 22.8065 32.9927 23.3333 31.6667 23.3333H8.33333C7.89131 23.3333 7.46738 23.1577 7.15482 22.8452C6.84226 22.5326 6.66667 22.1087 6.66667 21.6666C6.66667 21.2246 6.84226 20.8007 7.15482 20.4881C7.46738 20.1756 7.89131 20 8.33333 20H31.6667ZM30 30H6.66667C6.22464 30 5.80072 29.8244 5.48816 29.5118C5.17559 29.1993 5 28.7753 5 28.3333C5 27.8913 5.17559 27.4674 5.48816 27.1548C5.80072 26.8422 6.22464 26.6666 6.66667 26.6666H30C31.3261 26.6666 32.5979 27.1934 33.5355 28.1311C34.4732 29.0688 35 30.3406 35 31.6666C35 32.9927 34.4732 34.2645 33.5355 35.2022C32.5979 36.1399 31.3261 36.6666 30 36.6666C28.6167 36.6666 27.3667 36.1 26.4667 35.2C25.8333 34.55 25.8333 33.5 26.4667 32.85C26.6209 32.6955 26.804 32.5729 27.0056 32.4893C27.2072 32.4056 27.4234 32.3626 27.6417 32.3626C27.8599 32.3626 28.0761 32.4056 28.2777 32.4893C28.4793 32.5729 28.6625 32.6955 28.8167 32.85C29.1167 33.15 29.5333 33.3333 30 33.3333C30.442 33.3333 30.866 33.1577 31.1785 32.8452C31.4911 32.5326 31.6667 32.1087 31.6667 31.6666C31.6667 31.2246 31.4911 30.8007 31.1785 30.4881C30.866 30.1756 30.442 30 30 30Z" fill="#EBD63B"/>
</g>
</svg>
