<svg width="40" height="40" viewBox="0 0 40 40" fill="none" xmlns="http://www.w3.org/2000/svg">
<g id="mdi:weather-sunny">
<path id="Vector" d="M19.9997 11.6666C22.2099 11.6666 24.3295 12.5446 25.8923 14.1074C27.4551 15.6702 28.3331 17.7898 28.3331 20C28.3331 22.2101 27.4551 24.3297 25.8923 25.8925C24.3295 27.4553 22.2099 28.3333 19.9997 28.3333C17.7896 28.3333 15.67 27.4553 14.1072 25.8925C12.5444 24.3297 11.6664 22.2101 11.6664 20C11.6664 17.7898 12.5444 15.6702 14.1072 14.1074C15.67 12.5446 17.7896 11.6666 19.9997 11.6666ZM19.9997 15C18.6737 15 17.4019 15.5268 16.4642 16.4644C15.5265 17.4021 14.9997 18.6739 14.9997 20C14.9997 21.3261 15.5265 22.5978 16.4642 23.5355C17.4019 24.4732 18.6737 25 19.9997 25C21.3258 25 22.5976 24.4732 23.5353 23.5355C24.473 22.5978 24.9997 21.3261 24.9997 20C24.9997 18.6739 24.473 17.4021 23.5353 16.4644C22.5976 15.5268 21.3258 15 19.9997 15ZM19.9997 3.33331L23.9831 9.03331C22.7497 8.58331 21.3997 8.33331 19.9997 8.33331C18.5997 8.33331 17.2497 8.58331 16.0164 9.03331L19.9997 3.33331ZM5.56641 11.6666L12.4997 11.0833C11.4653 11.957 10.5862 12.9995 9.89974 14.1666C9.16641 15.4 8.74974 16.6666 8.51641 17.9833L5.56641 11.6666ZM5.59974 28.3333L8.53307 22.05C9.02287 24.7376 10.4237 27.1743 12.4997 28.95L5.59974 28.3333ZM34.4164 11.6666L31.4664 17.9833C30.9948 15.2844 29.591 12.8367 27.4997 11.0666L34.4164 11.6666ZM34.3997 28.3333L27.4997 28.9333C28.4831 28.0833 29.3664 27.0333 30.0664 25.8333C30.7664 24.6166 31.2164 23.3333 31.4497 22.0166L34.3997 28.3333ZM19.9997 36.6666L15.9831 30.9333C17.2164 31.3833 18.5664 31.6666 19.9997 31.6666C21.3664 31.6666 22.7164 31.3833 23.9497 30.9333L19.9997 36.6666Z" fill="#EBD63B"/>
</g>
</svg>
