<svg width="24" height="24" viewBox="0 0 24 24" fill="none" xmlns="http://www.w3.org/2000/svg">
<g id="mdi:hair-dryer-outline">
<path id="Vector" d="M9.99991 12.73C12.3614 12.274 14.6979 11.6965 16.9999 11V4C16.9999 4 10.4999 2 7.49991 2C6.16441 2.00376 4.8759 2.49332 3.87483 3.37732C2.87377 4.26132 2.22855 5.47936 2.05959 6.80414C1.89063 8.12891 2.20946 9.46991 2.95659 10.5769C3.70372 11.6838 4.82811 12.4811 6.11991 12.82L6.99991 19H7.99991C8.0399 19.4766 8.19328 19.9368 8.44725 20.3421C8.70123 20.7474 9.04843 21.0861 9.45991 21.33C9.92385 21.6058 10.3091 21.9962 10.5788 22.4638C10.8485 22.9313 10.9935 23.4603 10.9999 24H11.9999C11.9954 23.3111 11.8182 22.6343 11.4845 22.0316C11.1508 21.4289 10.6713 20.9195 10.0899 20.55C9.38991 20 8.99991 19.63 8.99991 19H9.99991M3.99991 7.5C3.99991 6.57174 4.36866 5.6815 5.02504 5.02513C5.68142 4.36875 6.57166 4 7.49991 4C10.045 4.23957 12.5584 4.74225 14.9999 5.5V9.5C12.5584 10.2577 10.045 10.7604 7.49991 11C6.57166 11 5.68142 10.6313 5.02504 9.97487C4.36866 9.3185 3.99991 8.42826 3.99991 7.5ZM21.9999 9C21.2238 9.02043 20.4567 8.83038 19.7799 8.45C19.2391 8.13961 18.6233 7.98393 17.9999 8V7C18.776 6.97957 19.5431 7.16962 20.2199 7.55C20.7608 7.86039 21.3765 8.01607 21.9999 8M21.9999 6C21.3765 6.01607 20.7608 5.86039 20.2199 5.55C19.5431 5.16962 18.776 4.97956 17.9999 5V6C18.6233 5.98393 19.2391 6.13961 19.7799 6.45C20.4567 6.83038 21.2238 7.02043 21.9999 7M21.9999 10C21.3765 10.0161 20.7608 9.86039 20.2199 9.55C19.5431 9.16962 18.776 8.97957 17.9999 9V10C18.6233 9.98393 19.2391 10.1396 19.7799 10.45C20.4567 10.8304 21.2238 11.0204 21.9999 11M8.99991 7.5C8.99991 7.79667 8.91194 8.08668 8.74712 8.33335C8.5823 8.58003 8.34803 8.77229 8.07394 8.88582C7.79985 8.99935 7.49825 9.02906 7.20728 8.97118C6.91631 8.9133 6.64903 8.77044 6.43925 8.56066C6.22947 8.35088 6.08661 8.08361 6.02873 7.79264C5.97086 7.50166 6.00056 7.20006 6.11409 6.92597C6.22762 6.65189 6.41988 6.41762 6.66656 6.2528C6.91323 6.08797 7.20324 6 7.49991 6C7.89774 6 8.27927 6.15804 8.56057 6.43934C8.84188 6.72064 8.99991 7.10218 8.99991 7.5Z" fill="#C8E14B"/>
</g>
</svg>
