<svg width="24" height="24" viewBox="0 0 24 24" fill="none" xmlns="http://www.w3.org/2000/svg">
<g id="ic:baseline-precision-manufacturing">
<path id="Vector" d="M19.93 8.20997L16.33 9.88997L14 7.69997V6.29997L16.33 4.10997L19.93 5.78997C20.31 5.96997 20.75 5.79997 20.93 5.42997C21.11 5.04997 20.94 4.60997 20.57 4.42997L16.65 2.59997C16.4642 2.51182 16.2555 2.48371 16.053 2.51955C15.8505 2.55539 15.6642 2.6534 15.52 2.79997L13.78 4.39997C13.6899 4.27733 13.5726 4.17733 13.4372 4.1079C13.3018 4.03847 13.1521 4.00152 13 3.99997C12.45 3.99997 12 4.44997 12 4.99997V5.99997H8.81995C8.33995 4.64997 6.97995 3.72997 5.39995 4.06997C4.23995 4.31997 3.24995 5.31997 3.03995 6.49997C2.81995 7.81997 3.49995 8.96997 4.51995 9.57997L7.07995 18H3.99995V21H17V18H13.38L8.40995 8.76997C8.57995 8.52997 8.71995 8.27997 8.81995 7.99997H12V8.99997C12 9.54997 12.45 9.99997 13 9.99997C13.32 9.99997 13.6 9.83997 13.78 9.59997L15.52 11.2C15.82 11.5 16.27 11.58 16.65 11.4L20.57 9.56997C20.95 9.38997 21.11 8.94997 20.93 8.56997C20.8448 8.3899 20.6917 8.25091 20.5043 8.18344C20.3169 8.11596 20.1104 8.12551 19.93 8.20997ZM5.99995 7.99997C5.44995 7.99997 4.99995 7.54997 4.99995 6.99997C4.99995 6.44997 5.44995 5.99997 5.99995 5.99997C6.54995 5.99997 6.99995 6.44997 6.99995 6.99997C6.99995 7.54997 6.54995 7.99997 5.99995 7.99997Z" fill="#C8E14B"/>
</g>
</svg>
