<svg width="20" height="20" viewBox="0 0 20 20" fill="none" xmlns="http://www.w3.org/2000/svg">
<path d="M18.842 15.2996L15.3004 18.8413L10.967 14.508L12.442 13.033L13.2754 13.8663L15.3337 11.7996L16.517 12.983L15.3004 14.1663L16.1837 14.9996L17.367 13.833L18.842 15.2996ZM5.50869 9.02463L1.15869 4.69963L4.70036 1.15796L6.16702 2.63296L4.10869 4.69963L5.00036 5.58296L7.05036 3.51629L8.23369 4.69963L7.05036 5.87463L7.88369 6.70796L5.50869 9.02463ZM11.717 7.49963L12.5004 8.27463L4.93369 15.833H4.16702V15.0663L11.717 7.49963ZM14.7254 2.49963C14.517 2.49963 14.3004 2.57463 14.1337 2.74129L12.6004 4.26629L15.7254 7.39129L17.2587 5.83296C17.5837 5.50796 17.5837 4.99963 17.2587 4.65796L15.3087 2.74129C15.2324 2.66431 15.1415 2.60329 15.0413 2.5618C14.9412 2.52031 14.8338 2.49917 14.7254 2.49963ZM11.717 5.14963L2.50036 14.3746V17.4996H5.62536L14.842 8.27463L11.717 5.14963Z" fill="#101E24"/>
</svg>
