<svg width="24" height="24" viewBox="0 0 24 24" fill="none" xmlns="http://www.w3.org/2000/svg">
<g id="mdi:desk-lamp">
<path id="Vector" d="M10.85 2L9.18 4.5L10.32 5.25L7.14 10H7C6.46957 10 5.96086 10.2107 5.58579 10.5858C5.21071 10.9609 5 11.4696 5 12C5.00123 12.4566 5.15864 12.8989 5.44606 13.2537C5.73348 13.6084 6.13362 13.8541 6.58 13.95L10.62 20H7V22H17V20H13L8.53 13.28C8.83177 12.9216 8.99811 12.4685 9 12C9 11.7 8.93 11.4 8.8 11.13L12 6.37C11.78 8.05 12.75 9.89 14.45 11L18.89 4.37C17.2 3.24 15.12 3.04 13.65 3.87L10.85 2ZM18.33 7L16.67 9.5C17.35 9.95 18.29 9.77 18.75 9.08C19.21 8.39 19 7.46 18.33 7Z" fill="#C8E14B"/>
</g>
</svg>
