<svg width="24" height="24" viewBox="0 0 24 24" fill="none" xmlns="http://www.w3.org/2000/svg">
<g id="ri:global-fill">
<path id="Vector" d="M2.04787 13.0001H7.52487C7.69599 16.167 8.70542 19.2315 10.4499 21.8801C8.26463 21.5371 6.25466 20.4796 4.73428 18.8729C3.21391 17.2662 2.26984 15.201 2.04787 13.0001ZM2.04688 11.0001C2.26858 8.79926 3.21341 6.73391 4.73361 5.12705C6.2538 3.52018 8.26366 2.46241 10.4489 2.11914C8.70442 4.76775 7.69499 7.83229 7.52388 10.9991L2.04688 11.0001ZM21.9469 11.0001H16.4699C16.2989 7.83294 15.2895 4.76804 13.5449 2.11914C15.7301 2.46216 17.7401 3.5197 19.2605 5.12638C20.7808 6.73306 21.7259 8.7983 21.9479 10.9991M21.9479 12.9991C21.726 15.1998 20.781 17.265 19.2609 18.8716C17.7407 20.4783 15.7309 21.5359 13.5459 21.8791C15.2902 19.2308 16.2996 16.1667 16.4709 13.0001L21.9479 12.9991ZM9.52787 13.0001H14.4679C14.3036 15.6997 13.4535 18.3127 11.9979 20.5921C10.5423 18.3127 9.69212 15.6997 9.52787 13.0001ZM9.52787 11.0001C9.69212 8.30059 10.5423 5.68755 11.9979 3.40814C13.4535 5.68755 14.3036 8.30059 14.4679 11.0001H9.52787Z" fill="#C8E14B"/>
</g>
</svg>
