<svg width="28" height="28" viewBox="0 0 28 28" fill="none" xmlns="http://www.w3.org/2000/svg">
<g id="uil:arrow-right">
<path id="Vector" d="M20.9067 13.5566C20.8511 13.4134 20.7679 13.2826 20.6617 13.1716L14.8283 7.33829C14.7196 7.22951 14.5904 7.14322 14.4483 7.08435C14.3062 7.02548 14.1538 6.99518 14 6.99518C13.6893 6.99518 13.3914 7.1186 13.1717 7.33829C13.0629 7.44706 12.9766 7.5762 12.9177 7.71833C12.8589 7.86045 12.8286 8.01278 12.8286 8.16662C12.8286 8.4773 12.952 8.77526 13.1717 8.99495L17.0217 12.8333H8.16667C7.85725 12.8333 7.5605 12.9562 7.34171 13.175C7.12292 13.3938 7 13.6905 7 14C7 14.3094 7.12292 14.6061 7.34171 14.8249C7.5605 15.0437 7.85725 15.1666 8.16667 15.1666H17.0217L13.1717 19.005C13.0623 19.1134 12.9755 19.2424 12.9163 19.3846C12.8571 19.5268 12.8266 19.6793 12.8266 19.8333C12.8266 19.9873 12.8571 20.1398 12.9163 20.282C12.9755 20.4241 13.0623 20.5532 13.1717 20.6616C13.2801 20.771 13.4092 20.8578 13.5513 20.917C13.6935 20.9762 13.846 21.0067 14 21.0067C14.154 21.0067 14.3065 20.9762 14.4487 20.917C14.5908 20.8578 14.7199 20.771 14.8283 20.6616L20.6617 14.8283C20.7679 14.7173 20.8511 14.5865 20.9067 14.4433C21.0234 14.1592 21.0234 13.8407 20.9067 13.5566Z" fill="white"/>
</g>
</svg>
