<svg width="24" height="25" viewBox="0 0 24 25" fill="none" xmlns="http://www.w3.org/2000/svg">
<path d="M12 2.83594C10.0222 2.83594 8.08879 3.42243 6.4443 4.52124C4.79981 5.62006 3.51809 7.18184 2.76121 9.0091C2.00433 10.8364 1.8063 12.847 2.19215 14.7868C2.578 16.7267 3.53041 18.5085 4.92894 19.907C6.32746 21.3055 8.10929 22.2579 10.0491 22.6438C11.9889 23.0296 13.9996 22.8316 15.8268 22.0747C17.6541 21.3179 19.2159 20.0361 20.3147 18.3916C21.4135 16.7471 22 14.8138 22 12.8359C22 11.5227 21.7413 10.2224 21.2388 9.0091C20.7363 7.79585 19.9997 6.69346 19.0711 5.76487C18.1425 4.83628 17.0401 4.09969 15.8268 3.59714C14.6136 3.0946 13.3132 2.83594 12 2.83594ZM18 12.6359C18.0156 12.8088 17.9808 12.9824 17.9 13.1359L15.8 18.0359C15.6905 18.2857 15.5073 18.4962 15.2751 18.6391C15.0428 18.7821 14.7724 18.8507 14.5 18.8359H9C8.46957 18.8359 7.96086 18.6252 7.58579 18.2502C7.21072 17.8751 7 17.3664 7 16.8359V11.8359C6.99002 11.6502 7.02063 11.4645 7.08971 11.2918C7.15879 11.1191 7.26468 10.9635 7.4 10.8359L12 5.83594L12.69 6.52594C12.8717 6.7151 12.9783 6.96392 12.99 7.22594V7.42594L12.41 10.8359H17C17.2652 10.8359 17.5196 10.9413 17.7071 11.1288C17.8946 11.3164 18 11.5707 18 11.8359V12.6359Z" fill="#101E24"/>
</svg>
