<svg width="24" height="25" viewBox="0 0 24 25" fill="none" xmlns="http://www.w3.org/2000/svg">
<path d="M16.3659 14.835C16.4459 14.175 16.5059 13.515 16.5059 12.835C16.5059 12.155 16.4459 11.495 16.3659 10.835H19.7459C19.9059 11.475 20.0059 12.145 20.0059 12.835C20.0059 13.525 19.9059 14.195 19.7459 14.835M14.5959 20.395C15.1959 19.285 15.6559 18.085 15.9759 16.835H18.9259C17.957 18.5032 16.42 19.767 14.5959 20.395ZM14.3459 14.835H9.66586C9.56586 14.175 9.50586 13.515 9.50586 12.835C9.50586 12.155 9.56586 11.485 9.66586 10.835H14.3459C14.4359 11.485 14.5059 12.155 14.5059 12.835C14.5059 13.515 14.4359 14.175 14.3459 14.835ZM12.0059 20.795C11.1759 19.595 10.5059 18.265 10.0959 16.835H13.9159C13.5059 18.265 12.8359 19.595 12.0059 20.795ZM8.00586 8.83496H5.08586C6.0445 7.16199 7.58052 5.8962 9.40586 5.27496C8.80586 6.38496 8.35586 7.58496 8.00586 8.83496ZM5.08586 16.835H8.00586C8.35586 18.085 8.80586 19.285 9.40586 20.395C7.58413 19.7673 6.05015 18.5032 5.08586 16.835ZM4.26586 14.835C4.10586 14.195 4.00586 13.525 4.00586 12.835C4.00586 12.145 4.10586 11.475 4.26586 10.835H7.64586C7.56586 11.495 7.50586 12.155 7.50586 12.835C7.50586 13.515 7.56586 14.175 7.64586 14.835M12.0059 4.86496C12.8359 6.06496 13.5059 7.40496 13.9159 8.83496H10.0959C10.5059 7.40496 11.1759 6.06496 12.0059 4.86496ZM18.9259 8.83496H15.9759C15.6624 7.59657 15.199 6.40107 14.5959 5.27496C16.4359 5.90496 17.9659 7.17496 18.9259 8.83496ZM12.0059 2.83496C6.47586 2.83496 2.00586 7.33496 2.00586 12.835C2.00586 15.4871 3.05943 18.0307 4.93479 19.906C5.86338 20.8346 6.96577 21.5712 8.17902 22.0738C9.39228 22.5763 10.6926 22.835 12.0059 22.835C14.658 22.835 17.2016 21.7814 19.0769 19.906C20.9523 18.0307 22.0059 15.4871 22.0059 12.835C22.0059 11.5217 21.7472 10.2214 21.2447 9.00813C20.7421 7.79487 20.0055 6.69248 19.0769 5.76389C18.1483 4.83531 17.0459 4.09871 15.8327 3.59617C14.6194 3.09362 13.3191 2.83496 12.0059 2.83496Z" fill="#101E24"/>
</svg>
