<svg width="24" height="24" viewBox="0 0 24 24" fill="none" xmlns="http://www.w3.org/2000/svg">
<g id="mdi:design">
<path id="Vector" d="M2.99989 17.25V21H6.74989L17.8099 9.93L14.0599 6.18L2.99989 17.25ZM22.6099 18.36L18.3599 22.61L13.1599 17.41L14.9299 15.64L15.9299 16.64L18.3999 14.16L19.8199 15.58L18.3599 17L19.4199 18L20.8399 16.6L22.6099 18.36ZM6.60989 10.83L1.38989 5.64L5.63989 1.39L7.39989 3.16L4.92989 5.64L5.99989 6.7L8.45989 4.22L9.87989 5.64L8.45989 7.05L9.45989 8.05L6.60989 10.83ZM20.7099 7C21.0999 6.61 21.0999 6 20.7099 5.59L18.3699 3.29C17.9999 2.9 17.3499 2.9 16.9599 3.29L15.1199 5.12L18.8699 8.87L20.7099 7Z" fill="#C8E14B"/>
</g>
</svg>
