<svg id="Layer_1" data-name="Layer 1" xmlns="http://www.w3.org/2000/svg" xmlns:xlink="http://www.w3.org/1999/xlink" viewBox="0 0 720 480"><defs><style>.cls-1{fill:none;}.cls-2{clip-path:url(#clip-path);}.cls-3{fill:#fff;}.cls-4{fill:#c60c30;}.cls-5{fill:#003478;}</style><clipPath id="clip-path"><rect class="cls-1" width="720" height="479.94"/></clipPath></defs><title>KR-flag-v2</title><g class="cls-2"><rect class="cls-3" width="720" height="480"/></g><path class="cls-4" d="M426.56,140.15a120,120,0,1,1-166.41,33.29,120,120,0,0,1,166.41-33.29"/><path class="cls-5" d="M260.15,173.44c-17.43,26.14-9.5,65.78,16.64,83.2s65.78,9.5,83.2-16.64,57.07-34.07,83.2-16.64,34.07,57.07,16.64,83.2a120,120,0,0,1-199.7-133.12"/><rect x="483.27" y="107.96" width="120" height="20" transform="translate(337.51 -398.49) rotate(56.03)"/><rect x="522.46" y="64.21" width="55" height="20" transform="translate(304.18 -423.34) rotate(56.03)"/><rect x="558.79" y="118.11" width="55" height="20" transform="translate(364.91 -429.68) rotate(56.03)"/><rect x="472.67" y="97.82" width="55" height="20" transform="translate(310.08 -367.22) rotate(56.03)"/><rect x="508.99" y="151.72" width="55" height="20" transform="translate(370.81 -373.56) rotate(56.03)"/><rect x="116.7" y="107.98" width="120" height="20" transform="translate(-19.62 199.21) rotate(-56.21)"/><rect x="91.75" y="91.33" width="120" height="20" transform="translate(-16.86 171.09) rotate(-56.21)"/><rect x="141.7" y="124.71" width="120" height="20" transform="translate(-22.43 227.41) rotate(-56.21)"/><rect x="92.36" y="368.16" width="120" height="20" transform="matrix(0.55, 0.84, -0.84, 0.55, 384.36, 42.91)"/><rect x="132.01" y="324.48" width="55" height="20" transform="translate(351.1 17.29) rotate(56.63)"/><rect x="167.76" y="378.77" width="55" height="20" transform="translate(412.52 11.85) rotate(56.63)"/><rect x="142.46" y="335.16" width="120" height="20" transform="translate(379.35 -13.78) rotate(56.63)"/><rect x="498.45" y="379.08" width="53" height="20" transform="translate(-89.79 610.56) rotate(-56.36)"/><rect x="534.46" y="324.97" width="53" height="20" transform="translate(-28.68 616.4) rotate(-56.36)"/><rect x="473.5" y="362.43" width="53" height="20" transform="translate(-87.05 582.36) rotate(-56.36)"/><rect x="509.51" y="308.31" width="53" height="20" transform="translate(-25.94 588.21) rotate(-56.36)"/><rect x="523.59" y="395.76" width="53" height="20" transform="translate(-92.46 638.92) rotate(-56.36)"/><rect x="559.6" y="341.64" width="53" height="20" transform="translate(-31.35 644.77) rotate(-56.36)"/></svg>