<?xml version="1.0" encoding="UTF-8" standalone="no"?>
<!DOCTYPE svg PUBLIC "-//W3C//DTD SVG 1.1//EN" "http://www.w3.org/Graphics/SVG/1.1/DTD/svg11.dtd">
<svg width="100%" height="100%" viewBox="0 0 1200 600" version="1.1" xmlns="http://www.w3.org/2000/svg" xmlns:xlink="http://www.w3.org/1999/xlink" xml:space="preserve" xmlns:serif="http://www.serif.com/" style="fill-rule:evenodd;clip-rule:evenodd;">
    <rect x="0" y="0" width="1200" height="600" style="fill:rgb(255,190,41);"/>
    <path d="M50,300L215,50L380,50L380,550L215,550L50,300Z" style="fill:rgb(235,116,0);fill-rule:nonzero;"/>
    <rect x="50" y="50" width="165" height="500" style="fill:rgb(0,83,78);"/>
    <rect x="430" y="50" width="725" height="500" style="fill:rgb(141,21,58);"/>
    <path id="leaf" d="M1086.1,466.06C1086.1,466.06 1092.9,479.901 1100.41,485.54C1111.54,493.896 1134.35,493.292 1144.04,503.04C1155.64,514.535 1143.14,529.722 1143.24,531.04L1143.88,539.061C1143.88,539.061 1136.05,539.155 1132.76,539.669C1127.81,540.441 1125.87,544.472 1116.65,543.873C1093.46,542.368 1094.4,521.476 1093.08,503.623C1091.92,496.825 1089.22,487.961 1087.69,481.165C1086.38,475.337 1086.1,466.06 1086.1,466.06Z" style="fill:rgb(255,190,41);fill-rule:nonzero;stroke:black;stroke-width:2.13px;"/>
    <g id="leaf1" serif:id="leaf" transform="matrix(-1,0,0,1,1585,0)">
        <path d="M1086.1,466.06C1086.1,466.06 1092.9,479.901 1100.41,485.54C1111.54,493.896 1134.35,493.292 1144.04,503.04C1155.64,514.535 1143.14,529.722 1143.24,531.04L1143.88,539.061C1143.88,539.061 1136.05,539.155 1132.76,539.669C1127.81,540.441 1125.87,544.472 1116.65,543.873C1093.46,542.368 1094.4,521.476 1093.08,503.623C1091.92,496.825 1089.22,487.961 1087.69,481.165C1086.38,475.337 1086.1,466.06 1086.1,466.06Z" style="fill:rgb(255,190,41);fill-rule:nonzero;stroke:black;stroke-width:2.13px;"/>
    </g>
    <g id="leaf2" serif:id="leaf" transform="matrix(1,0,0,-1,0,600)">
        <path d="M1086.1,466.06C1086.1,466.06 1092.9,479.901 1100.41,485.54C1111.54,493.896 1134.35,493.292 1144.04,503.04C1155.64,514.535 1143.14,529.722 1143.24,531.04L1143.88,539.061C1143.88,539.061 1136.05,539.155 1132.76,539.669C1127.81,540.441 1125.87,544.472 1116.65,543.873C1093.46,542.368 1094.4,521.476 1093.08,503.623C1091.92,496.825 1089.22,487.961 1087.69,481.165C1086.38,475.337 1086.1,466.06 1086.1,466.06Z" style="fill:rgb(255,190,41);fill-rule:nonzero;stroke:black;stroke-width:2.13px;"/>
    </g>
    <g id="leaf3" serif:id="leaf" transform="matrix(-1,0,0,-1,1585,600)">
        <path d="M1086.1,466.06C1086.1,466.06 1092.9,479.901 1100.41,485.54C1111.54,493.896 1134.35,493.292 1144.04,503.04C1155.64,514.535 1143.14,529.722 1143.24,531.04L1143.88,539.061C1143.88,539.061 1136.05,539.155 1132.76,539.669C1127.81,540.441 1125.87,544.472 1116.65,543.873C1093.46,542.368 1094.4,521.476 1093.08,503.623C1091.92,496.825 1089.22,487.961 1087.69,481.165C1086.38,475.337 1086.1,466.06 1086.1,466.06Z" style="fill:rgb(255,190,41);fill-rule:nonzero;stroke:black;stroke-width:2.13px;"/>
    </g>
    <g id="lion">
        <path d="M681.54,479.56L685.899,477.043L687.764,479.565C690.249,482.924 697.124,482.886 701.685,479.487L705.173,476.889L708.094,479.487C711.934,482.904 719.106,482.909 723.685,479.499C726.891,477.111 727.338,477.063 729.458,478.88C730.722,479.963 734.428,481.196 737.695,481.62C743.577,482.384 743.666,482.342 747.108,477.178C749.991,472.854 750.442,471.103 749.754,466.909C749.298,464.128 748.807,459.653 748.662,456.964C748.401,452.094 748.429,452.064 755.522,449.594C759.439,448.23 763.974,446.401 765.598,445.529C768.431,444.009 776.241,434.83 776.241,433.021C776.241,432.542 773.19,431.807 769.461,431.389C754.628,429.725 752.116,421.76 761.759,406.966C777.484,382.838 786.974,359.341 787.037,344.373C787.066,337.682 787.446,335.436 788.306,336.891C791.82,342.837 785.525,367.768 775.99,385.671L772.151,392.88L775.814,392.036C777.829,391.573 789.675,386.575 802.14,380.929C836.255,365.478 847.973,362.45 870.051,363.38C888.548,364.16 896.425,367.773 909.485,381.47C916.403,388.727 923.068,393.919 935.26,401.55C961.235,417.809 962.318,419.217 963.553,438.338C964.804,457.711 964.181,458.762 949.529,461.999C937.005,464.766 929.154,470.605 927.048,478.716C925.923,483.048 928.29,483.173 934.604,479.115L939.231,476.141L941.289,479.115C943.994,483.025 949.744,483.041 954.519,479.151L958.125,476.212L961.812,479.151C967.541,483.716 975.159,482.609 977.309,476.899C977.723,475.801 978.826,476.153 981.059,478.094C985.245,481.731 995.973,483.291 997.131,480.431C997.574,479.34 996.734,476.645 995.265,474.443C989.023,465.083 987.07,460.62 986.989,455.525C986.876,448.438 988.99,445.02 997.05,439.257C1006.84,432.256 1009.87,423.224 1002.42,423.224C997.823,423.224 993.189,419.16 990.234,412.538C984.226,399.077 985.403,383.986 994.42,358.881C1003.58,333.381 1004.6,328.679 1004.63,311.625C1004.66,297.836 1004.31,295.451 1001.18,287.891C999.258,283.268 995.366,276.386 992.527,272.597L987.366,265.706L993.993,260.216C1014.23,243.453 1010.09,216.018 985.73,205.447C978.278,202.214 976.416,201.928 963.358,202.016C955.524,202.069 943.578,203.099 936.812,204.307C929.913,205.538 918.237,206.527 910.227,206.56C897.502,206.611 895.342,206.297 890.438,203.687C885.325,200.965 884.448,199.673 883.447,193.382C883.241,192.089 882.337,190.799 881.438,190.515C879.699,189.967 871.667,196.938 870.48,200.025C869.894,201.549 869.417,201.443 867.699,199.412C866.558,198.063 864.966,194.963 864.16,192.524C862.133,186.388 864.622,181.789 871.834,178.343L877.429,175.669L874.129,173.621C867.321,169.396 855.744,172.287 851.557,179.256C850.373,181.228 849.081,182.844 848.687,182.849C848.292,182.852 846.041,180.972 843.684,178.669C834.894,170.08 837.918,157.372 849.675,153.492C855.945,151.423 861.493,153.001 862.647,157.182C864.41,163.565 869.888,155.175 868.906,147.598C868.252,142.561 868.35,142.386 871.836,142.386C876.683,142.386 887.001,148.748 890.192,153.705C893.898,159.462 893.629,168.528 889.55,175.285L886.347,180.591L890.537,179.752C896.68,178.521 902.649,174.706 905.668,170.08C908.86,165.188 909.203,155.664 906.372,150.525C903.629,145.544 903.944,144.753 907.999,146.436C914.896,149.299 918.583,152.456 921.349,157.867C923.84,162.74 923.979,163.951 922.63,169.023C921.798,172.152 919.947,176.269 918.517,178.172C916.289,181.134 916.213,181.631 917.988,181.631C921.293,181.631 928.194,178.503 930.646,175.894C931.884,174.575 933.69,171.33 934.658,168.681L936.419,163.865L938.442,167.536C941.303,172.727 946.864,177.398 953.646,180.306C960.939,183.432 963.976,183.608 960.162,180.684C957.59,178.711 952.851,164.806 954.287,163.446C955.133,162.645 965.034,170.264 976.34,180.414C987.035,190.015 993.755,193.16 1003.58,193.16C1016.13,193.16 1023.43,182.237 1017.79,171.909C1014.5,165.887 1007.18,165.051 1002.9,170.208C1000.93,172.579 1000.39,174.465 1000.96,176.953C1001.67,180 1001.39,180.406 998.618,180.406C994.971,180.406 987.781,175.739 975.012,165.085C955.541,148.837 931.882,135.065 914.798,130.035C903.835,126.806 880.415,125.546 869.27,127.585C857.208,129.792 842.941,136.695 835.169,144.084C821.397,157.178 821.178,174.602 834.588,190.469L838.429,195.015L835.828,199.054C832.045,204.931 832.369,212.839 836.632,218.664C838.509,221.23 840.403,223.328 840.84,223.326C841.277,223.325 841.757,221.676 841.905,219.661C842.282,214.564 844.469,211.15 848.224,209.798C851.605,208.58 853.791,209.155 869.275,215.335C885.564,221.837 912.352,222.284 940.836,216.529C954.8,213.708 971.266,213.874 978.51,216.909C991.789,222.472 994.867,236.945 985.105,247.931C980.88,252.687 976.804,254.623 963.122,258.379C952.71,261.236 950.244,261.426 926.579,261.19C906.361,260.988 899.095,261.376 890.842,263.099C881.882,264.97 876.371,265.159 850.052,264.495L819.621,263.728L822.996,266.523C824.852,268.06 827.474,269.95 828.823,270.725C831.118,272.042 831.042,272.219 827.63,273.484C825.625,274.227 821.175,274.836 817.742,274.836L811.498,274.836L810.658,280.141C810.196,283.06 810.231,286.467 810.736,287.712C811.48,289.55 811.203,289.814 809.266,289.11C807.953,288.633 804.296,287.694 801.14,287.024C797.983,286.355 793.734,284.99 791.698,283.993C788.273,282.316 787.892,282.361 786.631,284.593C785.504,286.587 774.929,294.457 773.377,294.457C773.126,294.457 772.803,292.94 772.658,291.085C772.514,289.23 770.988,284.401 769.268,280.354C767.548,276.307 765.752,271.892 765.277,270.543C764.56,268.508 764.236,268.404 763.371,269.93C762.798,270.942 761.962,273.701 761.512,276.062C761.063,278.422 759.469,282.257 757.971,284.584L755.247,288.814L753.509,285.197C751.644,281.314 748.548,277.288 747.427,277.288C747.049,277.288 746.404,278.53 745.995,280.047C745.14,283.216 737.798,292.004 736.005,292.004C735.344,292.004 734.804,289.521 734.804,286.486C734.804,283.45 734.221,280.967 733.509,280.967C732.797,280.967 732.214,281.752 732.214,282.712C732.214,285.046 725.944,292.004 723.841,292.004C722.923,292.004 721.447,292.832 720.56,293.844C718.248,296.482 716.357,296.112 717.329,293.211C717.785,291.852 717.488,288.679 716.67,286.16C715.853,283.641 714.983,280.96 714.738,280.202C714.429,279.248 712.182,279.501 707.426,281.026C699.741,283.49 697.165,283.054 701.118,279.958C702.562,278.827 704.76,274.907 706.001,271.248C707.243,267.589 709.074,264.342 710.071,264.033C711.467,263.6 711.393,264.135 709.747,266.36C708.572,267.949 707.607,270.092 707.603,271.122C707.603,272.153 706.714,274.595 705.637,276.55C704.56,278.506 703.884,280.299 704.133,280.535C704.383,280.771 707.307,279.66 710.631,278.067L716.675,275.169L716.7,277.761C716.714,279.187 717.442,282.949 718.318,286.12L719.912,291.887L724.026,289.996C728.231,288.063 732.214,281.174 732.214,275.832C732.214,273.191 733.726,273.597 734.346,276.403C734.528,277.227 735.477,280.318 736.456,283.272L738.235,288.644L741.052,285.253C742.602,283.387 744.544,279.728 745.368,277.122C746.8,272.596 749.048,270.651 749.048,273.937C749.048,276.305 755.51,284.798 756.757,284.068C757.359,283.715 758.559,280.528 759.423,276.985C761.219,269.616 764.118,264.605 765.96,265.683C766.652,266.088 766.922,266.875 766.559,267.431C766.196,267.987 767.684,272.778 769.866,278.077C772.049,283.376 774.24,288.711 774.736,289.933C775.533,291.896 776.253,291.611 780.93,287.48C783.841,284.909 786.484,282.032 786.802,281.085C787.283,279.654 787.932,279.706 790.654,281.395C794.461,283.758 807.259,287.564 808.247,286.628C808.617,286.277 808.997,282.916 809.091,279.158L809.261,272.326L812.941,273.09C814.966,273.509 819.222,273.483 822.4,273.032L828.178,272.211L823.029,268.679C820.196,266.736 817.333,264.221 816.665,263.091C815.954,261.887 813.433,260.865 810.578,260.622C802.863,259.967 789.19,252.298 789.19,248.626C789.19,247.937 791.083,249.109 793.398,251.231C798.533,255.937 805.667,258.891 811.897,258.891L816.559,258.891L813.675,255.056C812.019,252.852 810.533,248.672 810.184,245.234C809.628,239.753 809.049,238.881 803.326,234.903C799.888,232.513 795.63,228.931 793.864,226.943L790.652,223.328L789.013,227.62C788.112,229.98 787.01,231.912 786.565,231.912C786.12,231.912 784.388,230.532 782.715,228.846C781.042,227.16 779.338,225.786 778.928,225.794C778.518,225.801 777.036,228.073 775.635,230.841L773.088,235.875L771.12,232.974C770.037,231.378 767.48,228.555 765.437,226.7C763.394,224.845 762.319,223.327 763.049,223.327C763.779,223.327 766.3,225.26 768.652,227.621L772.929,231.915L774.669,228.769C775.702,226.902 776.089,224.035 775.621,221.716C774.939,218.336 775.035,218.14 776.331,220.261C777.155,221.61 779.657,224.197 781.891,226.009L785.952,229.303L788.755,224.169C791.545,219.06 791.564,219.05 792.833,222.101C794.531,226.181 806.813,236.25 817.27,242.133C818.882,243.04 818.203,239.922 815.226,232.752C814.438,230.853 813.793,227.43 813.793,225.145C813.793,221.755 812.815,220.246 808.479,216.947C802.22,212.184 800.196,208.797 799.016,201.112C798.538,197.999 797.443,194.537 796.582,193.418C795.304,191.759 795.093,192.688 795.435,198.465C795.665,202.359 795.159,207.201 794.31,209.224L792.765,212.903L791.571,209.837C790.915,208.151 788.011,205.218 785.118,203.321C782.225,201.423 780.195,199.551 780.606,199.162C781.017,198.772 783.993,200.502 787.219,203.005C792.134,206.819 793.217,207.232 793.897,205.552C794.697,203.579 793.896,194.99 792.351,188.989C791.58,185.993 791.648,186.009 795.345,189.705C798.071,192.431 799.579,195.683 800.747,201.355C802.231,208.562 802.979,209.762 809.643,215.613C813.645,219.127 817.127,221.804 817.382,221.563C817.637,221.322 818.142,212.233 818.504,201.364C819.2,180.523 818.414,175.564 813.395,169.125L810.816,165.817L814.87,161.444C820.158,155.739 822.587,151.167 823.64,144.929L824.497,139.854L819.922,144.187C816.175,147.735 814.386,148.52 810.047,148.52C805.751,148.52 804.072,147.8 801.177,144.715C797.703,141.013 791.548,137.451 785.628,135.718C783.441,135.077 782.714,135.356 782.714,136.836C782.714,137.92 781.507,141.049 780.03,143.789L777.346,148.772L771.722,143.214C768.273,139.804 764.179,137.15 761.133,136.349C753.353,134.303 752.931,134.506 752.931,140.303C752.931,149.096 749.177,150.734 742.42,144.89C737.269,140.435 732.997,139.466 723.229,140.539L715.686,141.369L717.043,144.774C718.177,147.619 717.921,148.817 715.492,152.047C711.552,157.287 706.43,159.557 698.544,159.557C694.912,159.557 690.367,160.309 688.444,161.227C686.521,162.146 681.743,163.204 677.825,163.579C673.908,163.954 669.733,164.623 668.547,165.066C666.692,165.759 666.488,165.188 667.086,160.968C668.001,154.51 663.489,149.746 656.459,149.746C647.337,149.746 643.13,157.905 646.702,168.668C647.39,170.739 648.289,174.006 648.701,175.927C649.129,177.92 653.237,183.21 658.27,188.245C663.121,193.099 667.705,198.149 668.458,199.468C669.211,200.787 671.699,202.904 673.987,204.172L678.148,206.478L677.599,202.026C676.996,197.133 678.062,196.366 680.665,199.818C681.596,201.053 683.96,203.048 685.918,204.252C689.004,206.148 689.479,206.187 689.479,204.54C689.479,203.495 690.108,201.086 690.877,199.187L692.275,195.735L694.7,200.432C696.033,203.015 700.371,208.887 704.339,213.48C712.037,222.392 716.728,232.351 714.307,234.643C713.325,235.573 710.671,235.501 705.169,234.395C700.905,233.538 695.63,233.085 693.447,233.388C688.99,234.008 688.639,233.432 691.38,230C694.273,226.377 693.813,225.78 688.13,225.78C681.554,225.78 665.229,222.628 658.962,220.148C652.868,217.737 651.462,218.337 649.669,224.117C648.861,226.718 647.383,231.431 646.384,234.591L644.568,240.335L651.16,239.7C654.786,239.351 659.45,238.557 661.524,237.936C663.599,237.315 665.484,236.985 665.713,237.202C665.943,237.42 665.019,239.665 663.659,242.19L661.187,246.783L665.297,245.945C667.558,245.484 670.959,244.356 672.856,243.439C676.155,241.843 676.42,241.958 679.023,246.136C682.224,251.274 684.784,251.063 685.352,245.614C685.94,239.982 687.793,240.815 691.278,248.279C694.629,255.456 698.116,257.99 698.786,253.735C699.009,252.323 700.814,250.023 702.798,248.625C706.812,245.798 709.837,246.646 711.571,251.086C713.366,255.681 709.362,260.418 697.718,267.477C674.391,281.617 660.832,300.956 656.961,325.605C653.469,347.838 664.374,370.812 686.251,387.313C696.72,395.209 713.351,403.544 712.294,400.364C707.806,386.859 707.953,361.09 712.544,356.743C713.233,356.09 712.996,358.779 712.017,362.718C708.372,377.39 709.956,389.081 719.299,416.481C727.75,441.263 726.58,451.854 714.62,458.855C710.779,461.103 708.305,461.474 697.977,461.348C686.77,461.212 685.549,461.438 681.951,464.305C678.463,467.085 673.94,476.211 673.94,480.47C673.94,482.777 676.502,482.472 681.537,479.565L681.54,479.56Z" style="fill:rgb(255,190,41);fill-rule:nonzero;stroke:black;stroke-width:5.56px;"/>
        <path d="M863.45,479.06L868.151,476.039L871.341,479.06C875.521,483.018 880.417,482.93 884.435,478.823C886.189,477.031 887.764,475.79 887.935,476.064C888.106,476.338 888.888,477.667 889.672,479.016C890.666,480.723 892.708,481.582 896.395,481.842C900.836,482.155 902.029,481.725 903.794,479.174L905.898,476.133L910.525,479.108C923.194,487.25 929.945,478.707 924.283,461.697C921.404,453.047 922.987,448.185 932.266,437.176C936.179,432.533 939.384,427.578 939.388,426.165C939.388,423.911 938.664,423.609 933.456,423.712C928.473,423.811 927.015,423.276 924.392,420.389C920.126,415.692 920.379,410.314 925.148,404.345L928.958,399.576L922.199,394.989C918.481,392.466 911.777,386.497 907.3,381.724C897.246,371.005 887.361,365.922 874.325,364.769L865.584,363.996L865.597,370.612C865.614,379.129 869.611,387.322 880.521,401.2C892.926,416.979 893.792,419.422 894.295,440.046L894.72,457.488L891.13,460.894C887.887,463.971 886.424,464.364 875.957,464.967C865.993,465.542 863.899,466.056 860.975,468.646C857.092,472.087 855.93,473.958 854.731,478.709C854.032,481.478 854.316,482.082 856.314,482.082C857.652,482.082 860.863,480.722 863.449,479.06L863.45,479.06Z" style="fill:rgb(255,190,41);fill-rule:nonzero;stroke:black;stroke-width:5.56px;"/>
        <path d="M596.82,433.98C597.929,432.481 598.836,430.06 598.836,428.601C598.836,426.395 599.821,425.807 604.667,425.119L610.499,424.291L606.61,421.191C601.989,417.509 601.562,414.633 605.634,414.627C609.69,414.627 616.559,410.415 617.603,407.299C618.089,405.85 617.783,403.915 616.913,402.922C614.639,400.327 610.364,400.718 609.57,403.594C608.717,406.685 607.288,406.693 604.048,403.624C599.175,399.009 599.066,389.455 603.822,383.892C606.064,381.271 606.044,381.099 603.186,378.392C600.111,375.48 597.916,369.717 599.36,368.349C599.82,367.914 602.249,368.26 604.758,369.12C608.323,370.341 609.731,370.36 611.2,369.205C615.65,365.707 610.829,361.21 603.693,362.202C600.821,362.601 599.635,362.202 599.223,360.712C598.911,359.583 596.399,358.107 593.569,357.392C588.512,356.114 588.476,356.129 588.476,359.613C588.476,363.431 586.297,364.152 582.155,361.702C578.79,359.712 575.527,361.257 575.527,364.841C575.527,368.184 578.889,369.833 584.915,369.445C589.537,369.147 589.709,372.584 585.319,377.524L582.163,381.077L584.663,384.67C588.367,389.991 588.055,398.828 584.009,403.217L580.837,406.658L578.756,403.898C575.864,400.064 571.908,400.321 570.824,404.414C570.113,407.094 570.701,408.319 574.057,411.159C576.312,413.067 579.605,414.629 581.375,414.629C585.753,414.629 585.582,418.072 581.03,421.551L577.469,424.272L582.973,425.126C586,425.596 588.476,426.479 588.476,427.089C588.476,429.428 592.29,436.704 593.516,436.704C594.225,436.704 595.711,435.477 596.82,433.978L596.82,433.98Z" style="fill:rgb(255,190,41);fill-rule:nonzero;stroke:black;stroke-width:5.56px;"/>
        <path d="M668.48,402.92C673.48,400.949 684.301,391.786 684.301,389.522C684.301,388.81 681.314,385.525 677.664,382.222C669.981,375.271 661.625,363.565 659.46,356.721C658.331,353.152 652.875,347.043 637.509,332.14L617.061,312.308L611.167,313.801C607.926,314.622 603.971,315.313 602.379,315.338C599.635,315.379 599.684,315.537 603.333,318.36L607.181,321.339L612.577,318.344C617.808,315.441 617.994,315.423 618.639,317.759C619.017,319.127 618.202,321.497 616.756,323.238C615.354,324.926 614.555,326.841 614.981,327.493C615.407,328.145 614.06,329.509 611.988,330.524C608.149,332.404 605.483,338.594 608.514,338.594C611.24,338.594 617.251,331.177 616.558,328.669C616.203,327.384 616.375,326.063 616.939,325.732C619.281,324.362 619.134,330.185 616.756,333.049C615.354,334.737 614.555,336.651 614.981,337.304C615.407,337.956 614.06,339.32 611.988,340.334C608.173,342.203 605.482,348.405 608.485,348.405C611.429,348.405 617.342,341.318 616.61,338.666C616.227,337.279 616.375,335.874 616.939,335.543C618.516,334.62 619.367,339.217 618.036,341.47C617.323,342.676 617.329,344.323 618.053,345.629C619.362,347.996 618.034,352.54 615.621,353.953C614.586,354.558 615.287,355.746 617.796,357.641C621.427,360.383 621.498,360.671 621.498,372.771C621.498,382.883 621.906,385.493 623.764,387.253C625.849,389.229 626.03,389.236 626.03,387.342C626.03,385.273 629.662,382.743 632.633,382.743C633.509,382.743 638.984,387.384 644.8,393.055C650.651,398.761 656.773,403.616 658.507,403.925C660.23,404.233 662.095,404.559 662.652,404.651C663.209,404.743 665.832,403.964 668.48,402.921L668.48,402.92Z" style="fill:rgb(255,190,41);fill-rule:nonzero;stroke:black;stroke-width:5.56px;"/>
        <path d="M605.96,354C605.96,350.74 599.236,347.261 591.193,346.359C584.7,345.63 584.593,345.671 584.593,348.915C584.593,351.6 585.615,352.656 590.097,354.608C597.299,357.744 605.96,357.412 605.96,354Z" style="fill:rgb(255,190,41);fill-rule:nonzero;stroke:black;stroke-width:5.56px;"/>
        <path d="M613.33,353.7C616.61,350.724 618.164,347.184 616.191,347.184C613.921,347.184 607.898,352.59 607.898,354.626C607.898,357.805 609.016,357.614 613.33,353.7Z" style="fill:rgb(255,190,41);fill-rule:nonzero;stroke:black;stroke-width:5.56px;"/>
        <path d="M606.34,344.06C606.618,342.221 605.48,340.993 602.07,339.453C594.715,336.131 585.92,334.593 583.802,336.257C579.901,339.324 582.501,343.44 588.805,344.181C591.343,344.479 594.785,345.253 596.453,345.901C601.299,347.783 605.907,346.925 606.34,344.06Z" style="fill:rgb(255,190,41);fill-rule:nonzero;stroke:black;stroke-width:5.56px;"/>
        <path d="M606.34,334.21C606.736,331.586 605.058,330.647 591.362,325.827C581.137,322.228 576.61,323.925 579.878,330.132C581.016,332.295 582.927,333.283 587.212,333.924C590.399,334.402 594.755,335.335 596.891,335.998C602.599,337.77 605.897,337.146 606.34,334.21Z" style="fill:rgb(255,190,41);fill-rule:nonzero;stroke:black;stroke-width:5.56px;"/>
        <path d="M613.2,324.98C615.267,322.885 616.957,320.413 616.957,319.486C616.957,316.48 608.796,321.799 607.756,325.482C606.508,329.901 608.531,329.715 613.2,324.98Z" style="fill:rgb(255,190,41);fill-rule:nonzero;stroke:black;stroke-width:5.56px;"/>
        <path d="M606.34,324.36C606.791,321.371 601.82,318.672 592.046,316.598C584.875,315.076 581.712,315.939 582.249,319.271C582.542,321.091 584.93,322.42 591.706,324.534C602.549,327.918 605.81,327.879 606.34,324.36Z" style="fill:rgb(255,190,41);fill-rule:nonzero;stroke:black;stroke-width:5.56px;"/>
        <path d="M615.9,310.45C628.425,304.875 629.508,290.815 617.698,287.124C612.794,285.591 609.664,286.417 607.786,289.739C606.349,292.282 607.31,296.906 609.276,296.906C609.94,296.906 610.484,297.762 610.484,298.808C610.484,303.69 591.361,305.902 583.519,301.927C580.764,300.531 579.564,296.906 581.857,296.906C583.571,296.906 584.755,293.213 583.88,290.6C582.687,287.041 579.1,285.808 573.897,287.169C562.157,290.239 562.487,304.034 574.44,309.888C584.241,314.688 605.727,314.98 615.9,310.451L615.9,310.45Z" style="fill:rgb(255,190,41);fill-rule:nonzero;stroke:black;stroke-width:5.56px;"/>
        <path d="M608.11,299.64C608.835,298.953 608.52,297.898 607.304,296.942C604.641,294.849 604.783,291.736 607.704,288.173C609.897,285.497 610.171,281.493 610.926,241.099C612.227,171.488 617.404,119.129 624.226,106.569C626.943,101.568 626.562,101.548 619.543,106.324C610.501,112.476 603.617,120.487 597.517,131.955C586.001,153.606 581.999,182.735 581.999,244.915C581.999,280.22 582.239,284.839 584.25,288.158C586.16,291.31 586.262,292.474 584.92,295.841C584.05,298.024 583.656,300.109 584.043,300.476C586.614,302.911 605.345,302.265 608.11,299.646L608.11,299.64Z" style="fill:rgb(255,190,41);fill-rule:nonzero;stroke:black;stroke-width:5.56px;"/>
        <path d="M713.34,233.26C713.732,232.659 712.865,229.624 711.414,226.515C709.15,221.668 708.238,220.863 705.014,220.863C694.912,220.863 678.673,216.349 661.931,208.887C652.263,204.578 648.924,203.588 647.765,204.686C644.807,207.487 649.723,214.137 657.336,217.632C664.09,220.732 682.971,224.542 691.584,224.542C696.581,224.542 696.699,224.768 693.855,228.878L691.764,231.901L697.416,232.046C700.525,232.126 704.817,232.612 706.954,233.127C712.503,234.464 712.555,234.465 713.341,233.26L713.34,233.26Z" style="fill:rgb(255,190,41);fill-rule:nonzero;stroke:black;stroke-width:5.56px;"/>
        <path d="M772.35,264.63C772.35,262.831 767.066,257.955 761.712,254.813C757.507,252.346 756.813,252.271 756.803,254.283C756.789,257.338 754.072,265.014 753.005,265.014C752.404,265.014 751.514,263.514 751.028,261.681C750.542,259.848 748.504,256.235 746.499,253.652L742.853,248.957L740.014,253.307C737.367,257.363 732.782,261.335 730.747,261.335C730.261,261.335 730.166,259.199 730.536,256.588C730.938,253.752 730.628,251.502 729.765,250.997C728.972,250.533 728.322,250.695 728.322,251.358C728.322,252.886 721.955,260.109 720.608,260.109C720.053,260.109 719.276,258.039 718.881,255.51C718.487,252.98 717.816,248.979 717.39,246.619C716.965,244.258 717.872,245.859 719.405,250.176L722.194,258.026L725.252,253.242C726.933,250.611 728.312,247.736 728.316,246.853C728.316,245.97 728.888,245.579 729.58,245.983C730.271,246.388 731.234,249.551 731.719,253.012L732.6,259.304L735.965,255.615C737.815,253.586 739.984,250.87 740.783,249.579C742.21,247.275 742.291,247.277 745.13,249.685C746.72,251.034 749.166,254.26 750.564,256.855C751.963,259.45 753.294,261.381 753.523,261.147C753.751,260.913 754.264,258.238 754.661,255.203C755.059,252.168 755.414,249.572 755.45,249.434C755.648,248.682 765.585,255.142 769.262,258.412C771.625,260.514 773.869,261.94 774.249,261.58C774.629,261.22 774.94,258.119 774.94,254.688C774.94,249.371 774.377,247.946 771.125,245.04C767.385,241.697 767.281,241.679 765.899,244.124C764.106,247.297 761.991,247.343 761.991,244.208C761.991,241.921 754.925,233.128 753.087,233.128C752.61,233.128 751.122,235.06 749.78,237.421C748.437,239.781 746.994,241.711 746.572,241.708C744.759,241.697 734.798,230.591 734.803,228.586C734.803,226.992 735.474,227.399 737.22,230.062C738.547,232.086 741.198,235.107 743.111,236.775C746.984,240.154 748.392,239.332 749.886,232.822C750.312,230.967 751.052,229.449 751.531,229.449C753.187,229.449 761.858,238.659 763.078,241.713L764.302,244.779L765.23,241.406C766.364,237.282 767.615,237.129 769.425,240.892C770.182,242.464 773.917,245.733 777.727,248.155L784.653,252.56L786.043,248.13C786.807,245.693 787.82,244.293 788.293,245.018C788.999,246.099 787.199,253.441 785.84,255.02C785.637,255.257 783.392,253.949 780.853,252.115L776.236,248.78L776.217,254.751C776.205,258.034 775.848,261.963 775.419,263.481C774.579,266.448 772.35,267.283 772.35,264.63Z" style="fill:rgb(255,190,41);fill-rule:nonzero;stroke:black;stroke-width:5.56px;"/>
        <path d="M737.82,217.03C729.589,210.158 728.339,208.585 728.521,205.328L728.715,201.861L729.252,205.21C729.566,207.165 731.758,210.095 734.521,212.252L739.253,215.946L742.16,212.583C743.76,210.733 745.089,208.53 745.115,207.687C745.182,205.488 745.576,205.673 751.149,210.508C756.101,214.804 756.178,214.825 756.914,212.041C757.325,210.489 757.179,207.568 756.591,205.549C754.973,199.999 755.29,199.161 757.741,202.508C758.963,204.176 760.927,206.533 762.106,207.747C764.158,209.86 764.283,209.834 765.047,207.134C765.486,205.583 765.853,202.744 765.862,200.825L765.881,197.337L770.345,202.398C774.515,207.125 774.899,207.3 776.172,205.047C776.922,203.721 777.544,200.53 777.555,197.956C777.569,194.631 777.919,193.793 778.765,195.059C780.177,197.173 779.196,202.929 776.589,207.834L774.718,211.354L772.261,207.527C769.119,202.634 768.073,202.713 766.057,207.993C764.152,212.983 762.913,213.363 761.056,209.526C759.855,207.043 759.626,207.347 758.774,212.563L757.826,218.36L752.147,213.953L746.469,209.546L743.916,212.449C742.512,214.045 741.344,216.041 741.32,216.884C741.268,218.711 739.903,218.768 737.821,217.03L737.82,217.03Z" style="fill:rgb(255,190,41);fill-rule:nonzero;stroke:black;stroke-width:5.56px;"/>
        <path d="M811.04,191.43C808.044,188.731 805.98,186.155 806.453,185.707C806.927,185.259 807.46,185.13 807.638,185.422C807.816,185.713 810.265,188.288 813.08,191.145C819.563,197.721 818.23,197.907 811.04,191.43Z" style="fill:rgb(255,190,41);fill-rule:nonzero;stroke:black;stroke-width:5.56px;"/>
        <path d="M713.51,181.35C710.785,177.665 710.973,175.223 714.29,171.229C716.688,168.343 717.783,167.951 721.969,168.483C724.655,168.824 730.433,171.196 734.81,173.755C739.866,176.71 745.095,178.69 749.145,179.182C752.652,179.608 755.521,179.769 755.521,179.539C755.521,179.309 754.065,176.936 752.284,174.265C748.056,167.921 748.201,167.241 752.97,171.041C757.865,174.942 763.721,176.083 776.806,175.685L783.199,175.491L779.49,171.825C774.303,166.698 775.899,166.238 781.627,171.209C787,175.872 786.663,176.2 775.356,177.329C770.551,177.809 765.384,177.461 761.089,176.368C754.663,174.734 754.414,174.759 755.631,176.913C756.333,178.155 757.469,179.17 758.156,179.17C758.843,179.17 759.405,179.799 759.405,180.568C759.405,182.933 745.526,180.853 738.894,177.495C723.743,169.824 721.836,169.16 718.23,170.296C716.224,170.929 714.215,172.78 713.523,174.634C711.214,180.822 719.989,185.631 723.608,180.162C724.657,178.576 724.412,177.492 722.568,175.563C720.043,172.921 720.28,172.544 723.689,173.783C726.109,174.662 726.434,180.472 724.183,182.604C721.607,185.043 715.73,184.353 713.509,181.35L713.51,181.35Z" style="fill:rgb(255,190,41);fill-rule:nonzero;stroke:black;stroke-width:5.56px;"/>
        <path d="M773.19,166.07C771.295,164.276 772.781,163.836 781.275,163.678C791.783,163.482 798.165,161.731 805.695,156.977C811.728,153.168 813.364,153.918 807.637,157.867C802.413,161.47 794.265,164.239 786.398,165.086C782.589,165.496 778.248,166.064 776.751,166.349C775.254,166.633 773.652,166.507 773.19,166.07Z" style="fill:rgb(255,190,41);fill-rule:nonzero;stroke:black;stroke-width:5.56px;"/>
    </g>
    <g id="lion1" serif:id="lion">
        <path d="M681.54,479.56L685.899,477.043L687.764,479.565C690.249,482.924 697.124,482.886 701.685,479.487L705.173,476.889L708.094,479.487C711.934,482.904 719.106,482.909 723.685,479.499C726.891,477.111 727.338,477.063 729.458,478.88C730.722,479.963 734.428,481.196 737.695,481.62C743.577,482.384 743.666,482.342 747.108,477.178C749.991,472.854 750.442,471.103 749.754,466.909C749.298,464.128 748.807,459.653 748.662,456.964C748.401,452.094 748.429,452.064 755.522,449.594C759.439,448.23 763.974,446.401 765.598,445.529C768.431,444.009 776.241,434.83 776.241,433.021C776.241,432.542 773.19,431.807 769.461,431.389C754.628,429.725 752.116,421.76 761.759,406.966C777.484,382.838 786.974,359.341 787.037,344.373C787.066,337.682 787.446,335.436 788.306,336.891C791.82,342.837 785.525,367.768 775.99,385.671L772.151,392.88L775.814,392.036C777.829,391.573 789.675,386.575 802.14,380.929C836.255,365.478 847.973,362.45 870.051,363.38C888.548,364.16 896.425,367.773 909.485,381.47C916.403,388.727 923.068,393.919 935.26,401.55C961.235,417.809 962.318,419.217 963.553,438.338C964.804,457.711 964.181,458.762 949.529,461.999C937.005,464.766 929.154,470.605 927.048,478.716C925.923,483.048 928.29,483.173 934.604,479.115L939.231,476.141L941.289,479.115C943.994,483.025 949.744,483.041 954.519,479.151L958.125,476.212L961.812,479.151C967.541,483.716 975.159,482.609 977.309,476.899C977.723,475.801 978.826,476.153 981.059,478.094C985.245,481.731 995.973,483.291 997.131,480.431C997.574,479.34 996.734,476.645 995.265,474.443C989.023,465.083 987.07,460.62 986.989,455.525C986.876,448.438 988.99,445.02 997.05,439.257C1006.84,432.256 1009.87,423.224 1002.42,423.224C997.823,423.224 993.189,419.16 990.234,412.538C984.226,399.077 985.403,383.986 994.42,358.881C1003.58,333.381 1004.6,328.679 1004.63,311.625C1004.66,297.836 1004.31,295.451 1001.18,287.891C999.258,283.268 995.366,276.386 992.527,272.597L987.366,265.706L993.993,260.216C1014.23,243.453 1010.09,216.018 985.73,205.447C978.278,202.214 976.416,201.928 963.358,202.016C955.524,202.069 943.578,203.099 936.812,204.307C929.913,205.538 918.237,206.527 910.227,206.56C897.502,206.611 895.342,206.297 890.438,203.687C885.325,200.965 884.448,199.673 883.447,193.382C883.241,192.089 882.337,190.799 881.438,190.515C879.699,189.967 871.667,196.938 870.48,200.025C869.894,201.549 869.417,201.443 867.699,199.412C866.558,198.063 864.966,194.963 864.16,192.524C862.133,186.388 864.622,181.789 871.834,178.343L877.429,175.669L874.129,173.621C867.321,169.396 855.744,172.287 851.557,179.256C850.373,181.228 849.081,182.844 848.687,182.849C848.292,182.852 846.041,180.972 843.684,178.669C834.894,170.08 837.918,157.372 849.675,153.492C855.945,151.423 861.493,153.001 862.647,157.182C864.41,163.565 869.888,155.175 868.906,147.598C868.252,142.561 868.35,142.386 871.836,142.386C876.683,142.386 887.001,148.748 890.192,153.705C893.898,159.462 893.629,168.528 889.55,175.285L886.347,180.591L890.537,179.752C896.68,178.521 902.649,174.706 905.668,170.08C908.86,165.188 909.203,155.664 906.372,150.525C903.629,145.544 903.944,144.753 907.999,146.436C914.896,149.299 918.583,152.456 921.349,157.867C923.84,162.74 923.979,163.951 922.63,169.023C921.798,172.152 919.947,176.269 918.517,178.172C916.289,181.134 916.213,181.631 917.988,181.631C921.293,181.631 928.194,178.503 930.646,175.894C931.884,174.575 933.69,171.33 934.658,168.681L936.419,163.865L938.442,167.536C941.303,172.727 946.864,177.398 953.646,180.306C960.939,183.432 963.976,183.608 960.162,180.684C957.59,178.711 952.851,164.806 954.287,163.446C955.133,162.645 965.034,170.264 976.34,180.414C987.035,190.015 993.755,193.16 1003.58,193.16C1016.13,193.16 1023.43,182.237 1017.79,171.909C1014.5,165.887 1007.18,165.051 1002.9,170.208C1000.93,172.579 1000.39,174.465 1000.96,176.953C1001.67,180 1001.39,180.406 998.618,180.406C994.971,180.406 987.781,175.739 975.012,165.085C955.541,148.837 931.882,135.065 914.798,130.035C903.835,126.806 880.415,125.546 869.27,127.585C857.208,129.792 842.941,136.695 835.169,144.084C821.397,157.178 821.178,174.602 834.588,190.469L838.429,195.015L835.828,199.054C832.045,204.931 832.369,212.839 836.632,218.664C838.509,221.23 840.403,223.328 840.84,223.326C841.277,223.325 841.757,221.676 841.905,219.661C842.282,214.564 844.469,211.15 848.224,209.798C851.605,208.58 853.791,209.155 869.275,215.335C885.564,221.837 912.352,222.284 940.836,216.529C954.8,213.708 971.266,213.874 978.51,216.909C991.789,222.472 994.867,236.945 985.105,247.931C980.88,252.687 976.804,254.623 963.122,258.379C952.71,261.236 950.244,261.426 926.579,261.19C906.361,260.988 899.095,261.376 890.842,263.099C881.882,264.97 876.371,265.159 850.052,264.495L819.621,263.728L822.996,266.523C824.852,268.06 827.474,269.95 828.823,270.725C831.118,272.042 831.042,272.219 827.63,273.484C825.625,274.227 821.175,274.836 817.742,274.836L811.498,274.836L810.658,280.141C810.196,283.06 810.231,286.467 810.736,287.712C811.48,289.55 811.203,289.814 809.266,289.11C807.953,288.633 804.296,287.694 801.14,287.024C797.983,286.355 793.734,284.99 791.698,283.993C788.273,282.316 787.892,282.361 786.631,284.593C785.504,286.587 774.929,294.457 773.377,294.457C773.126,294.457 772.803,292.94 772.658,291.085C772.514,289.23 770.988,284.401 769.268,280.354C767.548,276.307 765.752,271.892 765.277,270.543C764.56,268.508 764.236,268.404 763.371,269.93C762.798,270.942 761.962,273.701 761.512,276.062C761.063,278.422 759.469,282.257 757.971,284.584L755.247,288.814L753.509,285.197C751.644,281.314 748.548,277.288 747.427,277.288C747.049,277.288 746.404,278.53 745.995,280.047C745.14,283.216 737.798,292.004 736.005,292.004C735.344,292.004 734.804,289.521 734.804,286.486C734.804,283.45 734.221,280.967 733.509,280.967C732.797,280.967 732.214,281.752 732.214,282.712C732.214,285.046 725.944,292.004 723.841,292.004C722.923,292.004 721.447,292.832 720.56,293.844C718.248,296.482 716.357,296.112 717.329,293.211C717.785,291.852 717.488,288.679 716.67,286.16C715.853,283.641 714.983,280.96 714.738,280.202C714.429,279.248 712.182,279.501 707.426,281.026C699.741,283.49 697.165,283.054 701.118,279.958C702.562,278.827 704.76,274.907 706.001,271.248C707.243,267.589 709.074,264.342 710.071,264.033C711.467,263.6 711.393,264.135 709.747,266.36C708.572,267.949 707.607,270.092 707.603,271.122C707.603,272.153 706.714,274.595 705.637,276.55C704.56,278.506 703.884,280.299 704.133,280.535C704.383,280.771 707.307,279.66 710.631,278.067L716.675,275.169L716.7,277.761C716.714,279.187 717.442,282.949 718.318,286.12L719.912,291.887L724.026,289.996C728.231,288.063 732.214,281.174 732.214,275.832C732.214,273.191 733.726,273.597 734.346,276.403C734.528,277.227 735.477,280.318 736.456,283.272L738.235,288.644L741.052,285.253C742.602,283.387 744.544,279.728 745.368,277.122C746.8,272.596 749.048,270.651 749.048,273.937C749.048,276.305 755.51,284.798 756.757,284.068C757.359,283.715 758.559,280.528 759.423,276.985C761.219,269.616 764.118,264.605 765.96,265.683C766.652,266.088 766.922,266.875 766.559,267.431C766.196,267.987 767.684,272.778 769.866,278.077C772.049,283.376 774.24,288.711 774.736,289.933C775.533,291.896 776.253,291.611 780.93,287.48C783.841,284.909 786.484,282.032 786.802,281.085C787.283,279.654 787.932,279.706 790.654,281.395C794.461,283.758 807.259,287.564 808.247,286.628C808.617,286.277 808.997,282.916 809.091,279.158L809.261,272.326L812.941,273.09C814.966,273.509 819.222,273.483 822.4,273.032L828.178,272.211L823.029,268.679C820.196,266.736 817.333,264.221 816.665,263.091C815.954,261.887 813.433,260.865 810.578,260.622C802.863,259.967 789.19,252.298 789.19,248.626C789.19,247.937 791.083,249.109 793.398,251.231C798.533,255.937 805.667,258.891 811.897,258.891L816.559,258.891L813.675,255.056C812.019,252.852 810.533,248.672 810.184,245.234C809.628,239.753 809.049,238.881 803.326,234.903C799.888,232.513 795.63,228.931 793.864,226.943L790.652,223.328L789.013,227.62C788.112,229.98 787.01,231.912 786.565,231.912C786.12,231.912 784.388,230.532 782.715,228.846C781.042,227.16 779.338,225.786 778.928,225.794C778.518,225.801 777.036,228.073 775.635,230.841L773.088,235.875L771.12,232.974C770.037,231.378 767.48,228.555 765.437,226.7C763.394,224.845 762.319,223.327 763.049,223.327C763.779,223.327 766.3,225.26 768.652,227.621L772.929,231.915L774.669,228.769C775.702,226.902 776.089,224.035 775.621,221.716C774.939,218.336 775.035,218.14 776.331,220.261C777.155,221.61 779.657,224.197 781.891,226.009L785.952,229.303L788.755,224.169C791.545,219.06 791.564,219.05 792.833,222.101C794.531,226.181 806.813,236.25 817.27,242.133C818.882,243.04 818.203,239.922 815.226,232.752C814.438,230.853 813.793,227.43 813.793,225.145C813.793,221.755 812.815,220.246 808.479,216.947C802.22,212.184 800.196,208.797 799.016,201.112C798.538,197.999 797.443,194.537 796.582,193.418C795.304,191.759 795.093,192.688 795.435,198.465C795.665,202.359 795.159,207.201 794.31,209.224L792.765,212.903L791.571,209.837C790.915,208.151 788.011,205.218 785.118,203.321C782.225,201.423 780.195,199.551 780.606,199.162C781.017,198.772 783.993,200.502 787.219,203.005C792.134,206.819 793.217,207.232 793.897,205.552C794.697,203.579 793.896,194.99 792.351,188.989C791.58,185.993 791.648,186.009 795.345,189.705C798.071,192.431 799.579,195.683 800.747,201.355C802.231,208.562 802.979,209.762 809.643,215.613C813.645,219.127 817.127,221.804 817.382,221.563C817.637,221.322 818.142,212.233 818.504,201.364C819.2,180.523 818.414,175.564 813.395,169.125L810.816,165.817L814.87,161.444C820.158,155.739 822.587,151.167 823.64,144.929L824.497,139.854L819.922,144.187C816.175,147.735 814.386,148.52 810.047,148.52C805.751,148.52 804.072,147.8 801.177,144.715C797.703,141.013 791.548,137.451 785.628,135.718C783.441,135.077 782.714,135.356 782.714,136.836C782.714,137.92 781.507,141.049 780.03,143.789L777.346,148.772L771.722,143.214C768.273,139.804 764.179,137.15 761.133,136.349C753.353,134.303 752.931,134.506 752.931,140.303C752.931,149.096 749.177,150.734 742.42,144.89C737.269,140.435 732.997,139.466 723.229,140.539L715.686,141.369L717.043,144.774C718.177,147.619 717.921,148.817 715.492,152.047C711.552,157.287 706.43,159.557 698.544,159.557C694.912,159.557 690.367,160.309 688.444,161.227C686.521,162.146 681.743,163.204 677.825,163.579C673.908,163.954 669.733,164.623 668.547,165.066C666.692,165.759 666.488,165.188 667.086,160.968C668.001,154.51 663.489,149.746 656.459,149.746C647.337,149.746 643.13,157.905 646.702,168.668C647.39,170.739 648.289,174.006 648.701,175.927C649.129,177.92 653.237,183.21 658.27,188.245C663.121,193.099 667.705,198.149 668.458,199.468C669.211,200.787 671.699,202.904 673.987,204.172L678.148,206.478L677.599,202.026C676.996,197.133 678.062,196.366 680.665,199.818C681.596,201.053 683.96,203.048 685.918,204.252C689.004,206.148 689.479,206.187 689.479,204.54C689.479,203.495 690.108,201.086 690.877,199.187L692.275,195.735L694.7,200.432C696.033,203.015 700.371,208.887 704.339,213.48C712.037,222.392 716.728,232.351 714.307,234.643C713.325,235.573 710.671,235.501 705.169,234.395C700.905,233.538 695.63,233.085 693.447,233.388C688.99,234.008 688.639,233.432 691.38,230C694.273,226.377 693.813,225.78 688.13,225.78C681.554,225.78 665.229,222.628 658.962,220.148C652.868,217.737 651.462,218.337 649.669,224.117C648.861,226.718 647.383,231.431 646.384,234.591L644.568,240.335L651.16,239.7C654.786,239.351 659.45,238.557 661.524,237.936C663.599,237.315 665.484,236.985 665.713,237.202C665.943,237.42 665.019,239.665 663.659,242.19L661.187,246.783L665.297,245.945C667.558,245.484 670.959,244.356 672.856,243.439C676.155,241.843 676.42,241.958 679.023,246.136C682.224,251.274 684.784,251.063 685.352,245.614C685.94,239.982 687.793,240.815 691.278,248.279C694.629,255.456 698.116,257.99 698.786,253.735C699.009,252.323 700.814,250.023 702.798,248.625C706.812,245.798 709.837,246.646 711.571,251.086C713.366,255.681 709.362,260.418 697.718,267.477C674.391,281.617 660.832,300.956 656.961,325.605C653.469,347.838 664.374,370.812 686.251,387.313C696.72,395.209 713.351,403.544 712.294,400.364C707.806,386.859 707.953,361.09 712.544,356.743C713.233,356.09 712.996,358.779 712.017,362.718C708.372,377.39 709.956,389.081 719.299,416.481C727.75,441.263 726.58,451.854 714.62,458.855C710.779,461.103 708.305,461.474 697.977,461.348C686.77,461.212 685.549,461.438 681.951,464.305C678.463,467.085 673.94,476.211 673.94,480.47C673.94,482.777 676.502,482.472 681.537,479.565L681.54,479.56Z" style="fill:rgb(255,190,41);fill-rule:nonzero;"/>
        <path d="M863.45,479.06L868.151,476.039L871.341,479.06C875.521,483.018 880.417,482.93 884.435,478.823C886.189,477.031 887.764,475.79 887.935,476.064C888.106,476.338 888.888,477.667 889.672,479.016C890.666,480.723 892.708,481.582 896.395,481.842C900.836,482.155 902.029,481.725 903.794,479.174L905.898,476.133L910.525,479.108C923.194,487.25 929.945,478.707 924.283,461.697C921.404,453.047 922.987,448.185 932.266,437.176C936.179,432.533 939.384,427.578 939.388,426.165C939.388,423.911 938.664,423.609 933.456,423.712C928.473,423.811 927.015,423.276 924.392,420.389C920.126,415.692 920.379,410.314 925.148,404.345L928.958,399.576L922.199,394.989C918.481,392.466 911.777,386.497 907.3,381.724C897.246,371.005 887.361,365.922 874.325,364.769L865.584,363.996L865.597,370.612C865.614,379.129 869.611,387.322 880.521,401.2C892.926,416.979 893.792,419.422 894.295,440.046L894.72,457.488L891.13,460.894C887.887,463.971 886.424,464.364 875.957,464.967C865.993,465.542 863.899,466.056 860.975,468.646C857.092,472.087 855.93,473.958 854.731,478.709C854.032,481.478 854.316,482.082 856.314,482.082C857.652,482.082 860.863,480.722 863.449,479.06L863.45,479.06Z" style="fill:rgb(255,190,41);fill-rule:nonzero;"/>
        <path d="M596.82,433.98C597.929,432.481 598.836,430.06 598.836,428.601C598.836,426.395 599.821,425.807 604.667,425.119L610.499,424.291L606.61,421.191C601.989,417.509 601.562,414.633 605.634,414.627C609.69,414.627 616.559,410.415 617.603,407.299C618.089,405.85 617.783,403.915 616.913,402.922C614.639,400.327 610.364,400.718 609.57,403.594C608.717,406.685 607.288,406.693 604.048,403.624C599.175,399.009 599.066,389.455 603.822,383.892C606.064,381.271 606.044,381.099 603.186,378.392C600.111,375.48 597.916,369.717 599.36,368.349C599.82,367.914 602.249,368.26 604.758,369.12C608.323,370.341 609.731,370.36 611.2,369.205C615.65,365.707 610.829,361.21 603.693,362.202C600.821,362.601 599.635,362.202 599.223,360.712C598.911,359.583 596.399,358.107 593.569,357.392C588.512,356.114 588.476,356.129 588.476,359.613C588.476,363.431 586.297,364.152 582.155,361.702C578.79,359.712 575.527,361.257 575.527,364.841C575.527,368.184 578.889,369.833 584.915,369.445C589.537,369.147 589.709,372.584 585.319,377.524L582.163,381.077L584.663,384.67C588.367,389.991 588.055,398.828 584.009,403.217L580.837,406.658L578.756,403.898C575.864,400.064 571.908,400.321 570.824,404.414C570.113,407.094 570.701,408.319 574.057,411.159C576.312,413.067 579.605,414.629 581.375,414.629C585.753,414.629 585.582,418.072 581.03,421.551L577.469,424.272L582.973,425.126C586,425.596 588.476,426.479 588.476,427.089C588.476,429.428 592.29,436.704 593.516,436.704C594.225,436.704 595.711,435.477 596.82,433.978L596.82,433.98Z" style="fill:rgb(255,190,41);fill-rule:nonzero;"/>
        <path d="M668.48,402.92C673.48,400.949 684.301,391.786 684.301,389.522C684.301,388.81 681.314,385.525 677.664,382.222C669.981,375.271 661.625,363.565 659.46,356.721C658.331,353.152 652.875,347.043 637.509,332.14L617.061,312.308L611.167,313.801C607.926,314.622 603.971,315.313 602.379,315.338C599.635,315.379 599.684,315.537 603.333,318.36L607.181,321.339L612.577,318.344C617.808,315.441 617.994,315.423 618.639,317.759C619.017,319.127 618.202,321.497 616.756,323.238C615.354,324.926 614.555,326.841 614.981,327.493C615.407,328.145 614.06,329.509 611.988,330.524C608.149,332.404 605.483,338.594 608.514,338.594C611.24,338.594 617.251,331.177 616.558,328.669C616.203,327.384 616.375,326.063 616.939,325.732C619.281,324.362 619.134,330.185 616.756,333.049C615.354,334.737 614.555,336.651 614.981,337.304C615.407,337.956 614.06,339.32 611.988,340.334C608.173,342.203 605.482,348.405 608.485,348.405C611.429,348.405 617.342,341.318 616.61,338.666C616.227,337.279 616.375,335.874 616.939,335.543C618.516,334.62 619.367,339.217 618.036,341.47C617.323,342.676 617.329,344.323 618.053,345.629C619.362,347.996 618.034,352.54 615.621,353.953C614.586,354.558 615.287,355.746 617.796,357.641C621.427,360.383 621.498,360.671 621.498,372.771C621.498,382.883 621.906,385.493 623.764,387.253C625.849,389.229 626.03,389.236 626.03,387.342C626.03,385.273 629.662,382.743 632.633,382.743C633.509,382.743 638.984,387.384 644.8,393.055C650.651,398.761 656.773,403.616 658.507,403.925C660.23,404.233 662.095,404.559 662.652,404.651C663.209,404.743 665.832,403.964 668.48,402.921L668.48,402.92Z" style="fill:rgb(255,190,41);fill-rule:nonzero;"/>
        <path d="M605.96,354C605.96,350.74 599.236,347.261 591.193,346.359C584.7,345.63 584.593,345.671 584.593,348.915C584.593,351.6 585.615,352.656 590.097,354.608C597.299,357.744 605.96,357.412 605.96,354Z" style="fill:rgb(255,190,41);fill-rule:nonzero;"/>
        <path d="M613.33,353.7C616.61,350.724 618.164,347.184 616.191,347.184C613.921,347.184 607.898,352.59 607.898,354.626C607.898,357.805 609.016,357.614 613.33,353.7Z" style="fill:rgb(255,190,41);fill-rule:nonzero;"/>
        <path d="M606.34,344.06C606.618,342.221 605.48,340.993 602.07,339.453C594.715,336.131 585.92,334.593 583.802,336.257C579.901,339.324 582.501,343.44 588.805,344.181C591.343,344.479 594.785,345.253 596.453,345.901C601.299,347.783 605.907,346.925 606.34,344.06Z" style="fill:rgb(255,190,41);fill-rule:nonzero;"/>
        <path d="M606.34,334.21C606.736,331.586 605.058,330.647 591.362,325.827C581.137,322.228 576.61,323.925 579.878,330.132C581.016,332.295 582.927,333.283 587.212,333.924C590.399,334.402 594.755,335.335 596.891,335.998C602.599,337.77 605.897,337.146 606.34,334.21Z" style="fill:rgb(255,190,41);fill-rule:nonzero;"/>
        <path d="M613.2,324.98C615.267,322.885 616.957,320.413 616.957,319.486C616.957,316.48 608.796,321.799 607.756,325.482C606.508,329.901 608.531,329.715 613.2,324.98Z" style="fill:rgb(255,190,41);fill-rule:nonzero;"/>
        <path d="M606.34,324.36C606.791,321.371 601.82,318.672 592.046,316.598C584.875,315.076 581.712,315.939 582.249,319.271C582.542,321.091 584.93,322.42 591.706,324.534C602.549,327.918 605.81,327.879 606.34,324.36Z" style="fill:rgb(255,190,41);fill-rule:nonzero;"/>
        <path d="M615.9,310.45C628.425,304.875 629.508,290.815 617.698,287.124C612.794,285.591 609.664,286.417 607.786,289.739C606.349,292.282 607.31,296.906 609.276,296.906C609.94,296.906 610.484,297.762 610.484,298.808C610.484,303.69 591.361,305.902 583.519,301.927C580.764,300.531 579.564,296.906 581.857,296.906C583.571,296.906 584.755,293.213 583.88,290.6C582.687,287.041 579.1,285.808 573.897,287.169C562.157,290.239 562.487,304.034 574.44,309.888C584.241,314.688 605.727,314.98 615.9,310.451L615.9,310.45Z" style="fill:rgb(255,190,41);fill-rule:nonzero;"/>
        <path d="M608.11,299.64C608.835,298.953 608.52,297.898 607.304,296.942C604.641,294.849 604.783,291.736 607.704,288.173C609.897,285.497 610.171,281.493 610.926,241.099C612.227,171.488 617.404,119.129 624.226,106.569C626.943,101.568 626.562,101.548 619.543,106.324C610.501,112.476 603.617,120.487 597.517,131.955C586.001,153.606 581.999,182.735 581.999,244.915C581.999,280.22 582.239,284.839 584.25,288.158C586.16,291.31 586.262,292.474 584.92,295.841C584.05,298.024 583.656,300.109 584.043,300.476C586.614,302.911 605.345,302.265 608.11,299.646L608.11,299.64Z" style="fill:rgb(255,190,41);fill-rule:nonzero;"/>
        <path d="M713.34,233.26C713.732,232.659 712.865,229.624 711.414,226.515C709.15,221.668 708.238,220.863 705.014,220.863C694.912,220.863 678.673,216.349 661.931,208.887C652.263,204.578 648.924,203.588 647.765,204.686C644.807,207.487 649.723,214.137 657.336,217.632C664.09,220.732 682.971,224.542 691.584,224.542C696.581,224.542 696.699,224.768 693.855,228.878L691.764,231.901L697.416,232.046C700.525,232.126 704.817,232.612 706.954,233.127C712.503,234.464 712.555,234.465 713.341,233.26L713.34,233.26Z" style="fill:rgb(255,190,41);fill-rule:nonzero;"/>
        <path d="M772.35,264.63C772.35,262.831 767.066,257.955 761.712,254.813C757.507,252.346 756.813,252.271 756.803,254.283C756.789,257.338 754.072,265.014 753.005,265.014C752.404,265.014 751.514,263.514 751.028,261.681C750.542,259.848 748.504,256.235 746.499,253.652L742.853,248.957L740.014,253.307C737.367,257.363 732.782,261.335 730.747,261.335C730.261,261.335 730.166,259.199 730.536,256.588C730.938,253.752 730.628,251.502 729.765,250.997C728.972,250.533 728.322,250.695 728.322,251.358C728.322,252.886 721.955,260.109 720.608,260.109C720.053,260.109 719.276,258.039 718.881,255.51C718.487,252.98 717.816,248.979 717.39,246.619C716.965,244.258 717.872,245.859 719.405,250.176L722.194,258.026L725.252,253.242C726.933,250.611 728.312,247.736 728.316,246.853C728.316,245.97 728.888,245.579 729.58,245.983C730.271,246.388 731.234,249.551 731.719,253.012L732.6,259.304L735.965,255.615C737.815,253.586 739.984,250.87 740.783,249.579C742.21,247.275 742.291,247.277 745.13,249.685C746.72,251.034 749.166,254.26 750.564,256.855C751.963,259.45 753.294,261.381 753.523,261.147C753.751,260.913 754.264,258.238 754.661,255.203C755.059,252.168 755.414,249.572 755.45,249.434C755.648,248.682 765.585,255.142 769.262,258.412C771.625,260.514 773.869,261.94 774.249,261.58C774.629,261.22 774.94,258.119 774.94,254.688C774.94,249.371 774.377,247.946 771.125,245.04C767.385,241.697 767.281,241.679 765.899,244.124C764.106,247.297 761.991,247.343 761.991,244.208C761.991,241.921 754.925,233.128 753.087,233.128C752.61,233.128 751.122,235.06 749.78,237.421C748.437,239.781 746.994,241.711 746.572,241.708C744.759,241.697 734.798,230.591 734.803,228.586C734.803,226.992 735.474,227.399 737.22,230.062C738.547,232.086 741.198,235.107 743.111,236.775C746.984,240.154 748.392,239.332 749.886,232.822C750.312,230.967 751.052,229.449 751.531,229.449C753.187,229.449 761.858,238.659 763.078,241.713L764.302,244.779L765.23,241.406C766.364,237.282 767.615,237.129 769.425,240.892C770.182,242.464 773.917,245.733 777.727,248.155L784.653,252.56L786.043,248.13C786.807,245.693 787.82,244.293 788.293,245.018C788.999,246.099 787.199,253.441 785.84,255.02C785.637,255.257 783.392,253.949 780.853,252.115L776.236,248.78L776.217,254.751C776.205,258.034 775.848,261.963 775.419,263.481C774.579,266.448 772.35,267.283 772.35,264.63Z" style="fill-rule:nonzero;"/>
        <path d="M737.82,217.03C729.589,210.158 728.339,208.585 728.521,205.328L728.715,201.861L729.252,205.21C729.566,207.165 731.758,210.095 734.521,212.252L739.253,215.946L742.16,212.583C743.76,210.733 745.089,208.53 745.115,207.687C745.182,205.488 745.576,205.673 751.149,210.508C756.101,214.804 756.178,214.825 756.914,212.041C757.325,210.489 757.179,207.568 756.591,205.549C754.973,199.999 755.29,199.161 757.741,202.508C758.963,204.176 760.927,206.533 762.106,207.747C764.158,209.86 764.283,209.834 765.047,207.134C765.486,205.583 765.853,202.744 765.862,200.825L765.881,197.337L770.345,202.398C774.515,207.125 774.899,207.3 776.172,205.047C776.922,203.721 777.544,200.53 777.555,197.956C777.569,194.631 777.919,193.793 778.765,195.059C780.177,197.173 779.196,202.929 776.589,207.834L774.718,211.354L772.261,207.527C769.119,202.634 768.073,202.713 766.057,207.993C764.152,212.983 762.913,213.363 761.056,209.526C759.855,207.043 759.626,207.347 758.774,212.563L757.826,218.36L752.147,213.953L746.469,209.546L743.916,212.449C742.512,214.045 741.344,216.041 741.32,216.884C741.268,218.711 739.903,218.768 737.821,217.03L737.82,217.03Z" style="fill-rule:nonzero;"/>
        <path d="M811.04,191.43C808.044,188.731 805.98,186.155 806.453,185.707C806.927,185.259 807.46,185.13 807.638,185.422C807.816,185.713 810.265,188.288 813.08,191.145C819.563,197.721 818.23,197.907 811.04,191.43Z" style="fill-rule:nonzero;"/>
        <path d="M713.51,181.35C710.785,177.665 710.973,175.223 714.29,171.229C716.688,168.343 717.783,167.951 721.969,168.483C724.655,168.824 730.433,171.196 734.81,173.755C739.866,176.71 745.095,178.69 749.145,179.182C752.652,179.608 755.521,179.769 755.521,179.539C755.521,179.309 754.065,176.936 752.284,174.265C748.056,167.921 748.201,167.241 752.97,171.041C757.865,174.942 763.721,176.083 776.806,175.685L783.199,175.491L779.49,171.825C774.303,166.698 775.899,166.238 781.627,171.209C787,175.872 786.663,176.2 775.356,177.329C770.551,177.809 765.384,177.461 761.089,176.368C754.663,174.734 754.414,174.759 755.631,176.913C756.333,178.155 757.469,179.17 758.156,179.17C758.843,179.17 759.405,179.799 759.405,180.568C759.405,182.933 745.526,180.853 738.894,177.495C723.743,169.824 721.836,169.16 718.23,170.296C716.224,170.929 714.215,172.78 713.523,174.634C711.214,180.822 719.989,185.631 723.608,180.162C724.657,178.576 724.412,177.492 722.568,175.563C720.043,172.921 720.28,172.544 723.689,173.783C726.109,174.662 726.434,180.472 724.183,182.604C721.607,185.043 715.73,184.353 713.509,181.35L713.51,181.35Z" style="fill-rule:nonzero;"/>
        <path d="M773.19,166.07C771.295,164.276 772.781,163.836 781.275,163.678C791.783,163.482 798.165,161.731 805.695,156.977C811.728,153.168 813.364,153.918 807.637,157.867C802.413,161.47 794.265,164.239 786.398,165.086C782.589,165.496 778.248,166.064 776.751,166.349C775.254,166.633 773.652,166.507 773.19,166.07Z" style="fill-rule:nonzero;"/>
    </g>
</svg>
