<?xml version="1.0" encoding="UTF-8" standalone="no"?>
<!DOCTYPE svg PUBLIC "-//W3C//DTD SVG 1.1//EN" "http://www.w3.org/Graphics/SVG/1.1/DTD/svg11.dtd">
<svg width="100%" height="100%" viewBox="0 0 900 450" version="1.1" xmlns="http://www.w3.org/2000/svg" xmlns:xlink="http://www.w3.org/1999/xlink" xml:space="preserve" xmlns:serif="http://www.serif.com/" style="fill-rule:evenodd;clip-rule:evenodd;stroke-linejoin:round;stroke-miterlimit:2;">
    <rect x="0" y="0" width="900" height="450" style="fill:rgb(0,56,168);"/>
    <rect x="0" y="225" width="900" height="225" style="fill:rgb(206,17,38);"/>
    <path d="M389.711,225L0,450L0,0" style="fill:white;fill-rule:nonzero;"/>
    <g transform="matrix(1,0,0,1,140,225)">
        <circle cx="0" cy="0" r="45" style="fill:rgb(252,209,22);"/>
        <g id="j">
            <g id="i">
                <g id="h">
                    <g transform="matrix(19,0,0,19,0,0)">
                        <path d="M-5,0L-4.692,0.308L0,0L-4.692,-0.308L-5,0Z" style="fill:rgb(252,209,22);fill-rule:nonzero;"/>
                    </g>
                    <g id="g" transform="matrix(19.2381,0,0,19.2381,0,0)">
                        <path d="M-4.418,0.582L-4.17,0.83L0,0L-4.418,0.582Z" style="fill:rgb(252,209,22);fill-rule:nonzero;"/>
                    </g>
                    <g id="g1" serif:id="g" transform="matrix(19.2381,0,0,-19.2381,0,0)">
                        <path d="M-4.418,0.582L-4.17,0.83L0,0L-4.418,0.582Z" style="fill:rgb(252,209,22);fill-rule:nonzero;"/>
                    </g>
                </g>
                <g id="h1" serif:id="h" transform="matrix(0.707107,0.707107,-0.707107,0.707107,0,0)">
                    <g transform="matrix(19,0,0,19,0,0)">
                        <path d="M-5,0L-4.692,0.308L0,0L-4.692,-0.308L-5,0Z" style="fill:rgb(252,209,22);fill-rule:nonzero;"/>
                    </g>
                    <g id="g2" serif:id="g" transform="matrix(19.2381,0,0,19.2381,0,0)">
                        <path d="M-4.418,0.582L-4.17,0.83L0,0L-4.418,0.582Z" style="fill:rgb(252,209,22);fill-rule:nonzero;"/>
                    </g>
                    <g id="g3" serif:id="g" transform="matrix(19.2381,0,0,-19.2381,0,0)">
                        <path d="M-4.418,0.582L-4.17,0.83L0,0L-4.418,0.582Z" style="fill:rgb(252,209,22);fill-rule:nonzero;"/>
                    </g>
                </g>
            </g>
            <g id="i1" serif:id="i" transform="matrix(-3.82857e-16,1,-1,-3.82857e-16,0,0)">
                <g id="h2" serif:id="h">
                    <g transform="matrix(19,0,0,19,0,0)">
                        <path d="M-5,0L-4.692,0.308L0,0L-4.692,-0.308L-5,0Z" style="fill:rgb(252,209,22);fill-rule:nonzero;"/>
                    </g>
                    <g id="g4" serif:id="g" transform="matrix(19.2381,0,0,19.2381,0,0)">
                        <path d="M-4.418,0.582L-4.17,0.83L0,0L-4.418,0.582Z" style="fill:rgb(252,209,22);fill-rule:nonzero;"/>
                    </g>
                    <g id="g5" serif:id="g" transform="matrix(19.2381,0,0,-19.2381,0,0)">
                        <path d="M-4.418,0.582L-4.17,0.83L0,0L-4.418,0.582Z" style="fill:rgb(252,209,22);fill-rule:nonzero;"/>
                    </g>
                </g>
                <g id="h3" serif:id="h" transform="matrix(0.707107,0.707107,-0.707107,0.707107,0,0)">
                    <g transform="matrix(19,0,0,19,0,0)">
                        <path d="M-5,0L-4.692,0.308L0,0L-4.692,-0.308L-5,0Z" style="fill:rgb(252,209,22);fill-rule:nonzero;"/>
                    </g>
                    <g id="g6" serif:id="g" transform="matrix(19.2381,0,0,19.2381,0,0)">
                        <path d="M-4.418,0.582L-4.17,0.83L0,0L-4.418,0.582Z" style="fill:rgb(252,209,22);fill-rule:nonzero;"/>
                    </g>
                    <g id="g7" serif:id="g" transform="matrix(19.2381,0,0,-19.2381,0,0)">
                        <path d="M-4.418,0.582L-4.17,0.83L0,0L-4.418,0.582Z" style="fill:rgb(252,209,22);fill-rule:nonzero;"/>
                    </g>
                </g>
            </g>
        </g>
        <g id="j1" serif:id="j" transform="matrix(-1,-7.65714e-16,7.65714e-16,-1,0,0)">
            <g id="i2" serif:id="i">
                <g id="h4" serif:id="h">
                    <g transform="matrix(19,0,0,19,0,0)">
                        <path d="M-5,0L-4.692,0.308L0,0L-4.692,-0.308L-5,0Z" style="fill:rgb(252,209,22);fill-rule:nonzero;"/>
                    </g>
                    <g id="g8" serif:id="g" transform="matrix(19.2381,0,0,19.2381,0,0)">
                        <path d="M-4.418,0.582L-4.17,0.83L0,0L-4.418,0.582Z" style="fill:rgb(252,209,22);fill-rule:nonzero;"/>
                    </g>
                    <g id="g9" serif:id="g" transform="matrix(19.2381,0,0,-19.2381,0,0)">
                        <path d="M-4.418,0.582L-4.17,0.83L0,0L-4.418,0.582Z" style="fill:rgb(252,209,22);fill-rule:nonzero;"/>
                    </g>
                </g>
                <g id="h5" serif:id="h" transform="matrix(0.707107,0.707107,-0.707107,0.707107,0,0)">
                    <g transform="matrix(19,0,0,19,0,0)">
                        <path d="M-5,0L-4.692,0.308L0,0L-4.692,-0.308L-5,0Z" style="fill:rgb(252,209,22);fill-rule:nonzero;"/>
                    </g>
                    <g id="g10" serif:id="g" transform="matrix(19.2381,0,0,19.2381,0,0)">
                        <path d="M-4.418,0.582L-4.17,0.83L0,0L-4.418,0.582Z" style="fill:rgb(252,209,22);fill-rule:nonzero;"/>
                    </g>
                    <g id="g11" serif:id="g" transform="matrix(19.2381,0,0,-19.2381,0,0)">
                        <path d="M-4.418,0.582L-4.17,0.83L0,0L-4.418,0.582Z" style="fill:rgb(252,209,22);fill-rule:nonzero;"/>
                    </g>
                </g>
            </g>
            <g id="i3" serif:id="i" transform="matrix(-3.82857e-16,1,-1,-3.82857e-16,0,0)">
                <g id="h6" serif:id="h">
                    <g transform="matrix(19,0,0,19,0,0)">
                        <path d="M-5,0L-4.692,0.308L0,0L-4.692,-0.308L-5,0Z" style="fill:rgb(252,209,22);fill-rule:nonzero;"/>
                    </g>
                    <g id="g12" serif:id="g" transform="matrix(19.2381,0,0,19.2381,0,0)">
                        <path d="M-4.418,0.582L-4.17,0.83L0,0L-4.418,0.582Z" style="fill:rgb(252,209,22);fill-rule:nonzero;"/>
                    </g>
                    <g id="g13" serif:id="g" transform="matrix(19.2381,0,0,-19.2381,0,0)">
                        <path d="M-4.418,0.582L-4.17,0.83L0,0L-4.418,0.582Z" style="fill:rgb(252,209,22);fill-rule:nonzero;"/>
                    </g>
                </g>
                <g id="h7" serif:id="h" transform="matrix(0.707107,0.707107,-0.707107,0.707107,0,0)">
                    <g transform="matrix(19,0,0,19,0,0)">
                        <path d="M-5,0L-4.692,0.308L0,0L-4.692,-0.308L-5,0Z" style="fill:rgb(252,209,22);fill-rule:nonzero;"/>
                    </g>
                    <g id="g14" serif:id="g" transform="matrix(19.2381,0,0,19.2381,0,0)">
                        <path d="M-4.418,0.582L-4.17,0.83L0,0L-4.418,0.582Z" style="fill:rgb(252,209,22);fill-rule:nonzero;"/>
                    </g>
                    <g id="g15" serif:id="g" transform="matrix(19.2381,0,0,-19.2381,0,0)">
                        <path d="M-4.418,0.582L-4.17,0.83L0,0L-4.418,0.582Z" style="fill:rgb(252,209,22);fill-rule:nonzero;"/>
                    </g>
                </g>
            </g>
        </g>
        <g transform="matrix(1,0,0,1,-10.0962,0)">
            <g id="s" transform="matrix(1,0,0,1,189.808,0)">
                <path id="t" d="M25,0L8.09,5.878L7.725,23.776L-3.09,9.511L-20.225,14.695L-10,0L25,0Z" style="fill:rgb(252,209,22);fill-rule:nonzero;"/>
                <g id="t1" serif:id="t" transform="matrix(1,0,0,-1,0,0)">
                    <path d="M25,0L8.09,5.878L7.725,23.776L-3.09,9.511L-20.225,14.695L-10,0L25,0Z" style="fill:rgb(252,209,22);fill-rule:nonzero;"/>
                </g>
            </g>
            <g id="s1" serif:id="s" transform="matrix(-0.5,0.866025,-0.866025,-0.5,-94.9038,164.378)">
                <path id="t2" serif:id="t" d="M25,0L8.09,5.878L7.725,23.776L-3.09,9.511L-20.225,14.695L-10,0L25,0Z" style="fill:rgb(252,209,22);fill-rule:nonzero;"/>
                <g id="t3" serif:id="t" transform="matrix(1,0,0,-1,0,0)">
                    <path d="M25,0L8.09,5.878L7.725,23.776L-3.09,9.511L-20.225,14.695L-10,0L25,0Z" style="fill:rgb(252,209,22);fill-rule:nonzero;"/>
                </g>
            </g>
            <g id="s2" serif:id="s" transform="matrix(-0.5,-0.866025,0.866025,-0.5,-94.9038,-164.378)">
                <path id="t4" serif:id="t" d="M25,0L8.09,5.878L7.725,23.776L-3.09,9.511L-20.225,14.695L-10,0L25,0Z" style="fill:rgb(252,209,22);fill-rule:nonzero;"/>
                <g id="t5" serif:id="t" transform="matrix(1,0,0,-1,0,0)">
                    <path d="M25,0L8.09,5.878L7.725,23.776L-3.09,9.511L-20.225,14.695L-10,0L25,0Z" style="fill:rgb(252,209,22);fill-rule:nonzero;"/>
                </g>
            </g>
        </g>
    </g>
</svg>
