<?xml version="1.0" encoding="UTF-8" standalone="no"?>
<!DOCTYPE svg PUBLIC "-//W3C//DTD SVG 1.1//EN" "http://www.w3.org/Graphics/SVG/1.1/DTD/svg11.dtd">
<svg width="100%" height="100%" viewBox="0 0 12500 8334" version="1.1" xmlns="http://www.w3.org/2000/svg" xmlns:xlink="http://www.w3.org/1999/xlink" xml:space="preserve" xmlns:serif="http://www.serif.com/" style="fill-rule:evenodd;clip-rule:evenodd;stroke-linejoin:round;stroke-miterlimit:2;">
    <g transform="matrix(4.16667,0,0,4.16667,0,0)">
        <rect x="0" y="0" width="3000" height="2000" style="fill:white;"/>
        <path d="M1080.52,469.389C900.048,477.043 734.957,594.897 675.873,776.734C616.79,958.579 681.087,1150.96 822.576,1263.24C774.1,1437.25 835.159,1630.66 989.849,1743.05C1144.54,1855.45 1347.37,1853.73 1497.86,1753.86C1648.37,1853.74 1851.19,1855.44 2005.9,1743.05C2160.58,1630.66 2221.64,1437.25 2173.16,1263.24C2314.65,1150.96 2378.95,958.591 2319.86,776.734C2260.78,594.897 2095.68,477.047 1915.22,469.389C1852.17,300.127 1689.07,179.531 1497.86,179.531C1306.67,179.531 1143.57,300.127 1080.52,469.389Z" style="fill:white;fill-rule:nonzero;"/>
        <path d="M1500,571.734C1675.82,571.734 1818.57,714.481 1818.57,890.305C1818.57,1066.13 1675.82,1208.88 1500,1208.88C1324.18,1208.88 1181.43,1066.13 1181.43,890.305C1181.43,714.481 1324.18,571.734 1500,571.734Z" style="fill:rgb(44,62,122);"/>
        <path d="M1499.61,1186.57L1351.03,629.303L1756.97,1037.26L1202.44,887.934L1756.97,738.614L1351.03,1146.57L1499.61,589.294L1648.2,1146.57L1242.25,738.614L1796.78,887.934L1242.25,1037.26L1648.2,629.303L1499.61,1186.57Z" style="fill:white;fill-rule:nonzero;"/>
        <path d="M1499.61,718.704C1592.55,718.704 1668.01,794.534 1668.01,887.934C1668.01,981.335 1592.55,1057.17 1499.61,1057.17C1406.67,1057.17 1331.21,981.335 1331.21,887.934C1331.21,794.534 1406.67,718.704 1499.61,718.704Z" style="fill:rgb(44,62,122);"/>
        <path d="M1499.61,738.614C1581.62,738.614 1648.2,805.522 1648.2,887.934C1648.2,970.347 1581.62,1037.26 1499.61,1037.26C1417.6,1037.26 1351.03,970.347 1351.03,887.934C1351.03,805.522 1417.6,738.614 1499.61,738.614Z" style="fill:white;"/>
        <path d="M1156.1,571.818C990,544.329 824.195,641.591 770.587,806.592C716.965,971.587 793.941,1147.74 944.481,1223.14C867.016,1372.63 908.274,1560.37 1048.63,1662.34C1189,1764.33 1380.31,1745.55 1498.53,1625.69C1616.76,1745.55 1808.07,1764.33 1948.43,1662.34C2088.79,1560.37 2130.06,1372.63 2052.58,1223.15C2203.12,1147.75 2280.09,971.595 2226.48,806.592C2172.86,641.591 2007.06,544.329 1840.95,571.818C1815.76,405.342 1672.03,277.706 1498.52,277.706C1325.04,277.706 1181.3,405.345 1156.1,571.818ZM820.298,822.746C870.477,668.317 1036.4,583.77 1190.83,633.944C1195.57,635.492 1200.24,637.127 1204.85,638.889C1204.6,633.972 1204.47,629.019 1204.47,624.032C1204.47,461.659 1336.16,329.976 1498.53,329.976C1660.91,329.976 1792.59,461.655 1792.59,624.032C1792.59,629.019 1792.47,633.96 1792.23,638.889C1796.83,637.127 1801.51,635.492 1806.23,633.944C1960.66,583.77 2126.59,668.317 2176.76,822.746C2226.94,977.182 2142.41,1143.11 1987.96,1193.29C1983.23,1194.82 1978.48,1196.23 1973.73,1197.52C1976.82,1201.35 1979.83,1205.29 1982.75,1209.31C2078.19,1340.68 2049.07,1524.61 1917.7,1620.05C1786.33,1715.5 1602.4,1686.36 1506.96,1554.99C1504.03,1550.97 1501.22,1546.89 1498.52,1542.77C1495.84,1546.89 1493.02,1550.97 1490.09,1554.99C1394.66,1686.36 1210.72,1715.5 1079.36,1620.05C947.992,1524.61 918.862,1340.68 1014.3,1209.31C1017.23,1205.29 1020.24,1201.35 1023.33,1197.52C1018.57,1196.23 1013.82,1194.82 1009.09,1193.29C854.675,1143.11 770.127,977.182 820.298,822.746Z" style="fill:rgb(239,62,56);fill-rule:nonzero;"/>
        <path d="M1081.23,468.699C900.774,476.357 735.679,594.206 676.587,776.043C617.505,957.885 681.802,1150.28 823.302,1262.55C774.818,1436.55 835.873,1629.96 990.568,1742.36C1145.25,1854.77 1348.09,1853.04 1498.58,1753.16C1649.09,1853.05 1851.91,1854.75 2006.61,1742.36C2161.3,1629.97 2222.35,1436.55 2173.86,1262.55C2315.38,1150.28 2379.66,957.905 2320.58,776.043C2261.49,594.206 2096.41,476.362 1915.94,468.699C1852.89,299.437 1689.79,178.841 1498.58,178.841C1307.39,178.841 1144.28,299.437 1081.23,468.699ZM726.31,792.198C782.358,619.73 946.429,512.492 1119.29,521.071C1164.56,354.023 1317.24,231.115 1498.58,231.115C1679.94,231.115 1832.61,354.023 1877.88,521.071C2050.74,512.492 2214.82,619.73 2270.86,792.198C2326.9,964.667 2257.19,1147.88 2112.3,1242.54C2173.86,1404.29 2122.59,1593.48 1975.88,1700.07C1829.17,1806.66 1633.37,1796.97 1498.57,1688.43C1363.77,1796.97 1168,1806.67 1021.29,1700.07C874.576,1593.48 823.282,1404.29 884.849,1242.54C739.988,1147.88 670.27,964.667 726.31,792.198Z" style="fill:rgb(44,62,122);fill-rule:nonzero;"/>
        <path d="M1417.62,1391.21C1417.62,1391.21 1459.82,1383.74 1473.64,1350.19C1473.64,1350.19 1719.36,1400.52 1574.3,1531.59C1574.3,1531.59 1628.13,1480.91 1598.07,1440.36C1598.07,1440.36 1614.85,1490.7 1549.14,1524.6C1549.14,1524.6 1691.65,1423.37 1417.62,1391.21Z" style="fill:rgb(44,62,122);fill-rule:nonzero;"/>
        <path d="M1552.25,1372.86C1569.44,1381.35 1581.47,1389.71 1588.5,1395.19C1591.59,1307.22 1528.52,1258.04 1528.52,1258.04C1526.68,1263.68 1521.17,1269.97 1513.31,1272.85C1505.45,1275.74 1500.72,1285.17 1500.72,1285.17C1531.55,1310.81 1546.36,1342.12 1552.25,1372.86Z" style="fill:rgb(44,62,122);fill-rule:nonzero;"/>
        <path d="M1467.11,1356.42C1470.84,1350.86 1471.88,1347.04 1471.88,1347.04C1488.12,1349.93 1502.7,1353.73 1515.68,1357.99C1488.75,1281.22 1438.69,1239.21 1438.69,1239.21C1437.29,1243.23 1422.61,1250.57 1412.64,1254.94C1402.68,1259.31 1405.3,1277.83 1405.3,1277.83C1432.69,1300.46 1452.6,1328.15 1467.11,1356.42Z" style="fill:rgb(44,62,122);fill-rule:nonzero;"/>
        <path d="M1570.12,1441.45C1566.73,1479.33 1544.24,1519.53 1544.24,1519.53C1560.12,1495.38 1570.97,1472.7 1577.99,1451.57C1576.02,1448 1573.37,1444.63 1570.12,1441.45Z" style="fill:rgb(44,62,122);fill-rule:nonzero;"/>
        <path d="M1567.17,1438.76C1563.47,1435.58 1559.18,1432.6 1554.44,1429.8C1550.49,1470.56 1536.9,1501.18 1536.9,1501.18C1544.77,1492.27 1550.79,1477.85 1550.79,1477.85C1551.06,1488.08 1542.67,1508.26 1542.67,1508.26C1557.1,1485.08 1564,1456.9 1567.17,1438.76Z" style="fill:rgb(44,62,122);fill-rule:nonzero;"/>
        <path d="M1481.89,1518.1C1473.15,1513.4 1460.48,1508.39 1434.45,1488.23C1454.15,1503.06 1487.06,1512.54 1487.06,1512.54C1414.41,1475.67 1398.57,1442.24 1398.57,1442.24C1391.58,1442.01 1387.36,1446.45 1384.59,1447.97C1381.82,1449.49 1374.27,1449.36 1374.27,1449.36C1401.96,1494 1481.89,1518.1 1481.89,1518.1Z" style="fill:rgb(44,62,122);fill-rule:nonzero;"/>
        <path d="M1449.39,1397.93C1425.25,1393.94 1407.53,1392.39 1407.53,1392.39C1417.17,1389.97 1425.38,1387.02 1432.4,1383.82C1398.43,1359.07 1364.58,1352.98 1364.58,1352.98C1364.58,1352.98 1358.29,1355.08 1357.42,1365.57C1356.55,1376.05 1348.51,1377.45 1348.51,1377.45C1475.39,1411.35 1494.43,1515.86 1494.43,1515.86C1485.78,1468.68 1467.43,1438.53 1467.43,1438.53C1486.83,1458.45 1500.2,1509.05 1500.2,1509.05C1495.89,1456.75 1474.21,1421.49 1449.39,1397.93Z" style="fill:rgb(44,62,122);fill-rule:nonzero;"/>
        <path d="M1487.36,1405.49C1505.63,1461.85 1505.97,1509.57 1505.97,1509.57C1519.49,1483.36 1515.93,1423.06 1515.93,1423.06C1528.51,1447.7 1526.94,1514.82 1526.94,1514.82C1533.39,1479.55 1533.64,1447.3 1529.94,1418.28C1516.54,1413.14 1501.82,1408.92 1487.36,1405.49Z" style="fill:rgb(44,62,122);fill-rule:nonzero;"/>
    </g>
</svg>
