<svg width="24" height="25" viewBox="0 0 24 25" fill="none" xmlns="http://www.w3.org/2000/svg">
<g id="ic:outline-palette">
<path id="Vector" d="M12 22.5C6.49 22.5 2 18.01 2 12.5C2 6.99 6.49 2.5 12 2.5C17.51 2.5 22 6.54 22 11.5C22 14.81 19.31 17.5 16 17.5H14.23C13.95 17.5 13.73 17.72 13.73 18C13.73 18.12 13.78 18.23 13.86 18.33C14.27 18.8 14.5 19.39 14.5 20C14.5 20.663 14.2366 21.2989 13.7678 21.7678C13.2989 22.2366 12.663 22.5 12 22.5ZM12 4.5C7.59 4.5 4 8.09 4 12.5C4 16.91 7.59 20.5 12 20.5C12.28 20.5 12.5 20.28 12.5 20C12.4969 19.8703 12.4472 19.7461 12.36 19.65C11.95 19.19 11.73 18.6 11.73 18C11.73 17.337 11.9934 16.7011 12.4622 16.2322C12.9311 15.7634 13.567 15.5 14.23 15.5H16C18.21 15.5 20 13.71 20 11.5C20 7.64 16.41 4.5 12 4.5Z" fill="#C8E14B"/>
<path id="Vector_2" d="M6.5 13.5C7.32843 13.5 8 12.8284 8 12C8 11.1716 7.32843 10.5 6.5 10.5C5.67157 10.5 5 11.1716 5 12C5 12.8284 5.67157 13.5 6.5 13.5Z" fill="#C8E14B"/>
<path id="Vector_3" d="M9.5 9.5C10.3284 9.5 11 8.82843 11 8C11 7.17157 10.3284 6.5 9.5 6.5C8.67157 6.5 8 7.17157 8 8C8 8.82843 8.67157 9.5 9.5 9.5Z" fill="#C8E14B"/>
<path id="Vector_4" d="M14.5 9.5C15.3284 9.5 16 8.82843 16 8C16 7.17157 15.3284 6.5 14.5 6.5C13.6716 6.5 13 7.17157 13 8C13 8.82843 13.6716 9.5 14.5 9.5Z" fill="#C8E14B"/>
<path id="Vector_5" d="M17.5 13.5C18.3284 13.5 19 12.8284 19 12C19 11.1716 18.3284 10.5 17.5 10.5C16.6716 10.5 16 11.1716 16 12C16 12.8284 16.6716 13.5 17.5 13.5Z" fill="#C8E14B"/>
</g>
</svg>
