<?xml version="1.0" encoding="UTF-8"?>
<svg id="Layer_1" data-name="Layer 1" xmlns="http://www.w3.org/2000/svg" viewBox="0 0 113.39 113.39">
  <defs>
    <style>
      .cls-1 {
        fill: #fff;
      }

      .cls-2 {
        fill: #c7d652;
      }

      .cls-3 {
        fill: #18475b;
      }
    </style>
  </defs>
  <rect class="cls-1" width="113.39" height="113.39"/>
  <path class="cls-3" d="M108.39,5V108.39H5V5H108.39M113.39,0H0V113.39H113.39V0h0Z"/>
  <path class="cls-3" d="M15.57,13.17s-4.7,11.11,.85,16.66l7.37,7.37c.73,.73,1.86,.89,2.77,.39l8.66-4.76,4.76-8.66c.5-.91,.34-2.04-.4-2.78l-7.37-7.37c-5.55-5.55-16.65-.85-16.65-.85Z"/>
  <path class="cls-1" d="M25.45,38.38c-.74,0-1.47-.28-2.01-.83l-7.37-7.37c-2.38-2.38-3.3-6.13-2.65-10.83,.49-3.5,1.64-6.26,1.69-6.37l.08-.19,.19-.08c.12-.05,2.88-1.21,6.37-1.69,4.7-.65,8.45,.26,10.83,2.65l7.37,7.37c.89,.88,1.08,2.27,.48,3.37l-4.83,8.79-8.79,4.83c-.42,.23-.89,.35-1.36,.35ZM15.96,13.55c-.57,1.47-4.04,11.06,.82,15.92l7.37,7.37c.57,.57,1.47,.7,2.18,.31l8.54-4.69,4.69-8.54c.39-.71,.26-1.61-.31-2.18l-7.37-7.37c-4.86-4.86-14.45-1.39-15.92-.82Z"/>
  <path class="cls-3" d="M27.33,25.05h0c-.84,.84-.84,2.21,0,3.05l23.49,24.23,3.79-3.79L30.39,25.05c-.84-.84-2.21-.84-3.05,0Z"/>
  <path class="cls-1" d="M50.82,53.04L26.98,28.45c-.5-.5-.77-1.16-.77-1.87s.28-1.38,.78-1.88c1.04-1.04,2.72-1.04,3.76,0l24.59,23.83-4.51,4.51ZM28.86,24.92c-.42,0-.85,.16-1.17,.48h0c-.31,.31-.49,.73-.49,1.17s.17,.86,.49,1.17l23.14,23.87,3.07-3.07L30.04,25.41c-.33-.33-.75-.49-1.18-.49Z"/>
  <rect class="cls-3" x="47.67" y="28.99" width="36.08" height="16.41"/>
  <path class="cls-1" d="M84.25,45.9H47.17V28.49h37.08v17.41Zm-36.08-1h35.08v-15.41H48.17v15.41Z"/>
  <rect class="cls-3" x="83.75" y="28.99" width="18.04" height="16.41"/>
  <path class="cls-1" d="M102.3,45.9h-19.04V28.49h19.04v17.41Zm-18.04-1h17.04v-15.41h-17.04v15.41Z"/>
  <rect class="cls-3" x="11.59" y="45.4" width="18.04" height="16.41"/>
  <path class="cls-1" d="M30.13,62.31H11.09v-17.41H30.13v17.41Zm-18.04-1H29.13v-15.41H12.09v15.41Z"/>
  <rect class="cls-3" x="29.63" y="45.4" width="36.08" height="16.41"/>
  <path class="cls-1" d="M66.21,62.31H29.13v-17.41h37.08v17.41Zm-36.08-1h35.08v-15.41H30.13v15.41Z"/>
  <rect class="cls-3" x="65.71" y="45.4" width="36.08" height="16.41"/>
  <path class="cls-1" d="M102.3,62.31h-37.08v-17.41h37.08v17.41Zm-36.08-1h35.08v-15.41h-35.08v15.41Z"/>
  <rect class="cls-3" x="11.59" y="61.81" width="36.08" height="16.41"/>
  <path class="cls-1" d="M48.17,78.72H11.09v-17.41H48.17v17.41Zm-36.08-1H47.17v-15.41H12.09v15.41Z"/>
  <rect class="cls-3" x="47.67" y="61.81" width="36.08" height="16.41"/>
  <path class="cls-1" d="M84.25,78.72H47.17v-17.41h37.08v17.41Zm-36.08-1h35.08v-15.41H48.17v15.41Z"/>
  <rect class="cls-3" x="83.75" y="61.81" width="18.04" height="16.41"/>
  <path class="cls-1" d="M102.3,78.72h-19.04v-17.41h19.04v17.41Zm-18.04-1h17.04v-15.41h-17.04v15.41Z"/>
  <rect class="cls-3" x="11.59" y="78.22" width="18.04" height="16.41"/>
  <path class="cls-1" d="M30.13,95.14H11.09v-17.41H30.13v17.41Zm-18.04-1H29.13v-15.41H12.09v15.41Z"/>
  <rect class="cls-3" x="29.63" y="78.22" width="36.08" height="16.41"/>
  <path class="cls-1" d="M66.21,95.14H29.13v-17.41h37.08v17.41Zm-36.08-1h35.08v-15.41H30.13v15.41Z"/>
  <rect class="cls-3" x="65.71" y="78.22" width="36.08" height="16.41"/>
  <path class="cls-1" d="M102.3,95.14h-37.08v-17.41h37.08v17.41Zm-36.08-1h35.08v-15.41h-35.08v15.41Z"/>
  <rect class="cls-1" x="79.77" y="76.76" width="9.34" height="16.82"/>
  <path class="cls-1" d="M89.61,94.08h-10.34v-17.82h10.34v17.82Zm-9.34-1h8.34v-15.82h-8.34v15.82Z"/>
  <polygon class="cls-2" points="72.29 99.92 89.11 102.08 89.11 89.86 85.41 89.04 89.11 88.39 89.11 78.22 85.41 77.75 89.11 76.76 89.11 70.21 72.29 72.37 72.29 99.92"/>
  <path class="cls-1" d="M89.11,102.58s-.04,0-.06,0l-16.82-2.16c-.25-.03-.44-.24-.44-.5v-27.55c0-.25,.19-.46,.44-.5l16.82-2.16c.14-.02,.29,.03,.39,.12,.11,.09,.17,.23,.17,.38v6.55c0,.23-.15,.42-.37,.48l-1.25,.33,1.18,.15c.25,.03,.44,.24,.44,.5v10.17c0,.24-.17,.45-.41,.49l-1.21,.21,1.23,.27c.23,.05,.39,.25,.39,.49v12.22c0,.14-.06,.28-.17,.38-.09,.08-.21,.12-.33,.12Zm-16.32-3.1l15.82,2.03v-11.25l-3.31-.73c-.23-.05-.4-.26-.39-.5,0-.24,.18-.44,.41-.48l3.28-.57v-9.31l-3.26-.42c-.24-.03-.42-.22-.44-.46-.02-.24,.14-.45,.37-.52l3.33-.89v-5.6l-15.82,2.03v26.68Z"/>
  <rect class="cls-3" x="67.67" y="72.41" width="4.62" height="27.46"/>
  <path class="cls-1" d="M72.29,100.37h-4.62c-.28,0-.5-.22-.5-.5v-27.46c0-.28,.22-.5,.5-.5h4.62c.13,0,.26,.05,.35,.15s.15,.22,.15,.35v27.46c0,.28-.22,.5-.5,.5Zm-4.12-1h3.62v-26.46s-3.62,0-3.62,0v26.46Z"/>
  <path class="cls-3" d="M65.42,72.41c-1.38,0-2.71,.54-3.71,1.51l-3.69,3.59c-1.03,1-1.61,2.37-1.61,3.81v2.34c-9.23-.15-12.24-1.58-16.59-1.58-4.59,0-4.29,4.07-4.29,4.07,0,0-.31,4.07,4.29,4.07,4.35,0,7.36-1.43,16.59-1.58v2.34c0,1.43,.58,2.81,1.61,3.81l3.69,3.59c.99,.97,2.32,1.51,3.71,1.51h2.24v-27.46h-2.24Z"/>
  <path class="cls-1" d="M67.67,100.37h-2.24c-1.53,0-2.97-.59-4.06-1.65l-3.69-3.59c-1.12-1.09-1.76-2.61-1.76-4.16v-1.83c-5.02,.11-8.15,.61-10.68,1.01-1.9,.3-3.55,.56-5.41,.56-1.59,0-2.83-.46-3.67-1.36-1.16-1.25-1.13-2.92-1.12-3.2-.01-.28-.04-1.95,1.12-3.21,.84-.9,2.07-1.36,3.67-1.36,1.87,0,3.51,.26,5.41,.56,2.53,.4,5.66,.9,10.68,1.01v-1.83c0-1.56,.64-3.08,1.76-4.16l3.69-3.59c1.09-1.06,2.53-1.65,4.06-1.65h2.24c.28,0,.5,.22,.5,.5v27.46c0,.28-.22,.5-.5,.5Zm-11.25-12.24c.13,0,.26,.05,.35,.14,.1,.09,.15,.22,.15,.36v2.34c0,1.29,.53,2.55,1.45,3.45l3.69,3.59c.9,.88,2.1,1.37,3.36,1.37h1.74v-26.46h-1.74c-1.26,0-2.45,.49-3.36,1.37l-3.69,3.59c-.93,.9-1.46,2.16-1.46,3.45v2.34c0,.13-.05,.26-.15,.36-.1,.09-.23,.14-.36,.14-5.39-.09-8.68-.61-11.32-1.03-1.94-.31-3.47-.55-5.26-.55-1.3,0-2.29,.35-2.93,1.04-.95,1.03-.86,2.47-.86,2.49,0,.02,0,.05,0,.07,0,.01-.09,1.47,.86,2.49,.64,.69,1.63,1.04,2.93,1.04,1.79,0,3.32-.24,5.26-.55,2.65-.42,5.94-.94,11.32-1.03h0Z"/>
  <path class="cls-1" d="M51.74,52.33h1.96v2.46h-1.99c.62,2.73,2.9,4.61,5.62,4.61v-11.58c-2.69,0-4.95,1.83-5.6,4.51Z"/>
  <path class="cls-3" d="M57.34,47.82v11.58c-2.72,0-5-1.88-5.62-4.61h1.99v-2.46h-1.96c.65-2.68,2.91-4.51,5.6-4.51m1-1h-1c-3.16,0-5.8,2.12-6.57,5.28l-.3,1.24h2.24v.46h-2.24l.28,1.22c.72,3.17,3.43,5.39,6.6,5.39h1v-13.58h0Z"/>
  <polygon class="cls-1" points="58.32 56.35 60.05 56.35 63.22 50.86 58.32 50.86 58.32 56.35"/>
  <path class="cls-3" d="M63.22,50.86l-3.17,5.49h-1.74v-5.49h4.91m1.73-1h-7.64v7.49h3.31l.29-.5,3.17-5.49,.87-1.5h0Z"/>
  <polygon class="cls-1" points="61.23 56.35 63.83 56.35 67 50.86 64.4 50.86 61.23 56.35"/>
  <path class="cls-3" d="M67,50.86l-3.17,5.49h-2.61l3.17-5.49h2.61m1.73-1h-4.91l-.29,.5-3.17,5.49-.87,1.5h4.91l.29-.5,3.17-5.49,.87-1.5h0Z"/>
  <polygon class="cls-1" points="65.01 56.35 67.42 56.35 70.59 50.86 68.17 50.86 65.01 56.35"/>
  <path class="cls-3" d="M70.59,50.86l-3.17,5.49h-2.42l3.17-5.49h2.42m1.73-1h-4.72l-.29,.5-3.17,5.49-.87,1.5h4.72l.29-.5,3.17-5.49,.87-1.5h0Z"/>
  <polygon class="cls-1" points="71.76 50.86 68.6 56.35 73.48 56.35 76.47 53.6 73.67 50.86 71.76 50.86"/>
  <path class="cls-3" d="M73.67,50.86l2.8,2.74-2.99,2.75h-4.88l3.16-5.49h1.91m.41-1h-2.89l-.29,.5-3.16,5.49-.86,1.5h6.99l.29-.26,2.99-2.75,.78-.71-.75-.74-2.8-2.74-.29-.29h0Z"/>
  <path class="cls-2" d="M19.33,102.05v-1.96h2.46v1.99c2.73-.62,4.61-2.9,4.61-5.62H14.82c0,2.69,1.83,4.95,4.51,5.6Z"/>
  <path class="cls-1" d="M26.4,96.45c0,2.72-1.88,5-4.61,5.62v-1.99h-2.46v1.96c-2.68-.65-4.51-2.91-4.51-5.6h11.58m1-1H13.82v1c0,3.16,2.12,5.8,5.27,6.57l1.24,.3v-2.24h.46v2.24l1.22-.28c3.17-.72,5.39-3.43,5.39-6.6v-1h0Z"/>
  <polygon class="cls-2" points="23.36 95.48 23.36 93.74 17.87 90.57 17.87 95.47 23.36 95.48"/>
  <path class="cls-1" d="M17.87,90.57l5.49,3.17v1.74s-5.49,0-5.49,0v-4.9m-1-1.73v7.64h1s5.49,0,5.49,0h1s0-1,0-1v-1.74s0-.58,0-.58l-.5-.29-5.49-3.17-1.5-.87h0Z"/>
  <polygon class="cls-2" points="23.36 92.57 23.36 89.96 17.87 86.79 17.87 89.4 23.36 92.57"/>
  <path class="cls-1" d="M17.87,86.79l5.49,3.17v2.61l-5.49-3.17v-2.6m-1-1.73v4.91l.5,.29,5.49,3.17,1.5,.87v-4.92l-.5-.29-5.49-3.17-1.5-.87h0Z"/>
  <polygon class="cls-2" points="23.36 88.79 23.36 86.37 17.87 83.2 17.87 85.62 23.36 88.79"/>
  <path class="cls-1" d="M17.87,83.2l5.49,3.17v2.42l-5.49-3.17v-2.42m-1-1.73v4.73l.5,.29,5.49,3.17,1.5,.87v-4.73l-.5-.29-5.49-3.17-1.5-.87h0Z"/>
  <polygon class="cls-2" points="17.87 82.03 23.36 85.19 23.36 80.32 20.61 77.32 17.87 80.13 17.87 82.03"/>
  <path class="cls-1" d="M20.61,77.32l2.75,2.99v4.87s-5.49-3.16-5.49-3.16v-1.9l2.74-2.8m.02-1.45l-.74,.75-2.74,2.8-.29,.29v2.89l.5,.29,5.49,3.16,1.5,.86v-1.73s0-4.87,0-4.87v-.39s-.26-.29-.26-.29l-2.75-2.99-.71-.78h0Z"/>
</svg>