<?xml version="1.0" encoding="UTF-8"?>
<svg id="Layer_1" data-name="Layer 1" xmlns="http://www.w3.org/2000/svg" viewBox="0 0 113.39 113.39">
  <defs>
    <style>
      .cls-1 {
        fill: #fff;
      }

      .cls-2 {
        fill: #c7d652;
      }

      .cls-3, .cls-4 {
        fill: #18475b;
      }

      .cls-4 {
        fill-rule: evenodd;
      }
    </style>
  </defs>
  <rect class="cls-1" width="113.38" height="113.38"/>
  <path class="cls-4" d="M38.68,110.66c0-.8,.59-1.47,1.38-1.56l3.05-.37,3.06-11.67h22.67l3.06,11.67,3.05,.37c.79,.1,1.38,.77,1.38,1.56H38.68Z"/>
  <path class="cls-1" d="M68.85,97.06l3.06,11.67,3.05,.37c.79,.1,1.38,.77,1.38,1.56H38.68c0-.8,.59-1.47,1.38-1.56l3.05-.37,3.06-11.67h22.67m.88-1.14h-24.43l-.22,.85-2.86,10.92-2.28,.28c-1.36,.17-2.38,1.33-2.38,2.69v1.14h39.93v-1.14c0-1.37-1.02-2.53-2.38-2.69l-2.28-.28-2.86-10.92-.22-.85Z"/>
  <path class="cls-4" d="M102.76,97.52H10.63c-1.2,0-2.17-.97-2.17-2.17v-6.67H104.93v6.67c0,1.2-.97,2.17-2.17,2.17"/>
  <path class="cls-1" d="M102.76,98.02H10.63c-1.47,0-2.68-1.2-2.68-2.67v-7.17H105.43v7.17c0,1.47-1.2,2.67-2.67,2.67M8.95,89.18v6.17c0,.92,.75,1.67,1.67,1.67H102.76c.92,0,1.67-.75,1.67-1.67v-6.17H8.95Z"/>
  <path class="cls-4" d="M8.45,88.68V32.42c0-1.2,.97-2.17,2.17-2.17H102.76c1.2,0,2.17,.97,2.17,2.17v56.26H8.45Z"/>
  <path class="cls-1" d="M105.43,89.18H7.95V32.42c0-1.48,1.2-2.68,2.68-2.68H102.76c1.47,0,2.67,1.2,2.67,2.68v56.76Zm-96.48-1H104.43V32.42c0-.92-.75-1.68-1.67-1.68H10.63c-.92,0-1.67,.75-1.67,1.68v55.76Z"/>
  <path class="cls-2" d="M29.09,88.68v5.9c0,6.36,4.62,10.73,10.33,10.73s10.33-4.37,10.33-10.73v-5.9c-7.95-.23-10.33-2.48-10.33-2.48,0,0-2.38,2.26-10.33,2.48"/>
  <path class="cls-1" d="M39.42,105.8c-6.17,0-10.83-4.83-10.83-11.23v-6.38h.49c7.67-.23,9.98-2.34,10-2.36l.34-.33,.34,.33s2.4,2.13,10,2.35h.49v6.4c0,6.4-4.65,11.23-10.83,11.23m-9.83-16.64v5.41c0,5.83,4.22,10.23,9.83,10.23s9.83-4.4,9.83-10.23v-5.41c-6.17-.24-8.93-1.72-9.83-2.34-.9,.62-3.66,2.09-9.83,2.34"/>
  <path class="cls-2" d="M49.75,78.79c0-2.34-4.61-4.25-10.29-4.25h-.04v11.65s2.38,2.26,10.33,2.48v-9.89Z"/>
  <path class="cls-1" d="M50.24,89.18h-.5c-8.05-.24-10.55-2.54-10.65-2.63l-.15-.15v-12.35h.49c6.08,0,10.82,2.08,10.82,4.73v10.39Zm-10.33-3.22c.61,.44,3.17,1.97,9.35,2.22v-9.38c0-1.77-3.74-3.66-9.35-3.75v10.92Z"/>
  <path class="cls-2" d="M39.42,74.54c-5.71,.01-10.33,1.91-10.33,4.25h0v9.89c7.95-.23,10.33-2.49,10.33-2.49v-11.65Z"/>
  <path class="cls-1" d="M28.59,89.19v-10.4c0-2.65,4.76-4.73,10.83-4.75h.5s0,12.36,0,12.36l-.16,.15c-.1,.1-2.61,2.39-10.66,2.62l-.51,.02Zm10.33-14.14c-5.6,.12-9.33,1.99-9.33,3.74v9.37c6.21-.25,8.72-1.76,9.33-2.21v-10.9Z"/>
  <path class="cls-3" d="M108.38,108.38H5V5H108.38V108.38ZM113.38,0H0V113.38H113.38V0Z"/>
  <path class="cls-2" d="M75.53,78.55c0,1.14,.44,2.21,1.25,3.01,.8,.8,1.88,1.25,3.01,1.25h10.71c2.39,0,4.34,1.95,4.34,4.34v10.37c0,2.39-1.94,4.34-4.34,4.34s-4.34-1.94-4.34-4.34h-2.94c0,4.01,3.26,7.27,7.27,7.27s7.27-3.26,7.27-7.27v-10.37c0-4.01-3.26-7.27-7.27-7.27h-10.71c-.35,0-.69-.14-.94-.39-.25-.25-.39-.58-.39-.94v-1.96c0-.73,.59-1.33,1.33-1.33h10.71c4.01,0,7.27-3.26,7.27-7.27v-20.88c0-4.01-3.26-7.27-7.27-7.27h-11.44v2.94h11.44c2.39,0,4.34,1.94,4.34,4.34v20.88c0,2.39-1.94,4.34-4.34,4.34h-10.71c-2.35,0-4.26,1.91-4.26,4.26v1.96Z"/>
  <path class="cls-1" d="M90.49,39.84c4.01,0,7.27,3.26,7.27,7.27v20.88c0,4.01-3.26,7.27-7.27,7.27h-10.71c-.73,0-1.33,.6-1.33,1.33v1.96c0,.35,.14,.69,.39,.94,.25,.25,.59,.39,.94,.39h10.71c4.01,0,7.27,3.26,7.27,7.27v10.37c0,4.01-3.26,7.27-7.27,7.27s-7.27-3.26-7.27-7.27h2.94c0,2.39,1.95,4.34,4.34,4.34s4.34-1.94,4.34-4.34v-10.37c0-2.39-1.94-4.34-4.34-4.34h-10.71c-1.14,0-2.21-.44-3.01-1.25-.8-.8-1.25-1.88-1.25-3.01v-1.96c0-2.35,1.91-4.26,4.26-4.26h10.71c2.39,0,4.34-1.94,4.34-4.34v-20.88c0-2.39-1.94-4.34-4.34-4.34h-11.44v-2.94h11.44m0-1h-12.44v4.93h12.44c1.84,0,3.34,1.5,3.34,3.34v20.88c0,1.84-1.5,3.34-3.34,3.34h-10.71c-2.9,0-5.26,2.36-5.26,5.26v1.96c0,1.41,.55,2.73,1.54,3.72,.99,.99,2.32,1.54,3.72,1.54h10.71c1.84,0,3.34,1.5,3.34,3.34v10.37c0,1.84-1.5,3.34-3.34,3.34s-3.34-1.5-3.34-3.34v-1h-4.93v1c0,4.56,3.71,8.27,8.27,8.27s8.27-3.71,8.27-8.27v-10.37c0-4.56-3.71-8.27-8.27-8.27h-10.71c-.09,0-.17-.03-.23-.09-.07-.06-.1-.14-.1-.23v-1.96c0-.18,.15-.33,.33-.33h10.71c4.56,0,8.27-3.71,8.27-8.27v-20.88c0-4.56-3.71-8.27-8.27-8.27"/>
  <rect class="cls-2" x="17.96" y="16.79" width="6.73" height="6.73"/>
  <path class="cls-1" d="M25.18,24.02h-7.73v-7.73h7.73v7.73Zm-6.73-1h5.73v-5.73h-5.73v5.73Z"/>
  <rect class="cls-3" x="24.68" y="16.79" width="6.73" height="6.73"/>
  <path class="cls-1" d="M31.91,24.02h-7.73v-7.73h7.73v7.73Zm-6.73-1h5.73v-5.73h-5.73v5.73Z"/>
  <rect class="cls-3" x="31.41" y="16.79" width="6.73" height="6.73"/>
  <path class="cls-1" d="M38.64,24.02h-7.73v-7.73h7.73v7.73Zm-6.73-1h5.73v-5.73h-5.73v5.73Z"/>
  <rect class="cls-3" x="38.14" y="16.79" width="6.73" height="6.73"/>
  <path class="cls-1" d="M45.37,24.02h-7.73v-7.73h7.73v7.73Zm-6.73-1h5.73v-5.73h-5.73v5.73Z"/>
  <rect class="cls-3" x="44.87" y="16.79" width="6.73" height="6.73"/>
  <path class="cls-1" d="M52.09,24.02h-7.73v-7.73h7.73v7.73Zm-6.73-1h5.73v-5.73h-5.73v5.73Z"/>
  <rect class="cls-3" x="51.59" y="16.79" width="6.73" height="6.73"/>
  <path class="cls-1" d="M58.82,24.02h-7.73v-7.73h7.73v7.73Zm-6.73-1h5.73v-5.73h-5.73v5.73Z"/>
  <rect class="cls-3" x="58.32" y="16.79" width="6.73" height="6.73"/>
  <path class="cls-1" d="M65.55,24.02h-7.73v-7.73h7.73v7.73Zm-6.73-1h5.73v-5.73h-5.73v5.73Z"/>
  <rect class="cls-3" x="65.05" y="16.79" width="6.73" height="6.73"/>
  <path class="cls-1" d="M72.27,24.02h-7.73v-7.73h7.73v7.73Zm-6.73-1h5.73v-5.73h-5.73v5.73Z"/>
  <rect class="cls-3" x="71.77" y="16.79" width="6.73" height="6.73"/>
  <path class="cls-1" d="M79,24.02h-7.73v-7.73h7.73v7.73Zm-6.73-1h5.73v-5.73h-5.73v5.73Z"/>
  <rect class="cls-3" x="78.5" y="16.79" width="6.73" height="6.73"/>
  <path class="cls-1" d="M85.73,24.02h-7.73v-7.73h7.73v7.73Zm-6.73-1h5.73v-5.73h-5.73v5.73Z"/>
  <rect class="cls-3" x="17.96" y="23.52" width="6.73" height="6.73"/>
  <path class="cls-1" d="M25.18,30.75h-7.73v-7.73h7.73v7.73Zm-6.73-1h5.73v-5.73h-5.73v5.73Z"/>
  <rect class="cls-3" x="24.68" y="23.52" width="6.73" height="6.73"/>
  <path class="cls-1" d="M31.91,30.75h-7.73v-7.73h7.73v7.73Zm-6.73-1h5.73v-5.73h-5.73v5.73Z"/>
  <rect class="cls-3" x="30.98" y="23.52" width="6.73" height="6.73"/>
  <path class="cls-1" d="M38.64,30.75h-7.73v-7.73h7.73v7.73Zm-6.73-1h5.73v-5.73h-5.73v5.73Z"/>
  <rect class="cls-3" x="37.71" y="23.52" width="6.73" height="6.73"/>
  <path class="cls-1" d="M45.37,30.75h-7.73v-7.73h7.73v7.73Zm-6.73-1h5.73v-5.73h-5.73v5.73Z"/>
  <rect class="cls-3" x="44.43" y="23.52" width="6.73" height="6.73"/>
  <path class="cls-1" d="M52.09,30.75h-7.73v-7.73h7.73v7.73Zm-6.73-1h5.73v-5.73h-5.73v5.73Z"/>
  <rect class="cls-3" x="51.16" y="23.52" width="6.73" height="6.73"/>
  <path class="cls-1" d="M58.82,30.75h-7.73v-7.73h7.73v7.73Zm-6.73-1h5.73v-5.73h-5.73v5.73Z"/>
  <rect class="cls-3" x="57.89" y="23.52" width="6.73" height="6.73"/>
  <path class="cls-1" d="M65.55,30.75h-7.73v-7.73h7.73v7.73Zm-6.73-1h5.73v-5.73h-5.73v5.73Z"/>
  <rect class="cls-3" x="64.62" y="23.52" width="6.73" height="6.73"/>
  <path class="cls-1" d="M72.27,30.75h-7.73v-7.73h7.73v7.73Zm-6.73-1h5.73v-5.73h-5.73v5.73Z"/>
  <rect class="cls-3" x="71.34" y="23.52" width="6.73" height="6.73"/>
  <path class="cls-1" d="M79,30.75h-7.73v-7.73h7.73v7.73Zm-6.73-1h5.73v-5.73h-5.73v5.73Z"/>
  <rect class="cls-2" x="17.96" y="30.25" width="6.73" height="6.73"/>
  <path class="cls-1" d="M25.18,37.47h-7.73v-7.73h7.73v7.73Zm-6.73-1h5.73v-5.73h-5.73v5.73Z"/>
  <rect class="cls-3" x="24.68" y="30.25" width="6.73" height="6.73"/>
  <path class="cls-1" d="M31.91,37.47h-7.73v-7.73h7.73v7.73Zm-6.73-1h5.73v-5.73h-5.73v5.73Z"/>
  <rect class="cls-3" x="31.41" y="30.25" width="6.73" height="6.73"/>
  <path class="cls-1" d="M38.64,37.47h-7.73v-7.73h7.73v7.73Zm-6.73-1h5.73v-5.73h-5.73v5.73Z"/>
  <rect class="cls-3" x="38.14" y="30.25" width="6.73" height="6.73"/>
  <path class="cls-1" d="M45.37,37.47h-7.73v-7.73h7.73v7.73Zm-6.73-1h5.73v-5.73h-5.73v5.73Z"/>
  <rect class="cls-3" x="44.87" y="30.25" width="6.73" height="6.73"/>
  <path class="cls-1" d="M52.09,37.47h-7.73v-7.73h7.73v7.73Zm-6.73-1h5.73v-5.73h-5.73v5.73Z"/>
  <rect class="cls-3" x="51.59" y="30.25" width="6.73" height="6.73"/>
  <path class="cls-1" d="M58.82,37.47h-7.73v-7.73h7.73v7.73Zm-6.73-1h5.73v-5.73h-5.73v5.73Z"/>
  <rect class="cls-3" x="58.32" y="30.25" width="6.73" height="6.73"/>
  <path class="cls-1" d="M65.55,37.47h-7.73v-7.73h7.73v7.73Zm-6.73-1h5.73v-5.73h-5.73v5.73Z"/>
  <rect class="cls-3" x="65.05" y="30.25" width="6.73" height="6.73"/>
  <path class="cls-1" d="M72.27,37.47h-7.73v-7.73h7.73v7.73Zm-6.73-1h5.73v-5.73h-5.73v5.73Z"/>
  <rect class="cls-2" x="17.96" y="36.97" width="13.46" height="6.73"/>
  <path class="cls-1" d="M31.91,44.2h-14.45v-7.73h14.45v7.73Zm-13.45-1h12.45v-5.73h-12.45v5.73Z"/>
  <rect class="cls-3" x="31.41" y="36.97" width="6.73" height="6.73"/>
  <path class="cls-1" d="M38.64,44.2h-7.73v-7.73h7.73v7.73Zm-6.73-1h5.73v-5.73h-5.73v5.73Z"/>
  <rect class="cls-3" x="38.14" y="36.97" width="6.73" height="6.73"/>
  <path class="cls-1" d="M45.37,44.2h-7.73v-7.73h7.73v7.73Zm-6.73-1h5.73v-5.73h-5.73v5.73Z"/>
  <rect class="cls-3" x="44.87" y="36.97" width="6.73" height="6.73"/>
  <path class="cls-1" d="M52.09,44.2h-7.73v-7.73h7.73v7.73Zm-6.73-1h5.73v-5.73h-5.73v5.73Z"/>
  <rect class="cls-3" x="51.59" y="36.97" width="6.73" height="6.73"/>
  <path class="cls-1" d="M58.82,44.2h-7.73v-7.73h7.73v7.73Zm-6.73-1h5.73v-5.73h-5.73v5.73Z"/>
  <rect class="cls-3" x="58.32" y="36.97" width="6.73" height="6.73"/>
  <path class="cls-1" d="M65.55,44.2h-7.73v-7.73h7.73v7.73Zm-6.73-1h5.73v-5.73h-5.73v5.73Z"/>
  <rect class="cls-3" x="65.05" y="36.97" width="6.73" height="6.73"/>
  <path class="cls-1" d="M72.27,44.2h-7.73v-7.73h7.73v7.73Zm-6.73-1h5.73v-5.73h-5.73v5.73Z"/>
  <rect class="cls-2" x="71.77" y="36.97" width="13.45" height="6.73"/>
  <path class="cls-1" d="M85.73,44.2h-14.45v-7.73h14.45v7.73Zm-13.45-1h12.45v-5.73h-12.45v5.73Z"/>
  <rect class="cls-2" x="17.96" y="43.7" width="10.09" height="6.73"/>
  <path class="cls-1" d="M28.55,50.93h-11.09v-7.73h11.09v7.73Zm-10.09-1h9.09v-5.73h-9.09v5.73Z"/>
  <rect class="cls-3" x="28.05" y="43.7" width="6.73" height="6.73"/>
  <path class="cls-1" d="M35.28,50.93h-7.73v-7.73h7.73v7.73Zm-6.73-1h5.73v-5.73h-5.73v5.73Z"/>
  <rect class="cls-3" x="34.77" y="43.7" width="30.27" height="6.73"/>
  <path class="cls-1" d="M65.55,50.93h-31.27v-7.73h31.27v7.73Zm-30.27-1h29.27v-5.73h-29.27v5.73Z"/>
  <rect class="cls-2" x="75.14" y="43.7" width="10.09" height="6.73"/>
  <path class="cls-1" d="M85.73,50.93h-11.09v-7.73h11.09v7.73Zm-10.09-1h9.09v-5.73h-9.09v5.73Z"/>
  <rect class="cls-2" x="65.05" y="43.7" width="10.09" height="6.73"/>
  <path class="cls-1" d="M75.64,50.93h-11.09v-7.73h11.09v7.73Zm-10.09-1h9.09v-5.73h-9.09v5.73Z"/>
  <polygon class="cls-3" points="78.07 23.52 78.07 30.25 71.34 30.25 71.34 36.97 84.8 36.97 84.8 23.52 78.07 23.52"/>
  <path class="cls-1" d="M85.73,37.47h-14.45v-7.73h6.73v-6.73h7.73v14.45Zm-13.45-1h12.45v-12.45h-5.73v6.73h-6.73v5.73Z"/>
  <rect class="cls-3" x="78.97" y="89.17" width="11.29" height="7.86"/>
  <rect class="cls-1" x="78.97" y="97.03" width="11.29" height=".98"/>
  <rect class="cls-1" x="78.97" y="88.19" width="11.29" height=".98"/>
</svg>