<?xml version="1.0" encoding="UTF-8"?>
<svg id="Layer_1" data-name="Layer 1" xmlns="http://www.w3.org/2000/svg" viewBox="0 0 113.39 113.39">
  <defs>
    <style>
      .cls-1 {
        fill: #fff;
      }

      .cls-2 {
        fill: #c7d652;
      }

      .cls-3 {
        fill: #18475b;
      }
    </style>
  </defs>
  <path class="cls-2" d="M16.44,28.39c0,3.24,2.62,5.86,5.86,5.86h1.32v-6.78c0-3.97-3.22-7.19-7.19-7.19v8.11Z"/>
  <path class="cls-1" d="M24.12,34.74h-1.82c-3.5,0-6.36-2.85-6.36-6.35v-8.6h.49c4.23,0,7.68,3.44,7.68,7.68v7.27Zm-7.19-13.95v7.6c0,2.96,2.41,5.37,5.37,5.37h.83v-6.29c0-3.53-2.74-6.43-6.2-6.68"/>
  <rect class="cls-1" x="5" y="5" width="103.38" height="103.39"/>
  <path class="cls-3" d="M84.08,48.61v36.85H47.23l36.85-36.85Zm13.69-33.06L14.17,99.16H97.78V15.55Z"/>
  <rect class="cls-1" x="90.78" y="88.35" width="7.29" height="1.7"/>
  <rect class="cls-1" x="90.78" y="80.79" width="7.29" height="1.7"/>
  <rect class="cls-1" x="90.78" y="73.22" width="7.29" height="1.7"/>
  <rect class="cls-1" x="90.78" y="65.66" width="7.29" height="1.7"/>
  <rect class="cls-1" x="90.78" y="58.09" width="7.29" height="1.7"/>
  <rect class="cls-1" x="90.78" y="50.53" width="7.29" height="1.7"/>
  <rect class="cls-1" x="90.78" y="42.96" width="7.29" height="1.7"/>
  <rect class="cls-1" x="90.78" y="35.4" width="7.29" height="1.7"/>
  <polygon class="cls-3" points="77.45 43.81 89.08 55.45 100.72 43.81 77.45 43.81"/>
  <path class="cls-1" d="M89.08,55.95c-.13,0-.26-.05-.35-.15l-11.63-11.63c-.14-.14-.18-.36-.11-.54,.08-.19,.26-.31,.46-.31h23.27c.2,0,.38,.12,.46,.31,.08,.19,.03,.4-.11,.54l-11.63,11.63c-.09,.09-.22,.15-.35,.15m-10.43-11.63l10.43,10.43,10.43-10.43h-20.85Z"/>
  <polygon class="cls-3" points="56.59 43.81 56.59 43.81 63.91 34.33 56.59 28.02 49.28 34.33 56.59 43.81"/>
  <path class="cls-1" d="M56.59,44.31c-.15,0-.3-.07-.4-.19l-7.32-9.49c-.16-.21-.13-.51,.07-.68l7.32-6.31c.19-.16,.47-.16,.65,0l7.32,6.31c.2,.17,.23,.47,.07,.68l-7.32,9.49c-.09,.12-.24,.19-.4,.19m-6.63-9.92l6.63,8.6,6.63-8.6-6.63-5.72-6.63,5.72Z"/>
  <polygon class="cls-3" points="56.59 28.02 28.27 28.02 49.28 34.33 56.59 28.02"/>
  <path class="cls-1" d="M49.28,34.83s-.1,0-.14-.02l-21.01-6.31c-.24-.07-.39-.31-.35-.55,.04-.25,.25-.43,.49-.43h28.32c.21,0,.4,.13,.47,.33,.07,.19,.02,.42-.14,.55l-7.32,6.31c-.09,.08-.21,.12-.33,.12m-17.6-6.31l17.49,5.25,6.09-5.25H31.67Z"/>
  <polygon class="cls-3" points="56.59 43.81 49.28 34.33 28.27 28.02 35.74 43.81 56.59 43.81"/>
  <path class="cls-1" d="M56.6,44.31h-20.86c-.19,0-.37-.11-.45-.29l-7.47-15.8c-.08-.18-.06-.39,.07-.54,.13-.15,.33-.21,.52-.15l21.01,6.31c.1,.03,.19,.09,.25,.17l7.32,9.49c.12,.15,.14,.35,.05,.53-.08,.17-.26,.28-.45,.28m-20.54-1h19.52l-6.6-8.55-19.78-5.94,6.85,14.5Z"/>
  <polygon class="cls-3" points="77.45 43.81 100.72 43.81 84.92 28.02 77.45 43.81"/>
  <path class="cls-1" d="M100.72,44.31h-23.27c-.17,0-.33-.09-.42-.23-.09-.14-.1-.33-.03-.48l7.47-15.8c.07-.15,.21-.25,.37-.28,.16-.03,.33,.02,.44,.14l15.8,15.8c.14,.14,.19,.36,.11,.55s-.26,.31-.46,.31m-22.48-1h21.27l-14.44-14.44-6.83,14.44Z"/>
  <polygon class="cls-3" points="35.74 43.81 24.11 55.45 56.6 87.94 35.74 43.81"/>
  <path class="cls-1" d="M56.6,88.44c-.13,0-.26-.05-.35-.15L23.75,55.8c-.09-.09-.15-.22-.15-.35s.05-.26,.15-.35l11.63-11.63c.11-.12,.28-.17,.44-.14,.16,.03,.3,.13,.37,.28l20.86,44.12c.1,.22,.03,.48-.17,.62-.09,.06-.19,.09-.29,.09M24.81,55.45l30.1,30.1-19.32-40.88-10.78,10.78Z"/>
  <polygon class="cls-3" points="12.47 43.81 24.11 55.45 35.74 43.81 12.47 43.81"/>
  <path class="cls-1" d="M24.11,55.95h0c-.13,0-.26-.05-.35-.15l-11.63-11.63c-.14-.14-.19-.36-.11-.54,.08-.19,.26-.31,.46-.31h23.27c.2,0,.38,.12,.46,.31,.08,.19,.03,.4-.11,.54l-11.63,11.63c-.09,.09-.22,.15-.35,.15m-10.43-11.63l10.43,10.43,10.43-10.43H13.68Z"/>
  <polygon class="cls-3" points="77.45 43.81 56.59 87.94 89.08 55.45 77.45 43.81"/>
  <path class="cls-1" d="M56.59,88.44c-.1,0-.2-.03-.29-.09-.2-.14-.27-.4-.17-.62l20.86-44.12c.07-.15,.21-.25,.37-.28,.16-.03,.32,.03,.44,.14l11.63,11.63c.2,.2,.2,.51,0,.71l-32.49,32.49c-.1,.1-.23,.15-.35,.15m21-43.77l-19.32,40.88,30.1-30.1-10.78-10.78Z"/>
  <polygon class="cls-3" points="56.59 43.81 56.59 87.94 77.45 43.81 56.59 43.81"/>
  <path class="cls-1" d="M56.6,88.44s-.07,0-.11-.01c-.23-.05-.39-.25-.39-.49V43.81c0-.28,.22-.5,.5-.5h20.85c.17,0,.33,.09,.42,.23,.09,.14,.1,.33,.03,.48l-20.85,44.12c-.08,.18-.26,.29-.45,.29m.5-44.12v41.39l19.57-41.39h-19.57Z"/>
  <polygon class="cls-3" points="35.74 43.81 28.27 28.02 12.47 43.81 35.74 43.81"/>
  <path class="cls-1" d="M35.74,44.31H12.47c-.2,0-.38-.12-.46-.31-.08-.19-.03-.4,.11-.55l15.8-15.8c.12-.12,.28-.17,.44-.14,.16,.03,.3,.13,.37,.28l7.47,15.8c.07,.15,.06,.34-.03,.48-.09,.14-.25,.23-.42,.23m-22.06-1h21.27l-6.83-14.44-14.44,14.44Z"/>
  <polygon class="cls-3" points="56.59 43.81 35.74 43.81 56.59 87.94 56.59 43.81"/>
  <path class="cls-1" d="M56.6,88.44c-.19,0-.37-.11-.45-.29l-20.86-44.12c-.07-.15-.06-.34,.03-.48,.09-.15,.25-.23,.42-.23h20.86c.28,0,.5,.22,.5,.5v44.12c0,.23-.16,.44-.39,.49-.04,0-.07,.01-.11,.01m-20.07-44.12l19.57,41.39V44.31h-19.57Z"/>
  <polygon class="cls-3" points="84.92 28.02 56.59 28.02 63.91 34.33 84.92 28.02"/>
  <path class="cls-1" d="M63.91,34.83c-.12,0-.23-.04-.33-.12l-7.32-6.31c-.16-.14-.21-.36-.14-.55,.07-.2,.26-.33,.47-.33h28.32c.25,0,.46,.18,.49,.43,.04,.25-.11,.48-.35,.55l-21.01,6.31s-.1,.02-.14,.02m-5.97-6.31l6.09,5.25,17.49-5.25h-23.58Z"/>
  <polygon class="cls-3" points="56.59 43.81 77.45 43.81 84.92 28.02 63.91 34.33 56.59 43.81"/>
  <path class="cls-1" d="M77.45,44.31h-20.85c-.19,0-.36-.11-.45-.28-.08-.17-.06-.37,.05-.53l7.32-9.49c.06-.08,.15-.14,.25-.17l21.01-6.31c.19-.06,.39,0,.52,.15,.13,.15,.16,.36,.07,.54l-7.47,15.8c-.08,.18-.26,.29-.45,.29m-19.84-1h19.52l6.85-14.5-19.78,5.94-6.6,8.55Z"/>
  <path class="cls-1" d="M72.51,24.78c-.65-.65-.08-2.27,1.27-3.62,1.35-1.35,2.97-1.92,3.62-1.27,.65,.65,.08,2.27-1.27,3.62-1.35,1.35-2.97,1.92-3.62,1.27"/>
  <path class="cls-2" d="M78.55,18.74c-1.3-1.3-3.96-.74-5.95,1.25-.81,.81-1.38,1.72-1.68,2.61L15.47,81.27l.55,.55L74.7,26.37c.89-.31,1.81-.88,2.61-1.68,1.99-1.99,2.54-4.65,1.24-5.95m-2.42,4.77c-1.35,1.35-2.97,1.92-3.62,1.27-.65-.65-.08-2.27,1.27-3.62,1.35-1.35,2.97-1.92,3.62-1.27,.65,.65,.08,2.27-1.27,3.62"/>
  <path class="cls-1" d="M76.68,18.04c.74,0,1.4,.23,1.87,.7,1.3,1.3,.74,3.96-1.24,5.95-.81,.8-1.72,1.38-2.61,1.68L16.03,81.82l-.55-.55L70.92,22.6c.31-.89,.88-1.81,1.68-2.61,1.26-1.26,2.79-1.95,4.08-1.95m-3.42,7.01c.79,0,1.9-.57,2.87-1.54,1.35-1.35,1.92-2.97,1.27-3.62-.18-.18-.44-.27-.75-.27-.79,0-1.9,.57-2.87,1.54-1.35,1.35-1.92,2.97-1.27,3.62,.18,.18,.44,.27,.75,.27m3.42-8.01c-1.6,0-3.38,.84-4.79,2.24-.83,.83-1.46,1.79-1.84,2.78L14.75,80.58l-.67,.7,.69,.69,.55,.55,.69,.69,.71-.67L75.23,27.24c1-.38,1.95-1.01,2.78-1.84,1.1-1.1,1.85-2.42,2.13-3.74,.3-1.44-.02-2.77-.88-3.63-.65-.65-1.54-.99-2.58-.99m-3.44,7.01c-.01-.31,.28-1.22,1.25-2.18,.86-.85,1.72-1.24,2.16-1.24,0,0,.01,0,.02,0,.01,.31-.28,1.22-1.25,2.18-.86,.85-1.72,1.24-2.16,1.24,0,0-.01,0-.02,0"/>
  <path class="cls-3" d="M76.32,22.42c-.32,0-.64-.16-.83-.45-.29-.46-.15-1.06,.3-1.35,5.8-3.68,6.55-10.31,6.55-15.66,0-.54,.44-.98,.98-.98s.98,.44,.98,.98c0,5.86-.85,13.12-7.46,17.32-.16,.1-.34,.15-.52,.15"/>
  <path class="cls-3" d="M64.29,26.34c-1.23,0-2.5-.13-3.78-.42-3.64-.83-6.29-2.66-9.1-4.59-4.88-3.35-10.41-7.16-23.13-7.16-.54,0-.98-.44-.98-.98s.44-.98,.98-.98c13.33,0,19.13,3.98,24.24,7.5,2.77,1.9,5.16,3.55,8.43,4.29,5.77,1.32,11.26-1.12,14.85-3.4,.46-.29,1.06-.15,1.35,.3,.29,.46,.15,1.06-.3,1.35-3.13,1.98-7.6,4.07-12.55,4.07"/>
  <path class="cls-1" d="M73.1,21.18c-.54,.61-.95,1.27-1.16,1.9-.19,.55-.23,1.05-.12,1.46l1.57,.44-.53-.53c-.17-.17-.17-.56,0-1.04,.21-.61,.67-1.3,1.27-1.89l.35-.35h-1.37Z"/>
  <path class="cls-2" d="M72.51,24.78c-.65-.65-.08-2.27,1.27-3.62l-1.18-1.18c-.8,.81-1.38,1.72-1.68,2.61l-4.2,4.44,5.79-2.26Z"/>
  <path class="cls-2" d="M70.89,98.45c.26,3.29,3.13,5.74,6.41,5.49l1.34-.1-.53-6.88c-.31-4.03-3.83-7.04-7.86-6.73l.64,8.23Z"/>
  <path class="cls-1" d="M78.61,104.64h-1.85c-3.57,0-6.47-2.9-6.47-6.47v-8.75h.5c4.31,0,7.82,3.51,7.82,7.82v7.4Zm-7.32-14.2v7.73c0,3.02,2.45,5.47,5.47,5.47h.85v-6.4c0-3.59-2.79-6.54-6.32-6.8"/>
  <path class="cls-2" d="M84.08,98.17c0,3.3-2.67,5.97-5.97,5.97h-1.35v-6.9c0-4.04,3.28-7.32,7.32-7.32v8.25Z"/>
  <path class="cls-1" d="M78.11,104.64h-1.85v-7.4c0-4.31,3.51-7.82,7.82-7.82h.5v8.75c0,3.57-2.9,6.47-6.47,6.47m-.85-1h.85c3.02,0,5.47-2.45,5.47-5.47v-7.73c-3.53,.26-6.32,3.21-6.32,6.8v6.4Z"/>
  <path class="cls-2" d="M15.16,29.16c0,3.3,2.67,5.97,5.97,5.97h1.35v-6.9c0-4.04-3.28-7.32-7.32-7.32v8.25Z"/>
  <path class="cls-1" d="M22.98,35.63h-1.85c-3.57,0-6.47-2.9-6.47-6.47v-8.75h.5c4.31,0,7.82,3.51,7.82,7.82v7.4Zm-7.32-14.2v7.73c0,3.02,2.45,5.47,5.47,5.47h.85v-6.4c0-3.59-2.79-6.54-6.32-6.8"/>
  <path class="cls-2" d="M28.45,29.16c0,3.3-2.67,5.97-5.97,5.97h-1.35v-6.9c0-4.04,3.28-7.32,7.32-7.32v8.25Z"/>
  <path class="cls-1" d="M22.48,35.63h-1.85v-7.4c0-4.31,3.51-7.82,7.82-7.82h.5v8.75c0,3.57-2.9,6.47-6.47,6.47m-.85-1h.85c3.02,0,5.47-2.45,5.47-5.47v-7.73c-3.53,.26-6.32,3.21-6.32,6.8v6.4Z"/>
  <path class="cls-3" d="M108.38,108.39H5V5H108.38V108.39ZM113.38,0H0V113.39H113.38V0Z"/>
  <path class="cls-1" d="M19.92,106.35c-1.09,0-1.98-.89-1.98-1.98v-11.27c0-1.09,.89-1.98,1.98-1.98s1.98,.89,1.98,1.98v11.27c0,1.09-.89,1.98-1.98,1.98Zm0-14.02c-.43,0-.77,.35-.77,.77v11.27c0,.43,.35,.77,.77,.77s.77-.35,.77-.77v-11.27c0-.43-.35-.77-.77-.77Z"/>
  <path class="cls-2" d="M19.92,105.74c-.76,0-1.38-.62-1.38-1.38v-11.27c0-.76,.62-1.37,1.38-1.37s1.37,.62,1.37,1.38v11.27c0,.76-.62,1.38-1.38,1.38Z"/>
  <rect class="cls-2" x="12.44" y="60.27" width="14.97" height="27.92" rx="7.41" ry="7.41"/>
  <path class="cls-1" d="M20,88.79h-.15c-4.42,0-8.01-3.59-8.01-8.01v-13.1c0-4.42,3.59-8.01,8.01-8.01h.15c4.42,0,8.01,3.59,8.01,8.01v13.1c0,4.42-3.59,8.01-8.01,8.01Zm-.15-27.92c-3.75,0-6.81,3.05-6.81,6.81v13.1c0,3.75,3.05,6.81,6.81,6.81h.15c3.75,0,6.81-3.05,6.81-6.81v-13.1c0-3.75-3.05-6.81-6.81-6.81h-.15Z"/>
  <path class="cls-1" d="M20,94.26h-.15c-3.6,0-6.99-1.4-9.54-3.95-2.55-2.55-3.95-5.94-3.95-9.54,0-1.09,.89-1.98,1.98-1.98s1.98,.89,1.98,1.98c0,2.55,.99,4.94,2.79,6.74,1.8,1.8,4.19,2.79,6.74,2.79h.15c2.55,0,4.94-.99,6.74-2.79s2.79-4.19,2.79-6.74c0-1.09,.89-1.98,1.98-1.98s1.98,.89,1.98,1.98c0,3.6-1.4,6.99-3.95,9.54s-5.94,3.95-9.54,3.95Zm-11.66-14.26c-.43,0-.77,.35-.77,.77,0,3.28,1.28,6.37,3.6,8.69,2.32,2.32,5.4,3.6,8.69,3.6h.15c3.28,0,6.37-1.28,8.69-3.6,2.32-2.32,3.6-5.4,3.6-8.69,0-.43-.35-.77-.77-.77s-.77,.35-.77,.77c0,2.87-1.12,5.56-3.15,7.59-2.03,2.03-4.72,3.15-7.59,3.15h-.15c-2.87,0-5.56-1.12-7.59-3.15-2.03-2.03-3.15-4.72-3.15-7.59,0-.43-.35-.77-.77-.77Z"/>
  <path class="cls-3" d="M20,93.66h-.15c-3.44,0-6.68-1.34-9.11-3.77-2.43-2.43-3.77-5.67-3.77-9.11,0-.76,.62-1.37,1.37-1.37s1.37,.62,1.37,1.37c0,2.71,1.05,5.25,2.97,7.17,1.91,1.91,4.46,2.97,7.17,2.97h.15c2.71,0,5.25-1.05,7.17-2.97,1.91-1.91,2.97-4.46,2.97-7.17,0-.76,.62-1.37,1.38-1.37s1.37,.62,1.37,1.38c0,3.44-1.34,6.68-3.77,9.11-2.43,2.43-5.67,3.77-9.11,3.77Z"/>
  <path class="cls-1" d="M24.89,69.83c-.3,0-.55-.25-.55-.55,0-2.84-2.31-5.15-5.15-5.15-.3,0-.55-.25-.55-.55s.25-.55,.55-.55c3.44,0,6.25,2.8,6.25,6.25,0,.3-.25,.55-.55,.55Z"/>
  <path class="cls-1" d="M27.41,106.35H12.44c-1.09,0-1.98-.89-1.98-1.98s.89-1.98,1.98-1.98h14.97c1.09,0,1.98,.89,1.98,1.98s-.89,1.98-1.98,1.98Zm-14.97-2.75c-.43,0-.77,.35-.77,.77s.35,.77,.77,.77h14.97c.43,0,.77-.35,.77-.77s-.35-.77-.77-.77H12.44Z"/>
  <path class="cls-3" d="M27.41,105.74H12.44c-.76,0-1.37-.62-1.37-1.38s.62-1.37,1.38-1.37h14.97c.76,0,1.37,.62,1.37,1.38s-.62,1.37-1.37,1.37Z"/>
</svg>