<?xml version="1.0" encoding="UTF-8"?>
<svg id="Layer_1" data-name="Layer 1" xmlns="http://www.w3.org/2000/svg" viewBox="0 0 113.39 113.39">
  <defs>
    <style>
      .cls-1 {
        fill: #fff;
      }

      .cls-2 {
        fill: #c7d652;
      }

      .cls-3 {
        fill: #18475b;
      }
    </style>
  </defs>
  <rect class="cls-1" x="0" width="113.39" height="113.38"/>
  <path class="cls-2" d="M108.39,108.39H5V5H108.39V108.39ZM113.39,0H0V113.38H113.39V0Z"/>
  <path class="cls-3" d="M67.99,24.44c0-6.32-4.97-11.44-11.29-11.44,0,6.32-4.98,11.44-11.29,11.44-3.28,0-5.93,2.65-5.93,5.93s2.65,5.93,5.93,5.93h22.59c3.28,0,5.93-2.66,5.93-5.93s-2.65-5.93-5.93-5.93"/>
  <path class="cls-1" d="M67.99,36.8h-22.59c-3.54,0-6.43-2.88-6.43-6.43s2.88-6.43,6.43-6.43c5.95,0,10.8-4.91,10.8-10.94v-.5h.5c6.34,0,11.54,5.1,11.78,11.46,3.32,.25,5.94,3.03,5.94,6.41,0,3.55-2.89,6.43-6.43,6.43m-10.81-23.29c-.26,6.35-5.45,11.43-11.78,11.43-2.99,0-5.43,2.43-5.43,5.43s2.43,5.43,5.43,5.43h22.59c2.99,0,5.43-2.43,5.43-5.43s-2.43-5.43-5.43-5.43h-.5v-.5c0-5.97-4.49-10.68-10.31-10.93"/>
  <path class="cls-3" d="M74.76,33.73H38.62c-3.27,0-5.93,2.65-5.93,5.93s2.65,5.93,5.93,5.93h36.14c3.27,0,5.93-2.65,5.93-5.93s-2.65-5.93-5.93-5.93"/>
  <path class="cls-1" d="M74.76,46.09H38.62c-3.54,0-6.43-2.88-6.43-6.43s2.88-6.43,6.43-6.43h36.14c3.55,0,6.43,2.88,6.43,6.43s-2.88,6.43-6.43,6.43m-36.14-11.85c-2.99,0-5.43,2.43-5.43,5.43s2.43,5.43,5.43,5.43h36.14c2.99,0,5.43-2.43,5.43-5.43s-2.43-5.43-5.43-5.43H38.62Z"/>
  <path class="cls-3" d="M81.54,41.32H31.85c-3.27,0-5.93,2.65-5.93,5.93s2.65,5.93,5.93,5.93h49.69c3.27,0,5.93-2.65,5.93-5.93s-2.65-5.93-5.93-5.93"/>
  <path class="cls-1" d="M81.54,53.68H31.85c-3.54,0-6.43-2.88-6.43-6.43s2.88-6.43,6.43-6.43h49.69c3.55,0,6.43,2.88,6.43,6.43s-2.88,6.43-6.43,6.43m-49.69-11.86c-2.99,0-5.43,2.43-5.43,5.43s2.43,5.43,5.43,5.43h49.69c2.99,0,5.43-2.44,5.43-5.43s-2.44-5.43-5.43-5.43H31.85Z"/>
  <path class="cls-3" d="M16.3,11.62L53.35,61.79c.75,1.01-.24,1.38-.69,.76l-18.64-22.27c-1.7-2.3-4.08-2.81-5.3-1.91-.83,.61-1.78,1.29-2.31,1.66-.25,.18-.5,.15-.66-.06-.16-.21-.25-.34-.25-.34l4.47-3.38-.21-.28-4.6,3.21-.37-.51,4.41-3.45-.26-.36-4.6,3.21-.37-.51,4.41-3.45-.27-.36-4.6,3.2-.37-.5,4.42-3.45-.27-.36-4.59,3.2-.37-.5,4.42-3.45-.27-.36-4.59,3.2-.37-.51,4.42-3.45-.27-.36-4.6,3.2-.37-.5,4.41-3.45-.27-.36-4.6,3.21-.37-.51,4.41-3.45-.27-.36-4.6,3.2-.37-.5,4.41-3.45-.27-.36-4.6,3.2-.37-.51,4.41-3.45-.27-.36-4.6,3.21-.37-.5,4.42-3.45-.27-.36-4.6,3.21-.37-.51,4.42-3.45-.27-.36-4.6,3.21-.37-.5,4.42-3.45-.27-.36-4.6,3.2-.37-.5,4.41-3.45-.27-.36-4.6,3.2-.37-.5,4.41-3.45-.27-.36-4.6,3.2-.37-.5,4.42-3.45-.27-.36-4.6,3.2-.37-.51,4.42-3.45-.27-.36-4.6,3.21-.37-.5,4.42-3.45-.27-.36-4.6,3.2-.37-.5,4.42-3.45-.27-.36-4.6,3.2-.37-.5,4.41-3.45-.27-.36-4.6,3.21-.37-.51,4.41-3.45-.21-.28-4.56,3.26s-.13-.18-.22-.29c-.16-.22-.09-.49,.1-.63l4.81-3.56s.02-.01,.02-.01l1.56-1.15c.37-.27,.9-.19,1.17,.18"/>
  <path class="cls-1" d="M15.62,11.28c.26,0,.51,.12,.68,.34L53.34,61.79c.5,.67,.23,1.07-.15,1.07-.18,0-.39-.1-.54-.3l-18.64-22.27c-1.18-1.6-2.69-2.33-3.91-2.33-.54,0-1.02,.14-1.39,.42-.83,.61-1.78,1.29-2.31,1.66-.11,.08-.22,.12-.33,.12-.13,0-.25-.06-.33-.18-.16-.21-.25-.34-.25-.34l4.47-3.38-.21-.28-4.6,3.21-.37-.51,4.41-3.45-.27-.36-4.6,3.21-.37-.5,4.41-3.45-.27-.36-4.6,3.2-.37-.51,4.42-3.45-.27-.36-4.6,3.2-.37-.5,4.42-3.45-.27-.36-4.6,3.2-.37-.51,4.42-3.45-.27-.36-4.6,3.2-.37-.5,4.42-3.45-.27-.36-4.6,3.2-.37-.5,4.41-3.45-.27-.36-4.6,3.2-.37-.5,4.41-3.45-.27-.36-4.6,3.21-.37-.51,4.41-3.45-.27-.36-4.6,3.21-.37-.5,4.42-3.45-.27-.36-4.59,3.21-.37-.51,4.42-3.45-.27-.36-4.59,3.21-.37-.5,4.42-3.45-.27-.36-4.6,3.2-.37-.5,4.41-3.45-.27-.36-4.6,3.2-.37-.5,4.41-3.45-.27-.36-4.6,3.2-.37-.5,4.42-3.45-.27-.36-4.6,3.2-.37-.51,4.42-3.45-.27-.36-4.59,3.2-.37-.5,4.42-3.45-.27-.36-4.59,3.2-.37-.5,4.42-3.45-.27-.36-4.6,3.2-.37-.5,4.41-3.45-.27-.36-4.6,3.2-.37-.51,4.41-3.45-.21-.28-4.56,3.25s-.13-.18-.21-.29c-.16-.22-.09-.49,.1-.63l4.81-3.56s.02-.02,.02-.02l1.56-1.15c.15-.11,.32-.16,.5-.16m0-1h0c-.4,0-.77,.12-1.09,.36l-1.52,1.13h-.01s-.05,.04-.05,.04l-4.81,3.55c-.31,.23-.52,.58-.58,.96-.06,.38,.04,.76,.27,1.08,.09,.11,.21,.28,.21,.28l.58,.8h0s.14,.18,.14,.18l.58,.79h0s.24,.32,.24,.32l.58,.79h0s.11,.15,.11,.15h0s.46,.62,.46,.62l.25,.34h0l.24,.33,.3,.41,.14,.2,.24,.33h0s.32,.44,.32,.44l.38,.52h0s.11,.15,.11,.15h0l.58,.78,.37,.5,.58,.78h0s.11,.15,.11,.15h0s.58,.78,.58,.78l.09,.12,.04,.05h0l.24,.33,.27,.36,.18,.24,.24,.33h0s.27,.36,.27,.36l.44,.6h0s.24,.33,.24,.33l.28,.38,.16,.22,.24,.33h0s.27,.37,.27,.37l.44,.59h0s.24,.33,.24,.33l.33,.45,.11,.15,.37,.51,.58,.79h0s.24,.32,.24,.32l.58,.79h0s.11,.15,.11,.15h0s.43,.58,.43,.58l.28,.38h0s.2,.27,.2,.27l.49,.67,.37,.51,.54,.73,.28,.38,.57,.77,.22,.3,.03,.03,.58,.79h0s.01,.02,.01,.02c.28,.37,.69,.58,1.14,.58,.31,0,.62-.1,.9-.3,.31-.22,1.38-.98,2.33-1.67,.2-.15,.47-.22,.8-.22,.81,0,2.05,.51,3.1,1.93l.02,.02,.02,.02,18.62,22.25c.33,.43,.82,.68,1.33,.68,.55,0,1.03-.29,1.27-.76,.16-.33,.34-1.01-.32-1.9L17.11,11.03c-.35-.47-.9-.74-1.48-.74"/>
  <path class="cls-3" d="M19.26,62.72v-7.91s11.64-8.35,37.44-8.35,37.44,8.35,37.44,8.35v7.91H19.26Z"/>
  <path class="cls-3" d="M94.63,63.22H18.76v-8.67l.21-.15c.48-.34,12.06-8.44,37.73-8.44s37.25,8.1,37.73,8.44l.21,.15v8.67Zm-74.87-1H93.63v-7.14c-1.68-1.09-13.47-8.11-36.94-8.11s-35.26,7.03-36.94,8.11v7.14Z"/>
  <path class="cls-3" d="M94.13,55.7c-2.3,0-4.16,1.86-4.16,4.16,0-2.3-1.86-4.16-4.16-4.16s-4.16,1.86-4.16,4.16c0-2.3-1.86-4.16-4.16-4.16s-4.16,1.86-4.16,4.16c0-2.3-1.86-4.16-4.16-4.16s-4.16,1.86-4.16,4.16c0-2.3-1.86-4.16-4.16-4.16s-4.16,1.86-4.16,4.16c0-2.3-1.86-4.16-4.16-4.16s-4.16,1.86-4.16,4.16c0-2.3-1.86-4.16-4.16-4.16s-4.16,1.86-4.16,4.16c0-2.3-1.86-4.16-4.16-4.16s-4.16,1.86-4.16,4.16c0-2.3-1.86-4.16-4.16-4.16s-4.16,1.86-4.16,4.16c0-2.3-1.86-4.16-4.16-4.16s-4.16,1.86-4.16,4.16l12.48,32.82v2h58.23v-2l12.48-32.82c0-2.3-1.86-4.16-4.16-4.16"/>
  <path class="cls-1" d="M86.31,95.18H27.08v-2.41L14.6,59.95v-.09c0-2.57,2.09-4.66,4.66-4.66,1.82,0,3.39,1.04,4.16,2.56,.77-1.52,2.35-2.56,4.16-2.56s3.39,1.04,4.16,2.56c.77-1.52,2.34-2.56,4.16-2.56s3.39,1.04,4.16,2.56c.77-1.52,2.35-2.56,4.16-2.56s3.39,1.04,4.16,2.56c.77-1.52,2.34-2.56,4.16-2.56s3.39,1.04,4.16,2.56c.77-1.52,2.35-2.56,4.16-2.56s3.39,1.04,4.16,2.56c.77-1.52,2.34-2.56,4.16-2.56s3.39,1.04,4.16,2.56c.77-1.52,2.34-2.56,4.16-2.56s3.39,1.04,4.16,2.56c.77-1.52,2.34-2.56,4.16-2.56s3.39,1.04,4.16,2.56c.77-1.52,2.35-2.56,4.16-2.56,2.57,0,4.66,2.09,4.66,4.66v.09l-12.48,32.82v2.41Zm-58.23-1h57.23v-1.59l12.48-32.82c-.05-1.98-1.67-3.57-3.66-3.57s-3.66,1.64-3.66,3.66h-1c0-2.02-1.64-3.66-3.66-3.66s-3.66,1.64-3.66,3.66h-1c0-2.02-1.64-3.66-3.66-3.66s-3.66,1.64-3.66,3.66h-1c0-2.02-1.64-3.66-3.66-3.66s-3.66,1.64-3.66,3.66h-1c0-2.02-1.64-3.66-3.66-3.66s-3.66,1.64-3.66,3.66h-1c0-2.02-1.64-3.66-3.66-3.66s-3.66,1.64-3.66,3.66h-1c0-2.02-1.64-3.66-3.66-3.66s-3.66,1.64-3.66,3.66h-1c0-2.02-1.64-3.66-3.66-3.66s-3.66,1.64-3.66,3.66h-1c0-2.02-1.64-3.66-3.66-3.66s-3.66,1.64-3.66,3.66h-1c0-2.02-1.64-3.66-3.66-3.66s-3.61,1.59-3.66,3.57l12.48,32.82v1.59Z"/>
  <path class="cls-2" d="M106.37,60.55c0-3.73-3.05-6.77-6.79-6.77s-6.79,3.04-6.79,6.77c0,3.3,2.38,6.05,5.51,6.65v9.77c0,15.06-6.56,16.92-12.27,16.92-6.91,0-11.72-3.87-12.41-9.91,9.69-1.76,16.26-15.5,16.26-32.13,0-6.61-3.57-12.3-8-13.51v-.84c0-.95-.77-1.73-1.73-1.73h-.86c-.95,0-1.73,.77-1.73,1.73v3.46c0,.95,.78,1.73,1.73,1.73h.86c.62,0,1.17-.33,1.47-.82,2.8,1.14,5.01,5.38,5.01,9.99,0,15.11-6.61,28.39-14.25,28.85-7.64-.46-14.25-13.75-14.25-28.85,0-4.67,2.1-9.12,4.8-10.47,.19,.75,.87,1.31,1.68,1.31h.87c.95,0,1.73-.77,1.73-1.73v-3.46c0-.95-.77-1.73-1.73-1.73h-.86c-.95,0-1.73,.77-1.73,1.73v.22c-5.07,1.27-8.31,8.02-8.31,14.14,0,16.34,6.74,29.89,15.57,32.03,.69,7.89,7.03,13.48,15.9,13.48,10.58,0,15.73-6.62,15.73-20.38v-10.01c2.68-.91,4.61-3.44,4.61-6.41"/>
  <path class="cls-1" d="M80.15,35.78c.95,0,1.73,.77,1.73,1.73v.84c4.43,1.2,8,6.9,8,13.51,0,16.63-6.57,30.37-16.26,32.13,.69,6.04,5.5,9.91,12.41,9.91,5.71,0,12.27-1.86,12.27-16.92v-9.77c-3.13-.6-5.51-3.35-5.51-6.65,0-3.73,3.05-6.77,6.79-6.77s6.79,3.04,6.79,6.77c0,2.97-1.93,5.5-4.61,6.41v10.01c0,13.76-5.14,20.38-15.73,20.38-8.87,0-15.21-5.58-15.9-13.47-8.83-2.14-15.57-15.69-15.57-32.03,0-6.12,3.24-12.86,8.31-14.14v-.22c0-.95,.77-1.73,1.73-1.73h.86c.95,0,1.73,.77,1.73,1.73v3.46c0,.95-.77,1.73-1.73,1.73h-.87c-.81,0-1.49-.56-1.68-1.31-2.7,1.35-4.8,5.81-4.8,10.47,0,15.11,6.61,28.39,14.26,28.85,7.64-.46,14.25-13.75,14.25-28.85,0-4.6-2.21-8.85-5.01-9.99-.3,.49-.85,.82-1.47,.82h-.86c-.95,0-1.73-.77-1.73-1.73v-3.46c0-.95,.77-1.73,1.73-1.73h.86m0-1h-.86c-1.5,0-2.73,1.22-2.73,2.73v3.46c0,1.5,1.22,2.73,2.73,2.73h.86c.63,0,1.22-.21,1.69-.59,2.16,1.35,3.78,5.01,3.78,8.75,0,14.37-6.18,27.35-13.25,27.85-7.07-.5-13.26-13.48-13.26-27.85,0-3.7,1.46-7.43,3.45-9.06,.5,.56,1.23,.9,2.02,.9h.87c1.5,0,2.73-1.22,2.73-2.73v-3.46c0-1.5-1.22-2.73-2.73-2.73h-.86c-1.32,0-2.42,.94-2.67,2.18-5.25,1.83-8.36,8.85-8.36,14.9,0,8.02,1.63,15.75,4.58,21.78,2.85,5.82,6.76,9.7,11.08,11.03,1.05,8.1,7.86,13.69,16.82,13.69,5.6,0,9.84-1.82,12.62-5.42,2.76-3.57,4.1-8.8,4.1-15.97v-9.33c2.79-1.24,4.61-4,4.61-7.09,0-4.28-3.49-7.77-7.79-7.77s-7.79,3.49-7.79,7.77c0,3.44,2.27,6.44,5.51,7.43v8.99c0,14.03-5.7,15.92-11.27,15.92-6.06,0-10.3-3.1-11.28-8.14,4.57-1.21,8.64-5.01,11.53-10.82,2.97-5.96,4.6-13.8,4.6-22.08,0-6.55-3.39-12.49-8-14.23v-.12c0-1.5-1.22-2.73-2.73-2.73"/>
  <path class="cls-1" d="M15.21,90.67c.09-.09,1.11-1.14,2.77-2.29-.1-.03-.2-.07-.3-.1-1.56-.59-2.62-1.76-2.84-3.14-.05-.3,.16-.59,.46-.64,.31-.05,.59,.16,.64,.47,.15,.96,.97,1.83,2.13,2.26,.38,.14,.82,.24,1.28,.27,.33-.19,.67-.38,1.02-.57-.26-.12-.53-.25-.78-.42-1.4-.9-2.19-2.27-2.11-3.67,.02-.31,.28-.54,.59-.53,.31,.02,.55,.28,.53,.59-.05,.97,.56,1.99,1.6,2.67,.47,.3,1.07,.55,1.72,.64,.33-.13,.66-.26,1.01-.37-.43-.26-.84-.58-1.2-.96-1.14-1.22-1.57-2.74-1.16-4.07,.09-.3,.41-.46,.7-.37,.29,.09,.46,.4,.37,.7-.29,.93,.06,2.07,.91,2.97,.52,.56,1.31,1.08,2.22,1.25,.26-.05,.52-.09,.78-.13-.51-.42-.95-.95-1.28-1.57-.79-1.47-.83-3.05-.09-4.23,.16-.26,.51-.34,.77-.18,.26,.16,.34,.51,.18,.77-.51,.82-.46,2.01,.13,3.1,.47,.86,1.37,1.78,2.58,2.01,6.27,.32,11.16,5.29,11.36,5.53l.69,.72-.69,.72c-.21,.24-5.42,5.54-11.99,5.54s-11.78-5.33-11.99-5.54l-.69-.72,.69-.72Z"/>
  <path class="cls-3" d="M14.51,91.39l.69,.72c.21,.21,5.42,5.54,11.99,5.54s11.78-5.3,11.99-5.54l.69-.72-.69-.72c-.2-.23-5.09-5.21-11.36-5.53-1.21-.23-2.11-1.15-2.58-2.01-.59-1.09-.64-2.28-.13-3.1,.16-.26,.08-.61-.18-.77-.26-.16-.61-.08-.77,.18-.74,1.18-.7,2.77,.09,4.23,.34,.62,.78,1.15,1.28,1.57-.26,.04-.52,.08-.78,.13-.91-.16-1.7-.69-2.22-1.25-.85-.91-1.2-2.04-.91-2.97,.09-.3-.08-.61-.37-.7-.29-.09-.61,.07-.7,.37-.41,1.33,.02,2.85,1.16,4.07,.36,.39,.77,.71,1.2,.96-.35,.11-.68,.24-1.01,.37-.65-.09-1.25-.34-1.72-.64-1.04-.67-1.65-1.69-1.6-2.66,.02-.31-.22-.57-.53-.59-.31-.01-.57,.22-.59,.53-.08,1.39,.71,2.76,2.11,3.67,.25,.16,.51,.3,.78,.42-.36,.18-.7,.37-1.03,.57-.46-.03-.9-.13-1.28-.27-1.16-.44-1.97-1.3-2.13-2.26-.05-.31-.33-.51-.64-.47-.3,.05-.51,.34-.46,.64,.22,1.38,1.28,2.55,2.84,3.14,.1,.04,.2,.07,.3,.1-1.66,1.16-2.68,2.2-2.77,2.29l-.69,.72Zm18.1,0c0-1.19-.38-2.3-1.01-3.21,2.32,.93,4.19,2.33,5.2,3.21-1.01,.88-2.88,2.28-5.2,3.21,.64-.91,1.01-2.02,1.01-3.21m-15.08,0c.95-.8,2.63-2.07,4.72-2.99-.55,.87-.86,1.89-.86,2.99s.32,2.12,.86,2.99c-2.1-.92-3.77-2.19-4.72-2.99"/>
  <path class="cls-1" d="M24.64,79.17c.1,0,.2,.03,.3,.08,.26,.16,.34,.51,.18,.77-.51,.83-.46,2.01,.13,3.1,.47,.86,1.37,1.78,2.58,2.01,6.27,.32,11.16,5.29,11.36,5.53l.69,.72-.69,.72c-.21,.24-5.42,5.54-11.99,5.54s-11.78-5.33-11.99-5.54l-.69-.72,.69-.72c.09-.09,1.11-1.14,2.77-2.29-.1-.03-.2-.07-.3-.1-1.56-.59-2.62-1.76-2.84-3.14-.05-.3,.16-.59,.46-.64,.03,0,.06,0,.09,0,.27,0,.51,.2,.55,.47,.15,.96,.97,1.83,2.13,2.26,.38,.14,.82,.24,1.28,.27,.33-.19,.67-.38,1.03-.57-.27-.12-.53-.25-.78-.42-1.4-.9-2.19-2.27-2.11-3.67,.02-.3,.27-.53,.56-.53,0,0,.02,0,.03,0,.31,.02,.55,.28,.53,.59-.06,.97,.56,1.99,1.6,2.66,.47,.3,1.07,.55,1.72,.64,.33-.13,.66-.26,1.01-.37-.43-.26-.84-.58-1.2-.97-1.14-1.22-1.57-2.74-1.16-4.07,.08-.24,.29-.4,.53-.4,.06,0,.11,0,.17,.03,.29,.09,.46,.4,.37,.7-.29,.93,.06,2.07,.91,2.97,.52,.56,1.31,1.08,2.22,1.25,.26-.05,.52-.09,.78-.13-.51-.42-.95-.95-1.28-1.57-.79-1.46-.83-3.05-.09-4.23,.11-.17,.29-.27,.48-.27m6.96,15.43c2.32-.93,4.19-2.33,5.2-3.21-1.01-.88-2.88-2.28-5.2-3.21,.64,.91,1.01,2.02,1.01,3.21s-.37,2.3-1.01,3.21m-9.35-.22c-.55-.87-.87-1.89-.87-2.99s.32-2.12,.87-2.99c-2.1,.92-3.77,2.19-4.72,2.99,.95,.8,2.63,2.07,4.72,2.99m2.39-16.21h0c-.54,0-1.04,.28-1.32,.74-.37,.59-.59,1.26-.66,1.96-.01-.21-.08-.43-.18-.62-.2-.37-.52-.64-.92-.76-.14-.05-.3-.07-.46-.07-.69,0-1.29,.44-1.49,1.1-.17,.53-.23,1.08-.19,1.64-.06-.11-.13-.22-.22-.32-.28-.31-.66-.49-1.07-.51h-.03s-.06,0-.06,0c-.83,0-1.51,.65-1.56,1.47-.02,.43,.02,.85,.11,1.26-.29-.35-.72-.56-1.2-.56-.08,0-.16,0-.24,.02-.41,.07-.77,.29-1.02,.63-.25,.34-.34,.75-.28,1.16,.21,1.31,1,2.48,2.21,3.27-.77,.63-1.31,1.14-1.55,1.38h0s-.02,.03-.02,.03l-.69,.72-.66,.69,.66,.69,.69,.72h0s.02,.02,.02,.02c.97,.97,6.12,5.83,12.69,5.83s12.24-5.36,12.71-5.85h0s.69-.72,.69-.72l.67-.69-.67-.69-.69-.72h0c-.46-.48-5.42-5.46-11.95-5.83-.85-.19-1.5-.89-1.83-1.49-.41-.76-.48-1.59-.16-2.1,.22-.35,.29-.78,.19-1.18-.1-.41-.34-.75-.7-.97-.24-.15-.53-.23-.82-.23m-1.78,4.7c-.29-.5-.39-1.02-.26-1.43,.02-.06,.03-.12,.04-.18-.01,.53,.06,1.07,.22,1.61m-3.02,.95c-.13-.21-.21-.44-.23-.65,.06,.22,.14,.44,.23,.65m13.67,8.71c.07-.37,.1-.76,.1-1.14s-.03-.77-.1-1.14c.66,.4,1.24,.79,1.7,1.14-.46,.35-1.03,.75-1.7,1.14m-14.37-1.14c.43-.32,.87-.62,1.31-.89-.04,.29-.06,.59-.06,.89s.02,.6,.06,.9c-.44-.28-.88-.58-1.31-.9"/>
  <path class="cls-3" d="M99.58,63.38c-1.57,0-2.84-1.27-2.84-2.82s1.28-2.83,2.84-2.83,2.84,1.27,2.84,2.83-1.28,2.82-2.84,2.82"/>
  <path class="cls-1" d="M99.58,57.73c1.57,0,2.84,1.27,2.84,2.83s-1.28,2.82-2.84,2.82-2.84-1.27-2.84-2.82,1.28-2.83,2.84-2.83m0-1c-2.12,0-3.84,1.72-3.84,3.83s1.72,3.82,3.84,3.82,3.84-1.71,3.84-3.82-1.72-3.83-3.84-3.83"/>
  <path class="cls-3" d="M94.13,55.7c-.7,0-1.36,.17-1.94,.48l-.9,1.85-.69,2.51v5.38l3.03,6.18,4.65-12.24c0-2.3-1.86-4.16-4.16-4.16"/>
  <path class="cls-1" d="M94.09,72.27l-.91-.35,4.62-12.15c-.05-1.98-1.67-3.58-3.67-3.58-.95,0-1.84,.36-2.53,1.01l-.67-.71c.87-.82,2.01-1.28,3.2-1.28,2.56,0,4.65,2.09,4.65,4.65v.09l-4.68,12.32Z"/>
</svg>